<svg width="1844" height="368" viewBox="0 0 1844 368" fill="none" xmlns="http://www.w3.org/2000/svg">
<mask id="path-1-outside-1" maskUnits="userSpaceOnUse" x="0" y="0" width="1844" height="368" fill="black">
<rect fill="white" width="1844" height="368"/>
<path d="M206.281 289.665H271.559L171.722 25.5021H101.453L2 289.665H65.7419L82.2533 243.341H189.77L206.281 289.665ZM101.453 188.594L136.012 90.9686L170.57 188.594H101.453Z"/>
<path d="M396.652 89.8201C372.845 89.8201 352.493 98.6255 337.518 113.939V14.0167H281.456V289.665H337.518V270.14C352.493 285.454 372.845 294.259 396.652 294.259C450.794 294.259 491.113 250.232 491.113 192.04C491.113 133.847 450.794 89.8201 396.652 89.8201ZM385.516 240.278C357.869 240.278 337.518 219.605 337.518 192.04C337.518 164.475 357.869 143.801 385.516 143.801C413.163 143.801 433.515 164.475 433.515 192.04C433.515 219.605 413.163 240.278 385.516 240.278Z"/>
<path d="M625.043 89.8201C600.852 89.8201 580.885 98.6255 565.525 115.088V14.0167H509.463V289.665H565.525V183.617C565.525 159.498 582.037 143.801 606.228 143.801C628.883 143.801 643.859 159.115 643.859 182.851V289.665H699.921V164.092C699.921 119.299 669.97 89.8201 625.043 89.8201Z"/>
<path d="M753.502 69.5293C773.469 69.5293 788.445 54.9812 788.445 35.0732C788.445 15.5481 773.469 1 753.502 1C733.919 1 718.943 15.5481 718.943 35.0732C718.943 54.9812 733.919 69.5293 753.502 69.5293ZM725.471 289.665H781.533V94.4142H725.471V289.665Z"/>
<path d="M943.084 94.4142L898.157 218.839L852.847 94.4142H788.721L868.59 289.665H926.188L1005.67 94.4142H943.084Z"/>
<path d="M1149.72 94.4142L1104.79 218.456L1059.48 94.4142H995.354L1073.69 286.22L1067.93 298.471C1062.94 308.808 1055.26 313.019 1046.81 313.019C1038.36 313.019 1029.53 309.19 1023.77 303.448L1002.27 347.092C1016.09 359.343 1037.59 367 1056.02 367C1083.29 367 1107.86 349.389 1119 321.059L1212.31 94.4142H1149.72Z"/>
<path d="M1352.09 94.4142V113.939C1337.12 98.6255 1316.77 89.8201 1292.96 89.8201C1239.2 89.8201 1198.5 133.847 1198.5 192.04C1198.5 250.232 1239.2 294.259 1292.96 294.259C1316.77 294.259 1337.12 285.454 1352.09 270.14V289.665H1408.16V94.4142H1352.09ZM1304.09 240.278C1276.83 240.278 1256.48 219.605 1256.48 192.04C1256.48 164.475 1276.83 143.801 1304.09 143.801C1331.74 143.801 1352.09 164.475 1352.09 192.04C1352.09 219.605 1331.74 240.278 1304.09 240.278Z"/>
<path d="M1559.37 289.665H1633.09L1547.46 184.383L1630.4 94.4142H1557.83L1493.32 167.155V14.0167H1437.26V289.665H1493.32V242.575L1507.91 226.879L1559.37 289.665Z"/>
<path d="M1760.78 145.333V94.4142H1710.48V46.1757H1654.42V94.4142H1624.85V145.333H1654.42V226.113C1654.42 266.312 1675.54 294.259 1723.15 294.259C1738.13 294.259 1749.27 291.58 1760.78 285.837V233.387C1753.49 237.215 1745.04 240.278 1735.06 240.278C1718.55 240.278 1710.48 231.856 1710.48 216.925V145.333H1760.78Z"/>
<path d="M1808.06 69.5293C1828.02 69.5293 1843 54.9812 1843 35.0732C1843 15.5481 1828.02 1 1808.06 1C1788.47 1 1773.5 15.5481 1773.5 35.0732C1773.5 54.9812 1788.47 69.5293 1808.06 69.5293ZM1780.03 289.665H1836.09V94.4142H1780.03V289.665Z"/>
</mask>
<path d="M206.281 289.665H271.559L171.722 25.5021H101.453L2 289.665H65.7419L82.2533 243.341H189.77L206.281 289.665ZM101.453 188.594L136.012 90.9686L170.57 188.594H101.453Z" stroke="#FF2C2C" stroke-width="2" mask="url(#path-1-outside-1)"/>
<path d="M396.652 89.8201C372.845 89.8201 352.493 98.6255 337.518 113.939V14.0167H281.456V289.665H337.518V270.14C352.493 285.454 372.845 294.259 396.652 294.259C450.794 294.259 491.113 250.232 491.113 192.04C491.113 133.847 450.794 89.8201 396.652 89.8201ZM385.516 240.278C357.869 240.278 337.518 219.605 337.518 192.04C337.518 164.475 357.869 143.801 385.516 143.801C413.163 143.801 433.515 164.475 433.515 192.04C433.515 219.605 413.163 240.278 385.516 240.278Z" stroke="#FF2C2C" stroke-width="2" mask="url(#path-1-outside-1)"/>
<path d="M625.043 89.8201C600.852 89.8201 580.885 98.6255 565.525 115.088V14.0167H509.463V289.665H565.525V183.617C565.525 159.498 582.037 143.801 606.228 143.801C628.883 143.801 643.859 159.115 643.859 182.851V289.665H699.921V164.092C699.921 119.299 669.97 89.8201 625.043 89.8201Z" stroke="#FF2C2C" stroke-width="2" mask="url(#path-1-outside-1)"/>
<path d="M753.502 69.5293C773.469 69.5293 788.445 54.9812 788.445 35.0732C788.445 15.5481 773.469 1 753.502 1C733.919 1 718.943 15.5481 718.943 35.0732C718.943 54.9812 733.919 69.5293 753.502 69.5293ZM725.471 289.665H781.533V94.4142H725.471V289.665Z" stroke="#FF2C2C" stroke-width="2" mask="url(#path-1-outside-1)"/>
<path d="M943.084 94.4142L898.157 218.839L852.847 94.4142H788.721L868.59 289.665H926.188L1005.67 94.4142H943.084Z" stroke="#FF2C2C" stroke-width="2" mask="url(#path-1-outside-1)"/>
<path d="M1149.72 94.4142L1104.79 218.456L1059.48 94.4142H995.354L1073.69 286.22L1067.93 298.471C1062.94 308.808 1055.26 313.019 1046.81 313.019C1038.36 313.019 1029.53 309.19 1023.77 303.448L1002.27 347.092C1016.09 359.343 1037.59 367 1056.02 367C1083.29 367 1107.86 349.389 1119 321.059L1212.31 94.4142H1149.72Z" stroke="#FF2C2C" stroke-width="2" mask="url(#path-1-outside-1)"/>
<path d="M1352.09 94.4142V113.939C1337.12 98.6255 1316.77 89.8201 1292.96 89.8201C1239.2 89.8201 1198.5 133.847 1198.5 192.04C1198.5 250.232 1239.2 294.259 1292.96 294.259C1316.77 294.259 1337.12 285.454 1352.09 270.14V289.665H1408.16V94.4142H1352.09ZM1304.09 240.278C1276.83 240.278 1256.48 219.605 1256.48 192.04C1256.48 164.475 1276.83 143.801 1304.09 143.801C1331.74 143.801 1352.09 164.475 1352.09 192.04C1352.09 219.605 1331.74 240.278 1304.09 240.278Z" stroke="#FF2C2C" stroke-width="2" mask="url(#path-1-outside-1)"/>
<path d="M1559.37 289.665H1633.09L1547.46 184.383L1630.4 94.4142H1557.83L1493.32 167.155V14.0167H1437.26V289.665H1493.32V242.575L1507.91 226.879L1559.37 289.665Z" stroke="#FF2C2C" stroke-width="2" mask="url(#path-1-outside-1)"/>
<path d="M1760.78 145.333V94.4142H1710.48V46.1757H1654.42V94.4142H1624.85V145.333H1654.42V226.113C1654.42 266.312 1675.54 294.259 1723.15 294.259C1738.13 294.259 1749.27 291.58 1760.78 285.837V233.387C1753.49 237.215 1745.04 240.278 1735.06 240.278C1718.55 240.278 1710.48 231.856 1710.48 216.925V145.333H1760.78Z" stroke="#FF2C2C" stroke-width="2" mask="url(#path-1-outside-1)"/>
<path d="M1808.06 69.5293C1828.02 69.5293 1843 54.9812 1843 35.0732C1843 15.5481 1828.02 1 1808.06 1C1788.47 1 1773.5 15.5481 1773.5 35.0732C1773.5 54.9812 1788.47 69.5293 1808.06 69.5293ZM1780.03 289.665H1836.09V94.4142H1780.03V289.665Z" stroke="#FF2C2C" stroke-width="2" mask="url(#path-1-outside-1)"/>
</svg>
