<svg width="1841" height="367" viewBox="0 0 1841 367" fill="none" xmlns="http://www.w3.org/2000/svg">
<path d="M204.281 289.454H269.559L169.722 24.569H99.4527L0 289.454H63.7419L80.2533 243.003H187.77L204.281 289.454ZM99.4527 188.107L134.012 90.2144L168.57 188.107H99.4527Z" fill="#F3F3F3"/>
<path d="M394.652 89.0628C370.845 89.0628 350.493 97.8923 335.518 113.248V13.0523H279.456V289.454H335.518V269.876C350.493 285.231 370.845 294.061 394.652 294.061C448.794 294.061 489.113 249.913 489.113 191.562C489.113 133.21 448.794 89.0628 394.652 89.0628ZM383.516 239.932C355.869 239.932 335.518 219.202 335.518 191.562C335.518 163.922 355.869 143.191 383.516 143.191C411.163 143.191 431.515 163.922 431.515 191.562C431.515 219.202 411.163 239.932 383.516 239.932Z" fill="#F3F3F3"/>
<path d="M623.043 89.0628C598.852 89.0628 578.885 97.8923 563.525 114.4V13.0523H507.463V289.454H563.525V183.116C563.525 158.931 580.037 143.191 604.228 143.191C626.883 143.191 641.859 158.547 641.859 182.348V289.454H697.921V163.538C697.921 118.622 667.97 89.0628 623.043 89.0628Z" fill="#F3F3F3"/>
<path d="M751.502 68.7165C771.469 68.7165 786.445 54.1287 786.445 34.1663C786.445 14.5879 771.469 0 751.502 0C731.919 0 716.943 14.5879 716.943 34.1663C716.943 54.1287 731.919 68.7165 751.502 68.7165ZM723.471 289.454H779.533V93.6694H723.471V289.454Z" fill="#F3F3F3"/>
<path d="M941.084 93.6694L896.157 218.434L850.847 93.6694H786.721L866.59 289.454H924.188L1003.67 93.6694H941.084Z" fill="#F3F3F3"/>
<path d="M1147.72 93.6694L1102.79 218.05L1057.48 93.6694H993.354L1071.69 285.999L1065.93 298.283C1060.94 308.649 1053.26 312.871 1044.81 312.871C1036.36 312.871 1027.53 309.032 1021.77 303.274L1000.27 347.038C1014.09 359.322 1035.59 367 1054.02 367C1081.29 367 1105.86 349.341 1117 320.933L1210.31 93.6694H1147.72Z" fill="#F3F3F3"/>
<path d="M1350.09 93.6694V113.248C1335.12 97.8923 1314.77 89.0628 1290.96 89.0628C1237.2 89.0628 1196.5 133.21 1196.5 191.562C1196.5 249.913 1237.2 294.061 1290.96 294.061C1314.77 294.061 1335.12 285.231 1350.09 269.876V289.454H1406.16V93.6694H1350.09ZM1302.09 239.932C1274.83 239.932 1254.48 219.202 1254.48 191.562C1254.48 163.922 1274.83 143.191 1302.09 143.191C1329.74 143.191 1350.09 163.922 1350.09 191.562C1350.09 219.202 1329.74 239.932 1302.09 239.932Z" fill="#F3F3F3"/>
<path d="M1557.37 289.454H1631.09L1545.46 183.884L1628.4 93.6694H1555.83L1491.32 166.609V13.0523H1435.26V289.454H1491.32V242.235L1505.91 226.496L1557.37 289.454Z" fill="#F3F3F3"/>
<path d="M1758.78 144.727V93.6694H1708.48V45.2992H1652.42V93.6694H1622.85V144.727H1652.42V225.728C1652.42 266.037 1673.54 294.061 1721.15 294.061C1736.13 294.061 1747.27 291.373 1758.78 285.615V233.022C1751.49 236.861 1743.04 239.932 1733.06 239.932C1716.55 239.932 1708.48 231.486 1708.48 216.515V144.727H1758.78Z" fill="#F3F3F3"/>
<path d="M1806.06 68.7165C1826.02 68.7165 1841 54.1287 1841 34.1663C1841 14.5879 1826.02 0 1806.06 0C1786.47 0 1771.5 14.5879 1771.5 34.1663C1771.5 54.1287 1786.47 68.7165 1806.06 68.7165ZM1778.03 289.454H1834.09V93.6694H1778.03V289.454Z" fill="#F3F3F3"/>
</svg>
