<svg width="3362" height="2142" viewBox="0 0 3362 2142" fill="none" xmlns="http://www.w3.org/2000/svg">
<path d="M2.11084 458.79C27.4908 283.24 149.421 140.25 309.551 97.3602C309.551 97.3602 576.901 9.47018 755.301 254.95C757.341 257.76 761.821 260.64 760.011 264C758.241 267.29 753.291 265.31 749.801 265.3C661.181 264.89 572.551 264.35 483.931 263.85C471.881 263.78 472.081 262.94 478.191 273.71C487.561 290.22 497.001 306.71 506.061 323.39C508.621 328.11 511.641 329.78 517.041 329.82C552.351 330.09 587.671 330.73 622.981 331.29C631.101 331.42 631.211 331.48 631.401 339.5C632.451 385.47 633.361 431.45 634.571 477.42C634.721 483.25 632.921 487.38 628.761 491.37C593.211 525.48 551.381 535.21 504.191 523.39C480.681 517.5 459.431 506.41 439.351 493.01C438.521 492.46 437.681 491.9 436.921 491.26C429.801 485.36 429.721 484.29 436.061 477.41C451.161 461.05 461.491 442.44 463.151 419.79C464.611 399.89 459.681 381.28 450.171 364.1C423.591 316.08 385.461 281.86 332.071 265.7C291.301 253.37 250.481 249.9 209.091 261.94C189.401 267.67 171.281 276.7 154.521 288.47C146.701 293.96 146.801 293.96 153.261 301.66C166.321 317.23 179.321 332.84 192.321 348.47C197.531 354.74 197.501 354.81 205.521 351.73C237.281 339.54 269.501 328.9 303.181 323.36C319.001 320.76 334.921 319.32 350.951 321.4C354.901 321.91 358.811 322.77 362.721 323.59C372.491 325.65 379.121 331.33 383.881 340.21C403.191 376.23 395.771 412.43 363.041 439.32C345.311 453.88 324.921 463.62 303.601 471.58C287.351 477.64 270.721 482.41 253.841 486.39C246.641 488.09 246.691 488.28 250.881 494.4C261.421 509.79 272.091 525.1 282.381 540.66C285.461 545.32 288.211 547.56 294.421 546.19C325.111 539.41 354.731 529.53 383.261 516.45C387.811 514.36 390.591 513.77 394.231 517.91C407.851 533.4 419.411 550.12 423.001 570.79C427.961 599.39 421.741 625.33 400.481 646.04C386.871 659.31 369.441 665.42 350.811 667.19C315.501 670.55 282.601 663.47 253.031 643.04C225.681 624.14 202.621 600.61 180.601 575.98C167.271 561.07 154.781 545.47 142.701 529.52C138.551 524.05 138.431 524.16 134.541 529.69C129.171 537.32 124.021 545.11 118.301 552.47C115.491 556.09 114.941 559.22 116.671 563.38C120.271 572.02 124.351 580.42 129.291 588.32C160.171 637.67 198.191 680.64 244.841 715.61C280.291 742.18 320.161 756.89 364.781 755.81C422.201 754.41 462.301 726.25 485.651 674.18C494.801 653.77 495.021 632.16 491.641 610.38C489.441 596.22 484.821 582.71 479.901 568.3C483.191 568.62 484.481 570.51 486.041 571.85C499.761 583.57 514.211 594.22 530.581 602.04C539.641 606.37 549.011 609.84 558.921 611.48C586.881 616.09 610.121 607.35 628.811 586.21C630.791 583.97 632.611 581.6 634.551 579.23C637.621 580.57 636.211 583.24 636.211 585.22C636.291 673.19 636.201 761.17 636.441 849.14C636.461 855.5 633.971 858.52 628.881 861.45C550.841 906.49 466.901 925.12 377.331 916.5C244.921 903.76 129.851 829.55 62.5508 720.79C26.8908 663.16 11.4608 598.08 11.4608 598.08C5.51084 573.19 3.06084 552.37 2.03084 541.98C-1.24916 508.77 -0.0591593 480.29 2.11084 458.79Z" fill="#FD0105"/>
<path d="M2670.56 323.9C2657.25 324.07 2643.94 324.34 2630.63 324.39C2607.31 324.47 2583.99 324.42 2560.67 324.41C2548.79 324.41 2550.17 323.97 2550.13 335.42C2550.12 337.09 2550.13 338.75 2550.13 340.42C2550.13 935.47 2550.13 1530.52 2550.11 2125.57C2550.11 2130.89 2549.74 2136.2 2549.54 2141.52C2548.87 2141.52 2548.21 2141.52 2547.54 2141.52C2546.25 2138.09 2542.83 2137.04 2540.2 2135.22C2524.33 2124.22 2508.45 2113.21 2492.34 2102.57C2487.66 2099.47 2485.11 2096.08 2485.95 2090.36C2486.28 2088.08 2486.01 2085.7 2486.01 2083.37C2486.01 1501.73 2486.01 920.08 2486.01 338.44C2486.01 324.41 2486.01 324.47 2471.57 324.4C2447.94 324.28 2424.31 324.08 2400.68 323.91C2386.21 312.75 2376.41 297.39 2364.71 283.75C2362.02 280.62 2356.82 278.32 2358.54 272.55C2375.17 272.41 2391.79 272.19 2408.42 272.15C2436.71 272.08 2465 272.15 2493.28 272.06C2495.04 272.05 2497.7 273.19 2498.33 270.61C2498.61 269.46 2497.11 267.74 2496.21 266.43C2479.75 242.4 2465.98 217.03 2458.44 188.7C2445.24 139.14 2452.98 93.63 2485.85 53.52C2504.43 30.85 2529.73 18.4 2556.94 9.36C2567.38 5.89 2578.16 3.79 2589 2.04C2591.28 1.67 2593.69 1.78 2595.52 0C2608.85 0 2622.18 0 2635.5 0C2638.73 3.1 2643.07 2.19 2646.86 2.82C2689.43 9.86 2727.49 27.57 2762.97 51.48C2802.49 78.11 2836.6 110.75 2868.13 146.24C2887.17 167.68 2905.03 190.08 2921.8 213.34C2923.12 215.17 2926.45 216.97 2924.22 219.89C2921.8 223.07 2913.24 224.33 2910.86 222.12C2908.43 219.86 2906.24 217.33 2903.96 214.89C2869.09 177.47 2831.64 143.03 2788.53 115.17C2754.96 93.47 2719.34 76.48 2679.78 68.99C2641.54 61.75 2604.33 64.38 2568.29 80.37C2541.19 92.4 2525.5 113.41 2517.92 141.22C2510.87 167.09 2513.49 192.75 2520.62 218.17C2525.32 234.91 2532.35 250.72 2539.99 266.3C2542.26 270.92 2545.22 272.27 2550.13 272.21C2570.45 271.98 2590.78 272.1 2611.1 272.14C2614.75 272.15 2618.41 272.41 2622.06 272.55C2640.24 287.78 2658.61 302.81 2670.56 323.9Z" fill="#FD0105"/>
<path d="M2396.52 318.38C2383.87 303.09 2371.2 287.82 2358.54 272.54C2354.56 272.39 2350.57 272.12 2346.59 272.12C2002.07 272.1 1657.55 272.1 1313.03 272.1C1310.7 272.1 1308.36 272 1306.04 272.15C1304.56 272.24 1302.35 271.3 1301.97 273.58C1301.81 274.51 1303.09 275.84 1303.96 276.75C1317.39 290.65 1331.07 304.31 1344.2 318.48C1348.5 323.12 1352.93 324.6 1359.03 324.53C1385.35 324.25 1411.67 324.39 1438 324.43C1446.23 324.44 1446.33 324.52 1446.34 332.43C1446.37 404.74 1446.36 477.06 1446.34 549.37C1446.33 557.37 1446.24 557.46 1438.12 557.47C1385.14 557.5 1332.17 557.5 1279.19 557.47C1271.01 557.47 1270.9 557.38 1270.88 549.35C1270.83 522.36 1270.75 495.37 1270.89 468.38C1271.02 445.06 1270.11 421.72 1271.59 398.42C1272.07 390.84 1270.01 383.93 1267.3 377.09C1249.83 333.08 1217.34 304.2 1175.19 284.67C1158.36 276.87 1141.27 275.71 1123.52 279.5C1101.04 284.31 1083.66 295.74 1074.28 317.6C1072.15 322.55 1071.8 322.53 1067.87 317.88C1056.9 304.9 1045.87 291.97 1035.23 278.73C1031.36 273.9 1027.31 271.79 1020.91 271.93C1000.6 272.39 980.271 272.03 959.941 272.16C955.961 272.18 953.261 271.44 951.151 267.46C937.391 241.55 927.841 214.22 925.031 185.02C922.721 161.08 927.661 138.23 939.971 117.28C946.061 106.9 953.491 97.9701 963.981 91.3401C985.731 77.5901 1009.62 70.4701 1034.84 68.2101C1054.31 66.4701 1073.91 67.9901 1093.12 72.0201C1127.21 79.1601 1158.6 93.2701 1188.13 111.26C1226.47 134.62 1260.29 163.84 1292.47 195.01C1301.78 204.04 1309.31 214.72 1319.07 223.33C1323 226.8 1332.86 226.21 1335.91 222.22C1336.8 221.06 1336.7 219.73 1335.91 218.51C1335.01 217.12 1334.13 215.72 1333.15 214.39C1314.49 189.15 1295.27 164.29 1273.84 141.38C1262.12 128.86 1250.87 115.86 1237.86 104.37C1222 90.3501 1206.54 75.9001 1189.43 63.4001C1148.66 33.6001 1105.07 10.4301 1053.95 3.60012C1036.63 1.28012 1019.27 0.930125 1002.33 2.59012C978.371 4.94012 955.271 12.1101 933.691 23.7801C907.441 37.9901 887.691 58.2701 875.241 85.1401C866.451 104.14 862.191 124.26 862.101 145.61C861.971 174.76 869.101 201.72 881.571 227.68C888.841 242.82 897.531 257.13 906.881 271.29C903.201 272.75 899.881 272.06 896.651 272.06C855.341 272.12 814.021 272.09 772.711 272.15C770.851 272.15 768.321 271.11 767.221 272.96C765.881 275.21 768.591 276.33 769.831 277.61C783.461 291.77 797.291 305.75 810.801 320.03C814.131 323.54 817.661 324.53 822.271 324.49C843.261 324.32 864.251 324.36 885.241 324.44C897.651 324.48 896.181 322.89 896.191 335.81C896.231 422.12 896.211 508.43 896.211 594.75C896.211 656.4 896.311 718.05 896.051 779.69C896.021 786.17 897.721 789.88 903.571 793.04C919.101 801.43 934.171 810.65 949.521 819.37C952.611 821.12 955.921 825.29 959.001 823.63C962.141 821.94 960.201 816.97 960.201 813.49C960.281 655.2 960.271 496.91 960.271 338.62C960.271 336.29 960.231 333.95 960.281 331.62C960.451 324.61 960.471 324.46 967.481 324.44C999.801 324.38 1032.12 324.39 1064.44 324.43C1071.3 324.44 1071.3 324.56 1070.18 331.45C1067.81 346.04 1066.88 360.38 1072.5 374.71C1088.04 414.36 1115.52 442.24 1154.31 459.22C1169.02 465.66 1184.37 470.13 1200.24 472.52C1205.17 473.27 1206.94 474.99 1206.8 480.1C1206.46 492.75 1206.7 505.42 1206.7 518.08C1206.7 529.41 1206.57 540.75 1206.76 552.07C1206.84 556.55 1205.04 557.85 1200.79 557.43C1185.51 555.9 1170.17 557.07 1154.86 556.74C1151.2 556.67 1147.51 556.54 1143.87 556.83C1134.68 557.57 1130.82 562.66 1132.67 571.72C1133.26 574.62 1134.37 577.48 1135.62 580.19C1156.16 624.66 1186.47 660.43 1229.44 684.75C1234.93 687.86 1240.7 690.63 1246.62 692.75C1253.96 695.38 1261.05 694.52 1266.99 688.77C1270.61 685.27 1271.71 681.02 1271.58 676.08C1271.16 660.77 1272.02 645.44 1270.95 630.13C1270.36 621.77 1270.64 621.75 1278.67 621.61C1280.33 621.58 1282 621.61 1283.66 621.61H1433.6C1446.35 621.61 1446.35 621.61 1446.35 634.03C1446.35 740.33 1446.42 846.64 1446.2 952.94C1446.19 959.74 1447.96 963.75 1454.16 967.08C1469.41 975.26 1484.22 984.29 1499.21 992.96C1510.47 999.47 1510.48 999.46 1510.48 986.58C1510.48 769.97 1510.47 553.37 1510.5 336.76C1510.5 322.99 1508.65 324.43 1522.59 324.43C1691.85 324.41 1861.11 324.41 2030.37 324.41C2032.03 324.41 2033.72 324.56 2035.36 324.39C2039.02 324 2041.69 325.39 2043.98 328.23C2063.51 352.45 2078.48 378.93 2083.39 410.09C2086.28 428.5 2083.61 446.01 2071.87 461.28C2063.95 471.58 2053.52 478.6 2041.84 483.89C2027.14 490.53 2011.61 494.14 1995.7 496.32C1979.83 498.5 1963.87 499.23 1947.87 499.47C1941.58 499.57 1941.37 499.79 1942.86 505.64C1944.99 514.02 1947.2 522.41 1949.87 530.64C1963.85 573.75 1984.85 612.62 2018.37 643.97C2079.96 701.57 2165.32 704.31 2230.11 650.52C2236.25 645.43 2241.86 639.69 2247.78 634.32C2248.62 633.55 2249.49 631.85 2250.95 633.15C2251.51 633.65 2251.53 634.92 2251.56 635.84C2251.64 638.17 2251.59 640.51 2251.59 642.84V946.76C2251.59 1006.74 2251.66 1066.73 2251.47 1126.71C2251.45 1132.36 2252.96 1135.69 2258.09 1138.5C2273.57 1146.98 2288.69 1156.12 2304.02 1164.88C2307.4 1166.81 2311.18 1171.24 2314.36 1169.52C2317.63 1167.75 2315.56 1162.26 2315.57 1158.45C2315.64 884.52 2315.62 610.59 2315.66 336.67C2315.66 322.58 2313.82 324.61 2327.76 324.42C2352.07 324.09 2376.38 325.04 2400.68 323.91C2399.3 322.06 2397.99 320.16 2396.52 318.38ZM2247.24 548.93C2229.98 575.31 2210.35 599.51 2184.47 618.02C2159.61 635.81 2132.2 646.43 2101.29 643.49C2056.15 639.2 2022.77 616.51 2001.82 576.08C1996.67 566.12 1995.45 555.17 1994.65 544.14C1994.36 540.16 1996.24 539.85 1999.38 540.01C2006.7 540.38 2014.03 540.59 2021.35 540.7C2038.4 540.97 2055.29 539.69 2071.86 535.38C2079.29 533.45 2086.54 531 2093.44 527.63C2119.92 514.67 2134.38 493.41 2136.91 464.09C2138.81 442.06 2134.11 421.04 2126.55 400.54C2117.61 376.27 2104.76 354.2 2089.06 333.71C2087.12 331.17 2082.75 328.47 2084.04 325.88C2085.77 322.41 2090.66 324.52 2094.11 324.51C2131.41 324.37 2168.71 324.42 2206.01 324.42C2218.66 324.42 2231.32 324.37 2243.97 324.44C2251.43 324.49 2251.55 324.58 2251.56 332.2C2251.61 366.18 2251.59 400.15 2251.59 434.13C2251.58 467.44 2251.49 500.75 2251.68 534.05C2251.72 539.65 2250.29 544.28 2247.24 548.93Z" fill="black"/>
<path d="M713.451 795.36C711.351 792.33 712.171 789.61 712.151 787.12C711.021 639.55 709.941 491.97 708.861 344.4C708.851 342.73 708.851 341.07 708.841 339.4C708.791 329.29 707.801 329.69 718.451 329.54C742.101 329.19 765.741 328.72 789.391 328.36C798.351 328.22 798.371 328.27 801.781 336.31C827.991 398.12 839.221 462.49 834.371 529.5C827.141 629.29 788.851 715.51 720.551 788.49C718.361 790.81 715.961 792.93 713.451 795.36Z" fill="#FD0105"/>
<path d="M1937.14 540.47C1933 540.13 1930.97 537.15 1928.39 535.26C1900.63 514.83 1871.33 497.2 1838.75 485.5C1820.12 478.81 1801.01 474.48 1781.06 475.6C1752.68 477.19 1729.54 490.3 1709.53 509.43C1693.01 525.22 1683.39 544.57 1682.56 567.75C1681.77 589.89 1690.23 608.6 1704.16 625.27C1722.71 647.46 1747.28 654.14 1774.87 652.52C1796.91 651.22 1817.08 643.45 1836.29 633.09C1870.06 614.86 1898.77 590.2 1925.3 562.75C1928.35 559.59 1930.3 554.96 1935.32 553.98C1936.56 558.19 1935.94 562.52 1936.08 566.79C1936.64 583.44 1936.88 600.1 1937.62 616.73C1937.85 621.86 1936.31 625.47 1932.57 628.94C1891.85 666.76 1844.52 689.09 1788.24 687.06C1733.61 685.09 1686.35 664.97 1650.41 622.54C1610.4 575.31 1617.44 515.44 1656.09 473.66C1678.24 449.71 1706 436.89 1738.01 431.71C1782.99 424.42 1826.93 425.85 1869.36 444.18C1891.59 453.79 1911.37 467.17 1929.05 483.67C1931.41 485.88 1934.19 487.77 1934.18 491.76C1934.13 507.99 1936 524.12 1937.14 540.47Z" fill="#FD0105"/>
<path d="M2670.56 323.9C2657.53 308.83 2642.95 295.23 2629.34 280.72C2626.85 278.07 2624.5 275.28 2622.08 272.56C2625.73 272.41 2629.39 272.12 2633.04 272.12C2858.27 272.1 3083.49 272.15 3308.72 271.92C3316.87 271.91 3322.24 274.25 3327.22 280.63C3337.45 293.76 3348.49 306.26 3359.15 319.06C3360.13 320.24 3361.96 321.33 3360.97 323.26C3360.02 325.11 3358.07 324.31 3356.54 324.38C3353.88 324.51 3351.21 324.42 3348.55 324.42C3255.93 324.42 3163.31 324.41 3070.68 324.43C3058.82 324.43 3059.87 323.26 3059.86 335.05C3059.85 384.37 3059.85 433.69 3059.85 483C3059.85 485 3059.75 487 3059.85 489C3060.01 492.24 3061.59 491.96 3063.58 490.37C3064.1 489.95 3064.59 489.5 3065.07 489.03C3083.23 471.47 3105.66 462.79 3129.93 458.07C3135.47 456.99 3141.24 456.99 3146.73 455.74C3159.76 452.77 3171.7 456.05 3183.63 460.85C3239.34 483.26 3269.84 525.45 3277.18 583.92C3285.65 651.45 3266.91 712.48 3228.31 767.87C3227.17 769.51 3225.99 771.13 3224.68 772.64C3223.45 774.05 3221.99 774.46 3220.47 772.92C3219.77 772.21 3219.01 771.55 3218.28 770.87C3204.92 758.31 3190.91 746.51 3176.27 735.46C3170.77 731.31 3170.83 731.15 3175.69 726.1C3203.05 697.64 3224.21 665.23 3237.86 628.09C3244.22 610.76 3248.12 593 3247.47 574.34C3246.41 543.98 3228.17 523.94 3197.97 520C3180.89 517.77 3164.17 520.75 3147.26 522.26C3116.49 525 3093.32 541.14 3071.63 561.33C3062.86 569.49 3059.5 577.81 3059.59 589.85C3060.15 666.49 3059.87 743.131 3059.88 819.771C3059.88 831.971 3060.04 830.801 3050.55 825.331C3034.68 816.191 3019.02 806.65 3002.9 797.96C2996.91 794.73 2995.55 790.78 2995.61 784.49C2995.89 750.17 2995.74 715.85 2995.74 681.52C2995.74 627.87 2995.74 574.22 2995.74 520.57C2995.74 518.57 2995.57 516.55 2995.77 514.58C2996.26 509.9 2994.56 508.15 2989.61 508.25C2974.29 508.54 2958.96 508.35 2943.63 508.35C2920.31 508.35 2896.99 508.43 2873.66 508.29C2868.55 508.26 2863.88 509.23 2859.18 511.24C2842.82 518.25 2827.56 526.89 2814.78 539.5C2793.02 560.99 2785.53 587.31 2788.73 617.11C2790.99 638.2 2797.77 658.01 2806.83 677.07C2828.54 722.72 2859.1 762.03 2893.88 798.3C2895.26 799.74 2896.55 801.33 2898.15 802.51C2902.46 805.68 2902.22 808.671 2898.34 812.021C2896.85 813.311 2895.76 815.071 2894.53 816.641C2887.46 825.641 2887.41 825.7 2879.61 818.06C2838.76 778.11 2801.02 735.56 2770.98 686.68C2755.38 661.3 2742.29 634.76 2736.54 605.21C2730.94 576.42 2734.47 549.47 2753.7 526.01C2757.72 521.1 2762.25 516.7 2767.18 512.68C2768.3 511.76 2770.66 511.07 2769.3 509.01C2768.83 508.3 2766.94 508.36 2765.7 508.36C2745.38 508.33 2725.05 508.11 2704.73 508.47C2698.16 508.59 2693.82 506.88 2689.85 501.21C2677.63 483.75 2664.69 466.79 2652.08 449.6C2651.17 448.36 2649.36 447.26 2650.17 445.37C2651.05 443.32 2653.07 444.38 2654.55 444.3C2657.87 444.12 2661.21 444.22 2664.54 444.22C2770.49 444.22 2876.44 444.22 2982.39 444.22C2995.73 444.22 2995.73 444.22 2995.73 430.39C2995.73 398.4 2995.74 366.41 2995.73 334.42C2995.73 323.01 2996.43 324.44 2985.38 324.44C2884.43 324.41 2783.48 324.43 2682.52 324.4C2678.52 324.4 2674.54 324.07 2670.56 323.9Z" fill="#010101"/>
</svg>
