<svg width="409" height="812" viewBox="0 0 409 812" fill="none" xmlns="http://www.w3.org/2000/svg">
<path d="M411.749 811.908C276.034 811.908 140.326 811.938 4.6248 811.998C0.848217 811.998 0 811.154 0 807.385C0.100978 538.675 0.131272 269.961 0.0908804 1.24436C1.8277 0.309761 3.716 0.772038 5.52351 0.772038C138.97 0.772038 272.419 0.772038 405.872 0.772038C412.94 0.772038 412.233 -0.0721206 412.243 7.25397C412.243 101.049 412.243 194.798 412.243 288.499C411.153 293.182 408.204 290.369 406.538 289.504C400.631 286.349 394.764 283.163 388.675 280.329C366.491 269.905 342.553 263.679 318.081 261.969C262.321 258.039 213.064 274.5 170.754 310.387C140.127 336.345 119.255 369.107 108.208 407.767C102.685 426.73 100.144 446.429 100.675 466.165C100.786 469.803 101.291 473.541 99.5746 477.028C96.5452 479.42 96.4443 482.827 96.8381 486.143C99.7563 510.563 106.28 533.979 117.528 555.927C141.098 602.347 181.28 638.3 230.16 656.703C258.433 667.506 287.667 670.984 317.556 669.285C347.951 667.547 376.457 658.643 403.236 644.232C404.862 643.368 406.377 642.222 408.194 641.84C410.012 641.458 412.031 640.835 412.233 643.85C412.233 698.117 412.233 752.348 412.233 806.541C412.223 808.3 412.688 810.179 411.749 811.908Z" fill="#FE2C2C"/>
<path d="M411.576 290.219C411.636 288.722 411.737 287.204 411.737 285.717C411.737 192.759 411.774 99.7975 411.849 6.83292C411.849 2.3006 410.758 1.13485 406.163 1.1449C270.806 1.2789 135.448 1.31239 0.0898438 1.2454C1.00875 -0.8248 2.81625 0.310794 4.11887 0.310794C59.8117 0.243797 115.505 0.223698 171.197 0.250497C250.371 0.250497 329.548 0.216999 408.728 0.150002C412.172 0.150002 412.848 0.823318 412.848 4.26025C412.747 272.14 412.693 540.016 412.687 807.889C412.687 809.195 413.828 811.004 411.748 811.909C411.748 757.38 411.748 702.858 411.748 648.343C411.748 646.333 411.647 644.323 411.586 642.313C411.044 641.687 410.633 640.959 410.378 640.172C410.123 639.385 410.029 638.555 410.102 637.731C410.398 593.593 410.398 549.459 410.102 505.329C409.98 490.465 409.203 475.572 409.789 460.729C410.465 443.645 410.435 426.641 410.112 409.617C409.779 391.9 409.809 374.193 409.627 356.485C409.576 353.803 409.667 351.119 409.9 348.446C409.334 330.829 409.718 313.202 409.688 295.575C409.657 293.626 409.768 291.616 411.576 290.219Z" fill="#FEFEFE"/>
<path d="M411.577 290.219C411.577 309.594 411.577 328.97 411.577 348.345C410.153 350.094 408.154 350.355 406.114 350.355C400.409 350.405 394.673 350.807 389.008 350.234C372.105 348.526 355.171 349.772 338.247 349.43C334.066 349.35 333.703 350.023 335.773 353.722C339.539 360.435 343.447 367.067 347.234 373.77C347.825 374.969 348.763 375.963 349.928 376.626C351.092 377.289 352.429 377.589 353.767 377.489C358.967 377.428 364.178 377.67 369.368 377.438C380.476 376.946 391.452 378.443 402.509 378.584C407.831 378.644 409.578 380.363 409.648 385.548C410.072 408.27 410.446 430.992 410.264 453.714C410.264 457.935 407.578 460.468 404.731 462.759C388.847 475.823 370.883 481.23 350.364 477.26C337.136 474.698 325.12 469.221 314.012 461.905C306.873 457.191 306.651 454.478 312.356 448.006C324.907 433.736 326.725 415.426 317.061 397.608C300.996 367.982 275.761 351.38 242.641 346.355C220.526 343.019 199.563 346.305 180.297 358.174C173.925 362.103 173.804 362.636 178.499 368.223C183.033 373.6 187.698 378.876 191.97 384.453C194.767 388.091 197.584 388.744 201.906 387.056C217.234 381.026 232.957 376.283 249.315 374.062C257.793 372.826 266.41 372.876 274.873 374.213C281.113 375.218 285.465 378.775 288.505 384.262C298.28 401.859 293.958 421.908 277.559 434.881C264.432 445.273 249.032 450.961 233.209 455.624C230.038 456.568 226.686 456.93 223.021 458.518C228.655 465.904 233.26 473.592 238.662 480.818C240.5 483.26 243.045 482.717 245.569 482.215C258.807 479.572 271.278 474.647 283.688 469.562C289.555 467.16 290.928 467.331 294.947 472.075C302.258 480.697 307.671 490.284 308.307 501.761C309.428 521.97 299.269 539.547 278.821 544.602C258.625 549.627 239.44 546.32 222.122 534.693C203.128 521.96 188.213 504.977 173.915 487.46C172.905 486.164 171.804 484.868 170.764 483.561C166.523 478.285 166.917 478.637 162.353 483.893C157.415 489.571 157.991 494.586 161.535 500.635C175.108 523.551 192.57 543.952 213.145 560.932C228.433 573.725 245.63 582.157 265.482 584.689C300.39 589.151 328.179 570.238 336.611 538.914C339.862 526.855 337.308 515.076 333.693 503.469C332.824 500.696 330.431 497.208 333.359 495.158C336.096 493.249 338.408 496.766 340.579 498.374C346.103 502.464 351.586 506.555 357.746 509.74C372.842 517.579 392.32 518.031 405.003 503.047C406.084 501.771 407.467 500.314 409.244 500.866C411.628 501.61 410.729 503.962 410.729 505.64C410.729 548.099 410.729 590.568 410.85 633.038C410.85 637.158 409.204 639.54 405.872 641.459C393.067 648.772 379.53 654.734 365.481 659.247C340.418 667.467 314.618 669.829 288.515 668.291C265.03 666.809 241.997 661.178 220.496 651.659C196.881 641.463 175.432 626.886 157.294 608.708C125.243 576.636 105.738 538.21 98.777 493.43C98.1327 489.471 97.7247 485.478 97.5551 481.471C97.4845 479.752 97.4138 478.135 98.6659 476.768C98.6659 460.256 98.5851 443.765 101.695 427.405C105.872 404.875 113.659 383.159 124.759 363.088C136.018 342.637 151.013 325.111 168.361 309.755C184.684 295.381 203.261 283.761 223.354 275.356C241.596 267.77 260.806 262.737 280.437 260.402C300.138 257.94 319.818 259.055 339.368 262.583C364.951 267.259 389.437 276.631 411.577 290.219Z" fill="#F30000"/>
<path d="M98.666 476.808C100.686 494.234 103.573 511.419 109.228 528.131C115.503 546.649 124.413 564.176 135.685 580.178C150.382 601.181 168.971 619.2 190.455 633.269C214.637 649.364 242.089 659.95 270.854 664.272C304.49 669.297 337.601 666.814 369.873 655.69C382.387 651.344 394.46 645.833 405.932 639.228C408.406 637.822 409.871 636.153 409.861 632.937C409.76 589.979 409.733 547.011 409.78 504.032C409.78 503.379 409.648 502.726 409.588 502.113C408.164 501.53 407.7 502.585 407.114 503.339C397.551 515.68 384.778 519.087 369.984 516.233C356.857 513.7 346.648 505.771 336.581 497.651C335.813 497.028 335.046 496.405 334.258 495.812C334.157 495.742 333.945 495.812 333.42 495.872C334.834 502.033 337.176 507.881 338.641 513.961C346.719 547.657 321.02 580.791 288.99 586.056C265.765 589.885 244.388 584.429 224.858 571.847C202.643 557.516 185.184 538.201 169.674 517.047C164.497 510.071 160.095 502.557 156.547 494.636C155.927 493.465 155.682 492.133 155.846 490.819C156.011 489.506 156.576 488.274 157.466 487.29C160.071 484.034 162.514 480.657 164.887 477.24C166.18 475.341 166.907 474.979 168.462 477.09C176.796 488.551 185.966 499.387 195.898 509.509C209.318 523.046 222.899 536.814 242.196 541.899C258.353 546.17 274.641 546.924 289.737 537.708C299.754 531.568 304.298 521.951 306.035 510.766C308.509 494.817 301.259 482.376 291.464 470.859C290.08 469.231 288.868 469.11 286.738 470.125C273.269 476.511 259.121 481.366 244.559 484.597C240.964 485.401 238.258 484.597 236.067 481.13C231.018 473.09 225.474 465.382 219.91 457.151C226.797 455.202 233.26 453.574 239.581 451.534C252.547 447.363 264.927 442.037 275.933 433.696C292.191 421.325 296.361 401.407 286.152 383.82C282.376 377.318 276.216 375.941 269.511 375.429C251.093 374.022 233.633 378.444 216.376 384.071C210.479 385.981 204.673 388.142 198.897 390.373C196.968 391.106 195.464 391.377 193.989 389.649C186.766 381.12 179.539 372.571 172.309 364.003C170.906 362.334 171.885 361.38 173.319 360.385C187.567 350.265 203.33 344.306 220.86 343.391C244.297 342.155 266.552 347.19 285.9 360.194C304.843 372.917 319.727 389.689 324.483 413.094C327.402 427.445 322.585 439.756 312.952 450.348C308.539 455.212 308.418 455.905 314.052 459.684C327.876 468.97 342.902 475.612 359.644 476.567C377.931 477.572 393.744 471.04 406.831 458.166C407.489 457.527 408.007 456.76 408.354 455.913C408.702 455.066 408.871 454.157 408.851 453.242C409.295 430.179 408.013 407.155 407.79 384.102C407.79 380.665 405.771 380.564 403.216 380.434C386.646 379.64 370.065 379.208 353.484 379.549C349.667 379.63 347.335 378.454 345.507 374.967C341.394 367.128 337.018 359.423 332.38 351.853C329.926 347.833 331.239 347.391 335.177 347.32C360.664 346.828 386.11 348.325 411.587 348.325C411.648 349.33 411.759 350.335 411.759 351.34C411.759 447.146 411.759 542.984 411.759 638.857C411.759 640.022 411.658 641.188 411.597 642.354C403.075 646.203 394.997 650.936 386.353 654.584C369.274 661.875 351.314 666.923 332.925 669.598C320.242 671.417 307.59 671.608 294.897 671.397C269.188 670.874 244.61 665.116 220.94 655.147C194.015 643.791 169.814 626.885 149.933 605.542C137.87 592.583 127.477 578.178 118.993 562.661C109.425 545.229 102.465 526.5 98.3327 507.067C96.8469 500.43 95.701 493.722 94.8995 486.968C94.4754 483.22 93.405 478.688 98.666 476.808Z" fill="#FE2C2C"/>
<path d="M183.72 73.9739L180.478 65.9343H164.1L160.858 73.9739H156.102L169.714 40.6899H175.015L188.617 73.9739H183.72ZM165.756 61.814H178.883L172.329 45.4735L165.756 61.814Z" fill="white"/>
<path d="M206.935 48.7892C208.589 48.7504 210.233 49.0598 211.759 49.6971C213.285 50.3344 214.659 51.2852 215.79 52.4874C216.963 53.709 217.881 55.1497 218.491 56.7262C219.101 58.3027 219.391 59.9839 219.345 61.6726C219.391 63.3614 219.101 65.0426 218.491 66.6191C217.881 68.1956 216.963 69.6363 215.79 70.8579C214.66 72.0616 213.287 73.0135 211.76 73.6509C210.234 74.2883 208.589 74.5968 206.935 74.5561C205.014 74.5802 203.118 74.1241 201.421 73.2296C199.79 72.3494 198.403 71.0826 197.382 69.5414V73.9732H193.222V39.1919H197.382V53.7637C198.431 52.1964 199.857 50.9155 201.531 50.0378C203.205 49.1601 205.073 48.7135 206.965 48.7389L206.935 48.7892ZM206.157 70.5564C207.333 70.5882 208.502 70.3789 209.593 69.9415C210.684 69.5041 211.673 68.8479 212.498 68.0139C214.127 66.3023 215.034 64.0348 215.034 61.6777C215.034 59.3205 214.127 57.053 212.498 55.3414C211.674 54.5059 210.686 53.8488 209.594 53.4113C208.503 52.9738 207.333 52.7653 206.157 52.7989C204.988 52.765 203.826 52.9735 202.743 53.4113C201.66 53.849 200.68 54.5063 199.866 55.3414C198.251 57.0598 197.353 59.3248 197.353 61.6777C197.353 64.0305 198.251 66.2955 199.866 68.0139C200.681 68.847 201.661 69.503 202.744 69.9406C203.827 70.3782 204.989 70.5879 206.157 70.5564V70.5564Z" fill="white"/>
<path d="M236.45 74.5563C234.101 74.5835 231.784 74.0053 229.725 72.878C227.748 71.7924 226.11 70.1861 224.989 68.2351C223.864 66.2294 223.272 63.9702 223.272 61.6728C223.272 59.3754 223.864 57.1162 224.989 55.1105C226.107 53.1601 227.746 51.5563 229.725 50.4777C231.781 49.343 234.099 48.7611 236.45 48.7893C238.181 48.7452 239.902 49.0501 241.511 49.6857C243.119 50.3213 244.582 51.2744 245.811 52.4876C248.241 54.9332 249.603 58.2337 249.603 61.6728C249.603 65.112 248.241 68.4124 245.811 70.8581C244.584 72.0732 243.121 73.0275 241.512 73.6632C239.903 74.2989 238.181 74.6028 236.45 74.5563ZM236.45 70.5365C237.621 70.5659 238.786 70.3554 239.871 69.918C240.957 69.4806 241.941 68.8257 242.761 67.994C244.376 66.2756 245.275 64.0106 245.275 61.6577C245.275 59.3049 244.376 57.0399 242.761 55.3215C241.066 53.6854 238.797 52.7704 236.435 52.7704C234.073 52.7704 231.804 53.6854 230.109 55.3215C228.841 56.563 227.975 58.1529 227.622 59.8875C227.269 61.622 227.444 63.422 228.125 65.0568C228.807 66.6916 229.963 68.0866 231.446 69.0629C232.93 70.0392 234.672 70.5523 236.45 70.5365V70.5365Z" fill="white"/>
<path d="M273.974 71.7224C271.666 73.557 268.8 74.5563 265.846 74.5563C262.891 74.5563 260.025 73.557 257.717 71.7224C256.703 70.7586 255.908 69.5901 255.386 68.2953C254.863 67.0005 254.625 65.6093 254.687 64.2154V49.3823H258.858V63.6526C258.816 64.577 258.965 65.5002 259.297 66.3647C259.629 67.2291 260.136 68.0164 260.787 68.6774C262.2 69.9025 264.011 70.5773 265.886 70.5773C267.76 70.5773 269.572 69.9025 270.985 68.6774C271.636 68.0164 272.143 67.2291 272.475 66.3647C272.807 65.5002 272.956 64.577 272.914 63.6526V49.3823H277.084V64.2154C277.137 65.6154 276.886 67.0102 276.349 68.3054C275.813 69.6005 275.003 70.7659 273.974 71.7224V71.7224Z" fill="white"/>
<path d="M297.744 53.1208H290.312V66.7379C290.312 69.2804 291.645 70.5567 294.291 70.5567C295.501 70.5395 296.688 70.2217 297.744 69.6321V73.5414C296.41 74.2398 294.919 74.5858 293.412 74.5464C292.436 74.6666 291.445 74.565 290.514 74.249C289.583 73.933 288.736 73.411 288.037 72.7222C287.338 72.0333 286.806 71.1957 286.479 70.2723C286.152 69.3489 286.041 68.3638 286.152 67.3911V53.1208H281.729V49.3824H286.182V42.7598H290.342V49.3824H297.774L297.744 53.1208Z" fill="white"/>
<path d="M329.27 53.1208H321.838V66.7379C321.838 69.2804 323.17 70.5567 325.816 70.5567C327.027 70.5395 328.214 70.2217 329.27 69.6321V73.5414C327.936 74.2398 326.444 74.5858 324.938 74.5464C323.961 74.6666 322.97 74.565 322.039 74.249C321.108 73.933 320.262 73.411 319.563 72.7222C318.864 72.0333 318.331 71.1957 318.004 70.2723C317.678 69.3489 317.566 68.3638 317.677 67.3911V53.1208H313.224V49.3824H317.677V42.7598H321.838V49.3824H329.27V53.1208Z" fill="white"/>
<path d="M347.658 48.7892C348.998 48.7052 350.34 48.9061 351.596 49.3784C352.852 49.8508 353.993 50.5837 354.942 51.5286C355.892 52.4734 356.628 53.6086 357.103 54.8586C357.577 56.1086 357.779 57.4448 357.695 58.7784V73.9732H353.535V60.0748C353.58 59.1072 353.429 58.1404 353.091 57.2321C352.753 56.3239 352.234 55.4929 351.566 54.7887C350.875 54.1138 350.053 53.5872 349.15 53.2415C348.246 52.8957 347.282 52.7383 346.315 52.7788C345.31 52.7293 344.306 52.8818 343.362 53.2271C342.419 53.5724 341.554 54.1035 340.821 54.7887C340.136 55.4955 339.603 56.3344 339.256 57.2539C338.908 58.1734 338.754 59.1539 338.802 60.1351V73.9732H334.642V39.1919H338.802V53.2612C339.761 51.8147 341.082 50.6417 342.634 49.8575C344.187 49.0734 345.918 48.7052 347.658 48.7892V48.7892Z" fill="white"/>
<path d="M388.766 61.6729C388.766 61.9141 388.725 62.5271 388.645 63.5119H367.328C367.692 65.5749 368.798 67.4358 370.438 68.7477C372.154 70.1115 374.302 70.8239 376.497 70.7576C378.189 70.7718 379.861 70.3861 381.374 69.6321C382.756 68.9742 383.95 67.9826 384.848 66.7479L387.756 69.1899C386.488 70.8711 384.828 72.2198 382.919 73.1193C380.885 74.0922 378.652 74.584 376.396 74.5563C374.619 74.6108 372.849 74.3098 371.19 73.6711C369.532 73.0324 368.02 72.069 366.742 70.838C365.486 69.6487 364.493 68.2107 363.829 66.6167C363.165 65.0226 362.843 63.3077 362.885 61.5824C362.846 59.3051 363.414 57.0581 364.531 55.0703C365.633 53.1365 367.251 51.5437 369.206 50.4677C371.229 49.3421 373.513 48.7635 375.83 48.7894C378.135 48.7639 380.406 49.3428 382.414 50.4677C384.359 51.5525 385.963 53.1527 387.049 55.0904C388.192 57.0967 388.784 59.3669 388.766 61.6729V61.6729ZM375.82 52.6283C373.78 52.5941 371.799 53.3097 370.256 54.6382C368.698 55.9546 367.657 57.7771 367.318 59.7836H384.333C384.012 57.7674 382.973 55.9337 381.404 54.6181C379.842 53.2814 377.84 52.5657 375.78 52.6082L375.82 52.6283Z" fill="white"/>
<path d="M306.146 132.442C303.799 132.468 301.486 131.89 299.431 130.764C297.451 129.679 295.809 128.072 294.685 126.121C293.559 124.115 292.968 121.856 292.968 119.558C292.968 117.261 293.559 115.002 294.685 112.996C295.806 111.045 297.449 109.442 299.431 108.363C301.484 107.229 303.798 106.647 306.146 106.675C308.464 106.646 310.75 107.217 312.78 108.333C314.712 109.393 316.32 110.952 317.435 112.845L313.82 115.016C313.074 113.692 311.977 112.597 310.649 111.85C309.28 111.067 307.725 110.665 306.146 110.685C304.97 110.652 303.8 110.86 302.709 111.298C301.617 111.735 300.629 112.392 299.804 113.227C298.537 114.469 297.671 116.059 297.317 117.793C296.964 119.528 297.139 121.328 297.82 122.962C298.502 124.597 299.658 125.992 301.142 126.969C302.625 127.945 304.367 128.458 306.146 128.442C307.726 128.458 309.281 128.052 310.649 127.266C311.974 126.506 313.069 125.406 313.82 124.081L317.435 126.251C316.322 128.159 314.705 129.727 312.76 130.784C310.737 131.897 308.457 132.468 306.146 132.442V132.442Z" fill="white"/>
<path d="M322.484 131.859V97.1177H326.644V131.859H322.484Z" fill="white"/>
<path d="M352.595 129.638C350.287 131.472 347.421 132.472 344.467 132.472C341.513 132.472 338.646 131.472 336.338 129.638C335.324 128.674 334.529 127.506 334.007 126.211C333.484 124.916 333.246 123.525 333.309 122.131V107.268H337.479V121.538C337.437 122.462 337.586 123.385 337.918 124.25C338.25 125.114 338.757 125.902 339.408 126.563C340.821 127.788 342.633 128.463 344.507 128.463C346.382 128.463 348.193 127.788 349.606 126.563C350.257 125.902 350.764 125.114 351.096 124.25C351.428 123.385 351.577 122.462 351.535 121.538V107.268H355.706V122.101C355.762 123.506 355.514 124.906 354.977 126.207C354.44 127.508 353.628 128.678 352.595 129.638V129.638Z" fill="white"/>
<path d="M376.113 106.675C377.766 106.636 379.409 106.946 380.933 107.583C382.458 108.22 383.829 109.171 384.959 110.373C387.246 112.891 388.512 116.164 388.512 119.558C388.512 122.952 387.246 126.226 384.959 128.743C383.831 129.947 382.459 130.9 380.935 131.537C379.41 132.175 377.766 132.483 376.113 132.442C374.19 132.464 372.291 132.009 370.59 131.115C368.959 130.235 367.572 128.968 366.55 127.427V131.859H362.39V97.1177H366.55V111.689C367.572 110.151 368.959 108.888 370.59 108.011C372.288 107.11 374.188 106.65 376.113 106.675ZM375.325 128.442C376.522 128.482 377.715 128.282 378.833 127.854C379.95 127.426 380.97 126.778 381.831 125.95C382.691 125.121 383.376 124.129 383.844 123.032C384.311 121.935 384.552 120.755 384.552 119.563C384.552 118.371 384.311 117.192 383.844 116.095C383.376 114.997 382.691 114.005 381.831 113.177C380.97 112.348 379.95 111.701 378.833 111.273C377.715 110.844 376.522 110.644 375.325 110.685C374.157 110.651 372.994 110.859 371.911 111.297C370.828 111.735 369.848 112.392 369.034 113.227C367.42 114.945 366.521 117.21 366.521 119.563C366.521 121.916 367.42 124.181 369.034 125.899C369.85 126.733 370.83 127.389 371.912 127.826C372.995 128.264 374.157 128.473 375.325 128.442V128.442Z" fill="white"/>
</svg>
