<svg width="95" height="153" viewBox="0 0 95 153" fill="none" xmlns="http://www.w3.org/2000/svg">
<path d="M67.7787 113.22C73.6697 113.148 79.5606 113.22 85.242 115.032C90.1572 116.625 94.4652 118.997 94.9494 124.882C95.4482 130.971 92.0582 134.812 87.049 137.533C86.4261 137.897 85.7672 138.195 85.083 138.421C81.9676 139.33 79.4378 140.356 78.527 144.284C77.8042 147.405 74.5226 148.555 71.2988 148.708C67.9594 148.875 64.9525 147.98 63.3984 144.786C62.4877 142.931 61.5191 142.444 59.5603 142.604C50.8431 143.482 42.1162 144.26 33.3798 144.939C31.5149 145.085 30.7632 145.812 30.2066 147.587C29.079 151.225 26.2239 152.978 22.1761 152.964C17.9693 152.964 15.1069 151.108 14.0444 147.231C13.5746 145.507 12.8156 144.786 11.1531 144.75C10.7939 144.72 10.4396 144.647 10.0978 144.532C5.84041 143.441 1.51796 142.08 0.325308 137.148C-0.903483 132.055 1.5035 127.981 5.03086 124.562C8.04501 121.652 11.8615 120.132 15.7792 118.902C21.9884 117.01 28.3806 115.791 34.8471 115.265C36.8059 115.09 37.6155 114.472 37.4782 112.42C37.2855 109.771 37.2589 107.113 37.3987 104.461C37.5432 102.162 36.5024 101.639 34.5074 101.486C26.4335 100.882 18.4897 99.6671 10.8423 96.9608C5.14651 94.9674 4.69836 93.8252 6.89573 88.2308C18.0705 59.9748 29.7368 31.9443 42.3572 4.31395C42.7114 3.54281 43.0077 2.74984 43.4125 2.00779C44.8148 -0.603928 45.9857 -0.691228 47.388 1.88411C49.4553 5.6962 51.3924 9.58104 53.3007 13.4731C65.2272 37.8201 77.1368 62.1864 89.0296 86.5721C90.8077 90.2096 90.4752 91.5118 86.6081 93.3888C78.4331 97.39 69.6291 99.3615 60.7023 100.664C57.811 101.086 57.0087 102.162 57.0449 105.029C57.1677 113.577 57.0449 113.577 65.6175 113.293C66.3403 113.199 67.0559 113.22 67.7787 113.22Z" fill="#010101"/>
<path d="M48.6747 87.7579C43.7161 88.3399 39.278 87.9907 34.8905 87.6561C32.2522 87.4524 31.8981 84.8406 30.6548 83.1747C29.7657 81.9889 29.7802 79.1371 27.4094 80.4466C25.3132 81.6033 27.2287 83.3566 27.7057 84.8698C27.8936 85.4299 28.1755 85.961 28.5514 86.8267C23.5786 86.4034 18.7277 85.0515 14.2468 82.84C11.5869 81.4869 14.4781 79.5954 14.695 77.9367C14.8468 76.7945 15.3744 75.5723 17.1453 76.4817C19.0819 77.4759 21.24 77.9519 23.4122 77.8639C26.0123 77.7794 28.5081 76.8151 30.4965 75.1267C32.4848 73.4384 33.8495 71.1246 34.3701 68.5592C35.6278 62.9066 33.1775 57.3994 27.7274 55.1733C24.7132 53.9366 24.7638 52.7071 25.9348 50.1972C28.1828 45.403 30.2211 40.4997 32.1872 35.5745C33.0112 33.5157 33.6328 32.8464 35.9675 34.1195C37.2867 34.8521 38.7454 35.2944 40.2472 35.417C41.7489 35.5397 43.2594 35.3399 44.6787 34.831C46.098 34.3221 47.3937 33.5155 48.4801 32.4648C49.5664 31.4141 50.4187 30.1431 50.9805 28.736C53.4886 22.465 50.7708 16.0048 44.3739 13.8223C42.4151 13.153 42.1621 12.5128 43.0728 10.8396C43.8679 9.3846 44.4751 7.82776 45.4581 5.68164C46.7231 8.06783 47.735 9.89385 48.6602 11.7562C52.3755 19.1985 56.033 26.6699 59.7989 34.0759C60.6084 35.6764 60.6445 36.7676 59.4013 38.2372C57.9634 39.8101 57.0508 41.7967 56.7915 43.9181C56.5322 46.0396 56.9393 48.1895 57.9557 50.0663C60.0518 54.4312 63.7382 56.4391 68.4799 56.2063C69.1164 56.0963 69.7711 56.2211 70.3235 56.5579C70.8759 56.8947 71.289 57.4208 71.4868 58.0396C73.5107 62.4046 75.6575 66.7041 77.7247 70.96C77.0814 72.0803 76.1201 71.5129 75.3973 71.7602C75.0442 71.834 74.7241 72.0203 74.4845 72.2915C74.2449 72.5628 74.0986 72.9046 74.0673 73.2662C74.0464 73.4775 74.0673 73.6909 74.1288 73.894C74.1902 74.0971 74.2911 74.286 74.4255 74.4497C74.5599 74.6134 74.7252 74.7487 74.9119 74.8477C75.0985 74.9467 75.3028 75.0076 75.5129 75.0267C76.5682 75.2377 77.6814 75.2522 78.715 75.4705C80.3847 75.8051 80.9341 77.2528 81.3605 78.6133C81.9171 80.3956 80.1679 80.4902 79.2427 80.9485C76.7851 82.1489 74.3419 83.4438 71.2917 83.8585C72.0145 76.8891 69.846 71.4911 63.1816 68.8794C58.3171 67.0024 53.5754 67.6717 49.8962 71.6075C45.487 76.3871 45.6027 81.807 48.6747 87.7579Z" fill="#FEFEFE"/>
<path d="M25.5083 142.182C18.7283 142.182 13.7842 142.269 9.02083 140.727C3.18769 138.836 1.83602 135.155 5.01642 129.88C6.77674 127.106 9.38045 124.977 12.4398 123.813C19.7113 120.736 27.3949 119.448 35.1869 118.655C36.9288 118.473 37.5288 118.997 37.536 120.765C37.536 123.449 37.6444 126.046 35.541 128.185C34.6375 129.109 33.6834 130.462 35.2953 131.553C36.6759 132.485 37.3625 131.117 38.1866 130.266C40.7742 127.625 41.3308 124.446 40.9188 120.925C40.6514 118.742 41.5332 117.935 43.7161 117.942C46.3544 117.942 48.9927 117.68 51.6237 117.44C53.1995 117.294 53.7199 117.927 53.7922 119.477C53.8717 122.387 53.7922 125.261 51.7611 127.669C50.9515 128.614 50.3154 129.887 51.5948 130.826C52.8742 131.764 53.7055 130.579 54.4861 129.633C56.8136 126.861 57.3774 123.646 57.0883 120.175C56.9437 118.56 56.9148 117.033 59.2567 116.945C66.7017 116.683 74.154 116.123 81.5267 117.6C83.4074 117.988 85.2331 118.609 86.9623 119.448C92.3618 122.045 93.2219 128.01 88.82 132.179C85.7263 135.089 81.8303 136.377 77.7536 137.017C64.6923 139.068 51.5225 140.109 38.36 141.215C33.481 141.586 28.5731 141.942 25.5083 142.182Z" fill="#FEFEFE"/>
<path d="M45.1758 98.6557C33.43 98.4156 22.9636 97.2007 12.7936 94.0288C11.5142 93.6214 9.31683 93.4977 9.42525 91.9118C9.54813 89.9694 10.5962 88.0197 11.5503 86.2373C12.0419 85.3352 13.0683 86.2373 13.8055 86.4774C36.6177 94.0506 59.1407 93.4832 81.2228 83.742C85.0393 82.0615 84.2659 85.5462 85.3718 86.8411C86.9041 88.638 86.3331 89.9475 84.1068 90.8569C71.7107 95.8235 58.5167 98.4666 45.1758 98.6557Z" fill="#FDFDFD"/>
<path d="M58.4759 71.4766C63.1092 71.4766 67.1136 74.4303 67.793 78.8171C68.5159 83.6913 67.6846 86.092 62.8707 86.3467C61.3238 86.434 59.8059 86.8486 58.2735 87.0742C51.8405 87.9981 48.1541 83.233 50.4382 77.0056C51.0294 75.3499 52.1245 73.9242 53.5677 72.9314C55.0109 71.9387 56.7285 71.4296 58.4759 71.4766Z" fill="#FDFDFD"/>
<path d="M22.3204 74.4958L19.7905 73.9065C17.4486 73.3609 16.6824 72.2697 17.8606 69.8253C19.4687 66.4785 20.8783 63.0387 22.0819 59.5239C22.9131 57.0941 24.1419 57.0723 26.1007 58.0035C30.0112 59.8658 31.9267 63.5397 31.0376 67.7374C30.1774 71.8186 26.8958 74.5613 22.3204 74.4958Z" fill="#FDFDFD"/>
<path d="M47.5466 102.017C53.799 101.886 53.799 101.886 53.7846 108.208C53.7846 114.028 53.7846 114.028 47.7779 114.333C40.875 114.69 40.875 114.69 40.81 107.677C40.7594 102.162 40.7594 102.162 47.5466 102.017Z" fill="#FCFCFC"/>
<path d="M41.0488 32.0099C36.2493 32.0536 34.7242 29.8274 36.618 25.4624C37.5287 23.3818 38.6129 21.3594 39.3213 19.206C40.1959 16.5797 41.7427 16.296 44.0052 17.2635C47.3012 18.624 48.9637 21.8541 48.2843 25.8116C48.0259 27.5503 47.1507 29.136 45.8206 30.2754C44.4905 31.4149 42.7954 32.031 41.0488 32.0099Z" fill="#FCFCFC"/>
<path d="M68.2412 52.6853C65.0536 53.1655 62.7551 51.7105 61.1938 49.0478C60.5043 47.908 60.1396 46.5993 60.1396 45.2649C60.1396 43.9304 60.5043 42.6217 61.1938 41.4819C61.8588 40.267 62.5743 39.8014 63.3622 41.4819C64.8079 44.5155 66.3041 47.5274 67.7642 50.5538C68.0822 51.143 68.5521 51.7396 68.2412 52.6853Z" fill="#F6F6F6"/>
<path d="M22.4071 145.601C22.7585 145.539 23.1181 145.539 23.4696 145.601C24.6117 146.067 26.7006 144.386 26.8885 146.591C27.0259 148.228 25.3056 149.13 23.7009 149.421C22.7745 149.589 21.8268 149.602 20.8964 149.457C19.1833 149.173 17.2461 148.344 17.463 146.503C17.6871 144.532 19.7905 146.002 20.9976 145.616C21.4644 145.545 21.9389 145.54 22.4071 145.601Z" fill="#F5F5F5"/>
<path d="M70.4166 145.499C69.6774 145.353 68.9519 145.144 68.2481 144.874C67.2868 144.437 66.1303 143.833 66.3544 142.604C66.5784 141.374 67.9229 141.833 68.7613 141.687C70.5106 141.389 72.2959 141.258 74.0668 141.098C74.7246 141.032 75.5703 140.61 75.9751 141.44C76.3292 142.167 75.7727 142.815 75.3607 143.368C74.168 144.895 72.4622 145.325 70.4166 145.499Z" fill="#F1F1F1"/>
<path d="M44.0918 55.617C46.2494 55.7429 48.4076 55.3825 50.4092 54.5621C51.5513 54.0747 52.8379 53.5509 53.4812 55.0423C54.204 56.7664 52.6861 57.3412 51.5151 57.8286C48.6144 58.96 45.4826 59.3596 42.3932 58.9926C41.2005 58.9271 39.7549 58.8471 39.7549 57.2393C39.7549 55.3114 41.3957 55.5952 42.6968 55.617H44.0918Z" fill="#0D0D0D"/>
<path d="M44.092 67.6134C43.8777 70.6338 42.951 73.5592 41.3887 76.1469C40.702 77.2091 39.7768 78.1839 38.4396 77.2964C37.2541 76.5034 37.7168 75.434 38.3962 74.4664C39.878 72.2839 40.3117 69.8104 40.7309 67.3078C40.9477 66.0202 40.8899 64.3542 42.8343 64.6743C44.4317 64.9435 44.1787 66.4058 44.092 67.6134Z" fill="#0B0B0B"/>
<path d="M56.9795 33.3556C56.9795 35.1089 51.3199 40.9652 49.9176 40.7615C48.6527 40.5796 47.7058 39.583 48.5804 38.5136C50.4497 36.1957 52.5336 34.0618 54.8039 32.1407C55.8375 31.2822 56.7265 32.3662 56.9795 33.3556Z" fill="#0A0A0A"/>
<path d="M37.384 41.5326C35.9383 43.9188 34.4349 46.3632 32.8591 48.7421C32.657 48.9736 32.3728 49.1162 32.0674 49.1393C31.7621 49.1624 31.4599 49.0642 31.2256 48.8658C30.8417 48.6727 30.5469 48.3378 30.4028 47.9311C30.2586 47.5243 30.2763 47.0772 30.4522 46.6833C31.2715 44.2853 32.6181 42.1044 34.3915 40.3031C34.6627 39.9751 35.0425 39.7569 35.461 39.6887C35.8794 39.6206 36.3083 39.707 36.6684 39.9321C36.9374 40.0917 37.1506 40.3313 37.2788 40.6179C37.4069 40.9045 37.4437 41.2241 37.384 41.5326Z" fill="#0E0E0E"/>
<path d="M66.4991 65.9404C64.1716 64.6018 61.6923 63.2414 59.2709 61.75C58.7938 61.459 58.83 60.6733 59.1842 60.1059C59.3595 59.7886 59.6364 59.5404 59.9698 59.4017C60.3032 59.263 60.6734 59.242 61.0201 59.342C63.5806 59.9488 65.9261 61.2525 67.8002 63.1104C68.0772 63.3445 68.2611 63.6711 68.3182 64.0306C68.3752 64.39 68.3017 64.7581 68.111 65.0674C67.9468 65.3469 67.7099 65.5759 67.4258 65.7298C67.1417 65.8836 66.8213 65.9564 66.4991 65.9404Z" fill="#0C0C0C"/>
<path d="M50.597 46.2831C50.8324 46.2915 51.0639 46.3466 51.2782 46.4452C51.4925 46.5437 51.6854 46.6838 51.8458 46.8575C52.0063 47.0311 52.1311 47.2349 52.2133 47.4571C52.2954 47.6794 52.3332 47.9158 52.3245 48.1527C52.3388 48.4218 52.2909 48.6906 52.1848 48.938C52.0786 49.1854 51.917 49.4047 51.7126 49.5787C51.5081 49.7528 51.2665 49.8768 51.0065 49.9412C50.7465 50.0055 50.4752 50.0084 50.2139 49.9497C49.9776 49.9336 49.7475 49.867 49.5389 49.7542C49.3303 49.6415 49.148 49.4851 49.0043 49.2957C48.8606 49.1063 48.7587 48.8881 48.7055 48.6559C48.6524 48.4237 48.6491 48.1827 48.696 47.949C48.7087 47.7128 48.7684 47.4815 48.8715 47.269C48.9747 47.0564 49.1192 46.8668 49.2964 46.7114C49.4737 46.5561 49.6802 46.4381 49.9036 46.3645C50.1269 46.291 50.3628 46.2633 50.597 46.2831Z" fill="#1F1F1F"/>
<path d="M42.9787 49.2008C42.9562 49.4386 42.8869 49.6695 42.7747 49.88C42.6625 50.0905 42.5097 50.2764 42.3253 50.4268C42.1409 50.5771 41.9286 50.689 41.7007 50.7558C41.4728 50.8226 41.234 50.843 40.9982 50.8158C40.7568 50.8237 40.5167 50.7767 40.2958 50.6782C40.075 50.5797 39.8791 50.4323 39.7227 50.2469C39.5664 50.0616 39.4536 49.8431 39.3929 49.6078C39.3321 49.3725 39.3249 49.1265 39.3719 48.888C39.3667 48.645 39.4147 48.4039 39.5123 48.1817C39.6099 47.9594 39.7549 47.7615 39.937 47.6019C40.119 47.4423 40.3336 47.3249 40.5657 47.258C40.7978 47.1911 41.0417 47.1763 41.2801 47.2147C41.7654 47.2556 42.2153 47.4867 42.533 47.8581C42.8507 48.2296 43.0107 48.7117 42.9787 49.2008Z" fill="#1C1C1C"/>
<path d="M69.1589 132.608C68.9232 132.629 68.6857 132.603 68.4602 132.53C68.2347 132.458 68.0258 132.341 67.8455 132.187C67.6652 132.032 67.5173 131.844 67.4102 131.631C67.3031 131.419 67.2391 131.187 67.2218 130.949C67.201 130.698 67.2306 130.444 67.3087 130.204C67.3869 129.964 67.5121 129.742 67.6769 129.551C67.8417 129.361 68.0428 129.205 68.2683 129.094C68.4938 128.983 68.7391 128.918 68.9898 128.904C69.2405 128.89 69.4914 128.927 69.7278 129.012C69.9642 129.097 70.1813 129.229 70.3662 129.4C70.5511 129.571 70.7 129.778 70.8043 130.007C70.9086 130.237 70.966 130.486 70.9732 130.738C70.9752 131.227 70.7861 131.698 70.4466 132.047C70.1072 132.397 69.6447 132.599 69.1589 132.608Z" fill="#282828"/>
<path d="M24.3446 132.608C24.8216 132.58 25.2903 132.744 25.6479 133.063C26.0055 133.382 26.223 133.83 26.2528 134.31C26.2929 134.549 26.2824 134.793 26.2221 135.027C26.1618 135.262 26.053 135.48 25.9029 135.669C25.7527 135.858 25.5646 136.013 25.3509 136.123C25.1371 136.234 24.9026 136.298 24.6626 136.311C24.3994 136.376 24.1246 136.377 23.8608 136.315C23.5969 136.253 23.3514 136.129 23.1443 135.953C22.9372 135.777 22.7742 135.554 22.6688 135.303C22.5633 135.052 22.5183 134.779 22.5375 134.507C22.5297 134.015 22.7151 133.539 23.0534 133.184C23.3917 132.828 23.8557 132.621 24.3446 132.608Z" fill="#232323"/>
<path d="M76.1706 125.617C75.9367 125.643 75.7 125.622 75.4743 125.555C75.2485 125.488 75.0383 125.376 74.856 125.227C74.6736 125.077 74.5227 124.892 74.4121 124.683C74.3015 124.474 74.2334 124.245 74.2117 124.009C74.165 123.745 74.1787 123.473 74.2519 123.215C74.3252 122.956 74.4559 122.718 74.6343 122.518C74.8127 122.318 75.034 122.162 75.2814 122.061C75.5288 121.96 75.7959 121.917 76.0622 121.936C76.2985 121.921 76.5353 121.957 76.7571 122.041C76.9788 122.124 77.1805 122.254 77.349 122.422C77.5175 122.589 77.6489 122.791 77.7349 123.013C77.8208 123.235 77.8591 123.473 77.8475 123.711C77.8652 123.948 77.8355 124.186 77.7602 124.41C77.6849 124.635 77.5656 124.843 77.4092 125.021C77.2529 125.198 77.0627 125.343 76.8499 125.445C76.6372 125.548 76.4062 125.606 76.1706 125.617Z" fill="#1B1B1B"/>
<path d="M69.8314 126.163C69.5896 126.17 69.3489 126.127 69.1248 126.035C68.9007 125.943 68.6984 125.805 68.5307 125.629C68.3631 125.454 68.234 125.245 68.1517 125.016C68.0695 124.787 68.0359 124.543 68.0533 124.3C68.0515 124.047 68.1014 123.797 68.1998 123.564C68.2982 123.331 68.443 123.121 68.6253 122.947C68.8076 122.773 69.0235 122.638 69.2596 122.551C69.4957 122.465 69.747 122.428 69.9978 122.443C70.2487 122.458 70.4939 122.524 70.7181 122.639C70.9424 122.753 71.1409 122.912 71.3015 123.107C71.4621 123.301 71.5813 123.527 71.6517 123.77C71.7221 124.013 71.7422 124.267 71.7107 124.518C71.698 124.752 71.6389 124.98 71.5368 125.19C71.4348 125.4 71.2919 125.587 71.1166 125.741C70.9414 125.894 70.7373 126.01 70.5165 126.083C70.2958 126.155 70.0628 126.182 69.8314 126.163Z" fill="#1B1B1B"/>
<path d="M25.6383 126.381C26.7153 126.526 27.4598 127.05 27.4598 128.221C27.4814 128.466 27.4499 128.713 27.3675 128.944C27.2851 129.175 27.1538 129.385 26.9826 129.56C26.8114 129.735 26.6045 129.871 26.3761 129.958C26.1477 130.044 25.9034 130.08 25.66 130.062C25.4197 130.076 25.1794 130.038 24.9545 129.952C24.7296 129.866 24.5253 129.733 24.3548 129.562C24.1843 129.391 24.0515 129.186 23.965 128.96C23.8786 128.734 23.8404 128.492 23.8529 128.251C23.8023 127.087 24.5758 126.585 25.6383 126.381Z" fill="#1A1A1A"/>
<path d="M21.3878 128.898C21.3438 129.381 21.1114 129.827 20.7416 130.138C20.3717 130.448 19.8946 130.599 19.4145 130.557C19.1722 130.573 18.9295 130.533 18.7047 130.441C18.48 130.348 18.2791 130.205 18.1174 130.023C17.9558 129.84 17.8375 129.623 17.7717 129.388C17.7059 129.153 17.6942 128.906 17.7376 128.665C17.7303 128.421 17.7758 128.178 17.871 127.953C17.9662 127.728 18.1087 127.527 18.2888 127.363C18.4689 127.199 18.6822 127.076 18.914 127.003C19.1459 126.931 19.3906 126.909 19.6314 126.941C19.8745 126.953 20.1128 127.013 20.3328 127.118C20.5527 127.223 20.7499 127.371 20.913 127.553C21.0762 127.734 21.2021 127.947 21.2836 128.178C21.3651 128.409 21.4005 128.653 21.3878 128.898Z" fill="#1B1B1B"/>
<path d="M76.886 130.338C76.8313 130.822 76.5903 131.266 76.2146 131.573C75.839 131.88 75.3586 132.027 74.8765 131.982C74.6333 131.994 74.3907 131.949 74.1671 131.852C73.9435 131.755 73.7448 131.608 73.586 131.422C73.4272 131.237 73.3125 131.017 73.2506 130.78C73.1886 130.543 73.1811 130.295 73.2285 130.055C73.2259 129.81 73.2761 129.567 73.3756 129.343C73.4752 129.12 73.6218 128.92 73.8052 128.759C73.9886 128.598 74.2046 128.479 74.4382 128.41C74.6718 128.341 74.9176 128.324 75.1584 128.359C75.4016 128.373 75.6396 128.436 75.8586 128.543C76.0776 128.65 76.2732 128.8 76.434 128.985C76.5948 129.169 76.7175 129.383 76.7951 129.616C76.8727 129.848 76.9036 130.094 76.886 130.338Z" fill="#1A1A1A"/>
<path d="M20.051 134.791C19.9931 136.085 19.4221 136.806 18.3234 136.9C18.085 136.945 17.8396 136.935 17.6053 136.872C17.3711 136.809 17.154 136.693 16.9701 136.534C16.7862 136.374 16.6402 136.176 16.5429 135.952C16.4456 135.728 16.3995 135.486 16.408 135.242C16.374 135.001 16.3915 134.756 16.4592 134.522C16.527 134.289 16.6434 134.073 16.8007 133.888C16.9581 133.703 17.1527 133.555 17.3717 133.452C17.5906 133.349 17.8289 133.295 18.0704 133.292C19.2414 133.175 19.7618 133.954 20.051 134.791Z" fill="#111111"/>
</svg>
