<svg width="362" height="362" viewBox="0 0 362 362" fill="none" xmlns="http://www.w3.org/2000/svg">
<path d="M362 0H0V362H362V0Z" fill="black"/>
<path d="M234 200.24H223V220.56C223 224.36 224.97 226.26 228.91 226.26C230.707 226.236 232.47 225.765 234.04 224.89V230.72C232.059 231.76 229.846 232.28 227.61 232.23C224.07 232.23 221.403 231.307 219.61 229.46C217.816 227.613 216.903 224.977 216.87 221.55V200.24H210.26V194.65H216.87V184.77H223.05V194.65H234.05L234 200.24Z" fill="white"/>
<path d="M204.48 194.06H205.71V200.45H204.48C200.613 200.45 197.56 201.583 195.32 203.85C193.08 206.117 191.973 209.167 192 213V231.36H185.81V194.65H192V201C193.255 198.82 195.08 197.023 197.278 195.8C199.477 194.578 201.966 193.976 204.48 194.06Z" fill="white"/>
<path d="M171.71 231.36L166.89 219.36H142.57L137.75 231.36H130.68L150.9 181.68H158.77L179 231.36H171.71ZM145 213.22H164.44L154.7 188.82L145 213.22Z" fill="white"/>
<path d="M245.24 75.45C238.37 71.98 231.31 70.39 224.11 69.16C215.72 67.73 207.41 65.88 199.03 64.39C195.03 63.67 190.91 62.84 186.89 63.01C180.89 63.25 174.89 61.17 168.89 62.73C162.89 64.29 157.07 65.93 152 69.6C148.49 72.14 147.46 74.97 148.69 79.08C149.16 80.63 149.55 82.21 149.88 83.79C150.055 84.6981 149.958 85.6374 149.602 86.491C149.247 87.3446 148.648 88.0746 147.88 88.59C145.72 90.31 143.6 89.7 142.39 87.22C140.83 84.04 141.47 81.07 143.12 78.22C143.22 78.04 143.37 77.76 143.51 77.75C147.13 77.42 147.11 74.12 148.63 71.31C146.022 73.0251 143.523 74.9021 141.15 76.93C138.9 78.78 139.38 81.69 138.21 83.93C137.93 84.47 137.96 85.18 137.73 85.76C137.12 87.29 136.39 88.86 134.51 89.03C133.554 89.1327 132.589 88.9501 131.737 88.5052C130.884 88.0603 130.182 87.373 129.72 86.53C127.27 82.53 129.21 77.32 133.72 76.97C139.83 76.51 143.85 72.69 148.46 69.56C152.27 67.0386 156.391 65.0218 160.72 63.56C161.465 63.4149 162.157 63.0692 162.72 62.56C158.395 62.3674 154.063 62.7032 149.82 63.56C144.2 64.5 138.53 65.3 133.13 67.18C129.3 68.52 125.32 69.55 122.05 72.18C119.514 74.1023 117.632 76.7596 116.66 79.79C116.461 80.6821 116.622 81.6168 117.11 82.39C118.315 84.8725 118.753 87.6574 118.37 90.39C117.94 92.81 116.24 94.14 114.02 94.82C113.122 95.121 112.151 95.1282 111.249 94.8405C110.346 94.5528 109.558 93.9852 109 93.22C107.94 92 107.42 88.75 108.27 87.43C109.49 85.55 110.66 83.56 112.61 82.32C114.11 81.37 114.78 79.7 115.71 78.43C117.17 76.43 118.34 74.16 119.89 72.09C115.12 73.77 110.36 75.4 106.27 78.36C104.13 79.89 103.27 82.46 102.05 84.73C100.926 86.7767 99.3365 88.5305 97.41 89.85C95.91 90.94 94.33 91.64 92.52 90.58C91.5665 90.1066 90.7736 89.3629 90.2401 88.4417C89.7066 87.5205 89.4561 86.4626 89.52 85.4C89.68 81.96 92.2 79.2 96.03 78.4C97.8308 78.0234 99.676 77.9056 101.51 78.05C102.56 78.2243 103.638 78.0743 104.6 77.62C106.13 76.76 107.6 75.85 109.19 75.04C110.78 74.23 112.19 73.61 113.64 72.72C112.794 72.5094 111.914 72.4744 111.054 72.6172C110.194 72.7599 109.373 73.0774 108.64 73.55C105.78 75.47 102.35 76 98.97 76.23C96.97 76.37 94.97 74.08 94.74 71.66C94.51 69.24 95.26 68.29 97.8 67.66C98.7803 67.3663 99.813 67.2911 100.825 67.4397C101.838 67.5883 102.806 67.957 103.66 68.52C105.139 69.6084 106.837 70.3625 108.636 70.7303C110.435 71.098 112.293 71.0706 114.08 70.65C117.77 69.76 121.65 69.77 125.19 68.2C125.997 68.0181 126.731 67.6004 127.3 67C125.13 66.21 123.05 65.3 120.88 64.7C118.194 63.9238 115.622 62.7975 113.23 61.35C112.23 60.79 112.23 61.26 112 61.97C111.855 62.5615 111.516 63.0875 111.038 63.4644C110.56 63.8413 109.969 64.0474 109.36 64.05C108.05 64.12 107.43 63.05 106.85 62.05C106.09 60.75 105.36 59.43 104.51 58.19C103.66 56.95 103.44 55.56 104.51 54.33C104.724 54.018 104.998 53.7519 105.316 53.5473C105.634 53.3427 105.99 53.2037 106.363 53.1385C106.735 53.0733 107.117 53.0832 107.486 53.1676C107.855 53.252 108.203 53.4092 108.51 53.63C109.513 54.2709 110.596 54.7785 111.73 55.14C114.02 55.89 114.73 57.06 114.56 59.53C114.46 60.86 115.49 61.21 116.34 61.53C119.96 62.88 123.58 64.19 127.25 65.37C129.54 66.1 131.88 65.63 134.15 65.09C146.63 62.15 159.22 60.24 172.09 60.94C172.515 60.9566 172.94 60.9331 173.36 60.87C173.701 60.7735 174.036 60.6532 174.36 60.51C170.429 58.5048 166.282 56.9548 162 55.89C160 55.46 158 54.48 155.86 54.47C152.52 54.47 149.44 55.01 146.92 57.47C145.55 58.7946 143.852 59.73 142 60.18C141.08 60.4957 140.073 60.4455 139.189 60.0397C138.305 59.6339 137.611 58.9036 137.25 58C136.901 57.0672 136.913 56.0377 137.283 55.113C137.652 54.1883 138.354 53.4348 139.25 53C140.168 52.4529 141.208 52.1419 142.276 52.0948C143.344 52.0477 144.407 52.2659 145.37 52.73C148.5 54.3 151.5 53.21 154.59 52.73C152.346 51.6471 149.979 50.8412 147.54 50.33C146.79 50.15 146.01 50.05 145.29 49.8C144.261 49.3716 143.133 49.2383 142.033 49.4149C140.933 49.5915 139.903 50.0712 139.06 50.8C135.29 53.71 127.81 53.23 124.15 50.24C123.26 49.5916 122.61 48.6679 122.299 47.6119C121.988 46.556 122.034 45.427 122.43 44.4C123.34 42.19 124.95 41.4 127.63 41.53C131.18 41.72 134.12 43.36 136.89 45.31C139.064 46.8697 141.557 47.9253 144.19 48.4C146.61 48.84 148.95 49.64 151.34 50.24C152.05 50.41 152.75 50.9 153.6 50.53C152.09 48.08 149.76 46.84 147.25 45.92C144.77 44.8848 142.548 43.3179 140.74 41.33C140.038 40.6221 139.549 39.7308 139.33 38.7582C139.11 37.7855 139.169 36.7707 139.5 35.83C139.687 35.1825 140.028 34.5898 140.494 34.1026C140.96 33.6155 141.537 33.2482 142.175 33.0321C142.814 32.8159 143.495 32.7575 144.161 32.8616C144.827 32.9657 145.458 33.2293 146 33.63C147.16 34.3803 148.126 35.3934 148.821 36.587C149.516 37.7806 149.92 39.1211 150 40.5C150.41 46.41 154 49.93 158.94 52.33C161.55 53.59 164.31 54.52 167.07 55.63C167.111 55.3444 167.076 55.0529 166.967 54.7856C166.858 54.5184 166.679 54.2851 166.45 54.11C163.498 50.8757 161.13 47.1539 159.45 43.11C159.01 42.03 158.45 41.79 157.38 42.11C156.669 42.4295 155.864 42.4712 155.124 42.2269C154.383 41.9826 153.761 41.47 153.38 40.79C152.45 39.24 153.18 37.89 154.29 36.79C154.939 36.0573 155.402 35.1793 155.64 34.23C156.35 32.3 157.37 31.91 158.98 33.15C160.26 34.15 161.92 35.02 161.36 37.15C161.18 37.83 161.9 38.06 162.27 38.46C164.11 40.46 164.09 41.24 162.09 42.97C161.803 43.1773 161.606 43.4862 161.539 43.8337C161.473 44.1811 161.541 44.541 161.73 44.84C164.482 50.6836 169.016 55.5045 174.68 58.61C178.83 60.93 183.38 61.27 187.94 61.54C196.69 62.06 205.19 64.03 213.75 65.69C218.75 66.69 223.81 67.58 228.91 68.31C227.64 66.8 225.79 66.31 224.25 65.41C216.53 60.63 208.72 56.03 199.73 53.97C197.467 53.4171 195.088 53.592 192.93 54.47C190.82 55.33 188.66 56 186.35 55.35C185.774 55.2452 185.228 55.018 184.747 54.6838C184.267 54.3496 183.864 53.9162 183.565 53.4128C183.266 52.9095 183.079 52.3479 183.016 51.766C182.953 51.1842 183.016 50.5956 183.2 50.04C183.86 47.6 185.68 46.81 188.5 47.38C190.626 47.8064 192.622 48.7242 194.33 50.06C196.68 51.87 199.49 52.55 202.28 53.3L206.65 54.46C206.8 53.53 205.94 53.21 205.4 52.75C201.67 49.52 197.74 46.51 194.2 43.06C193.254 42.3115 192.076 41.9186 190.87 41.95C187.939 41.6033 185.07 40.8459 182.35 39.7C179.984 38.6134 177.973 36.8801 176.55 34.7C176.019 33.9107 175.659 33.0184 175.495 32.0812C175.33 31.144 175.365 30.1827 175.596 29.2596C175.827 28.3365 176.249 27.4723 176.836 26.723C177.422 25.9737 178.159 25.356 179 24.91C181.3 23.72 185.05 24.98 186.71 27.63C187.843 29.3287 188.82 31.1259 189.63 33C190.84 36.08 193.14 38.55 194.3 41.65C194.628 42.2757 195.097 42.8166 195.67 43.23C199.584 46.7957 203.679 50.1569 207.94 53.3C208.43 53.65 208.86 54.1 209.39 54.56C208.762 51.4217 206.977 48.6341 204.39 46.75C201.493 44.6955 199.305 41.7917 198.13 38.44C197.793 37.3966 197.759 36.2791 198.032 35.2172C198.305 34.1552 198.872 33.1923 199.67 32.44C201.11 30.87 203.01 30.76 204.96 31.25C206.91 31.74 208.77 35.25 208.6 38.02C208.46 40.4 207.53 42.69 207.73 45.13C208.2 50.81 210.73 55.43 215.63 58.24C220.53 61.05 225.06 64.1 230.03 66.64C238.8 71.13 248.08 74.1 257.52 76.64C260.982 77.566 264.382 78.7083 267.7 80.06C269.484 80.7028 271.303 81.2404 273.15 81.67C273.58 81.79 274.23 81.85 274.15 82.51C274.15 82.79 273.77 83.07 273.52 83.29C273.08 83.66 272.71 83.69 272.31 83.11C272.132 82.8389 271.872 82.6323 271.568 82.5206C271.263 82.409 270.931 82.3982 270.62 82.49C268 83.55 265.62 82.21 263.36 81.49C258.36 79.89 253.36 78.05 248.1 77.42C242.35 76.72 236.57 76.09 230.91 78.74C227.47 80.35 223.91 81.63 220.91 83.97C220.309 84.4548 219.753 84.9937 219.25 85.58C218.81 86.07 218.47 86.5 219.5 86.9C219.994 87.1035 220.408 87.4627 220.678 87.923C220.949 88.3833 221.062 88.9195 221 89.45C220.943 89.9541 220.713 90.4227 220.347 90.775C219.982 91.1273 219.506 91.3413 219 91.38C217.66 91.64 217.28 92.7 216.73 93.67C216.29 94.5568 215.522 95.2375 214.589 95.5679C213.655 95.8983 212.63 95.8524 211.73 95.44C210.56 94.84 209.86 92.27 210.66 90.72C211.14 89.78 210.85 89.44 210.18 88.85C208.88 87.69 209.11 86.31 210.66 85.45C211.346 85.0002 212.151 84.7665 212.971 84.779C213.791 84.7915 214.588 85.0496 215.26 85.52C215.9 85.96 216.39 86.27 217 85.52C220.25 81.35 225 79.52 229.73 77.52C229.36 76.95 228.87 77.14 228.46 77.15C223.328 77.3017 218.22 77.921 213.2 79C207 80.37 202.34 84.39 198.25 89.09C197.72 89.7 197.95 90.24 198.1 90.86C198.602 92.6987 198.868 94.594 198.89 96.5C198.957 97.4922 198.726 98.4818 198.227 99.3422C197.728 100.203 196.984 100.895 196.09 101.33C194.09 102.33 190.42 101.65 189.35 100.24C188.697 99.3958 188.299 98.3828 188.201 97.3201C188.104 96.2573 188.312 95.1888 188.8 94.24C189.291 93.0997 190.016 92.0757 190.93 91.2349C191.843 90.394 192.923 89.7551 194.1 89.36C195.558 88.8632 196.872 88.0189 197.93 86.9C199.63 85.22 201.4 83.61 203.13 81.9C203.2 81.83 203.13 81.65 203.19 81.51C198.417 82.7017 193.724 84.1947 189.14 85.98C188.026 86.5026 187.076 87.3184 186.39 88.34C183.72 91.47 181.73 95.03 179.39 98.34C177.51 100.97 172.28 100.46 170.77 97.61C168.31 92.97 169.43 89.5 174.55 87.4C175.119 87.1101 175.742 86.9431 176.38 86.91C184.14 87.34 190.78 83.49 197.84 81.3C199.71 80.72 201.71 80.51 203.94 79.3C198.6 78.67 193.83 78.39 189.47 81.3C188.157 82.2105 186.584 82.6714 184.987 82.6137C183.39 82.556 181.854 81.9829 180.61 80.98C178.01 78.78 178.35 75.5 181.38 73.98C185.02 72.18 188.67 72.7 192.05 74.53C194.93 75.9999 198.031 76.9896 201.23 77.46C208.45 78.78 215.23 76.77 222.14 75.98C229.509 75.1902 236.929 74.9895 244.33 75.38C244.632 75.4225 244.936 75.4458 245.24 75.45Z" fill="#FEFEFE"/>
<path d="M189.57 36.68C187.664 35.3503 186.045 33.6497 184.81 31.68C184.5 31.22 184.19 30.74 183.81 30.31C183.43 29.88 182.89 29.5 182.37 29.99C181.85 30.48 182.45 30.9 182.72 31.2C185.26 33.99 187.84 36.74 190.4 39.51C190.63 39.7805 190.844 40.0643 191.04 40.36C186.39 41.36 178.8 37.51 176.98 33.28C175.98 30.87 177.74 26.71 180.21 25.88C180.578 25.7524 180.97 25.7051 181.358 25.7413C181.746 25.7775 182.122 25.8964 182.46 26.09C183.29 26.4763 184.061 26.9779 184.75 27.58C187.22 30.17 188.38 33.43 189.57 36.68Z" fill="#020202"/>
<path d="M180.41 88.3101C178.95 89.5001 177.87 90.3701 176.81 91.3101C176.38 91.6801 175.87 92.1701 176.27 92.7301C176.87 93.5801 177.15 92.6101 177.53 92.3601C178.88 91.4901 180.2 90.5701 181.53 89.7401C181.91 89.5001 182.53 89.2001 182.85 89.7401C183.17 90.2801 182.78 90.5301 182.54 90.8901C181.27 92.8101 179.98 94.7101 178.76 96.6601C178.294 97.462 177.583 98.0943 176.733 98.4647C175.882 98.8352 174.935 98.9247 174.03 98.7201C173.154 98.5385 172.36 98.0814 171.762 97.4156C171.165 96.7499 170.796 95.9104 170.71 95.0201C170.488 94.1272 170.535 93.1886 170.845 92.3222C171.154 91.4558 171.713 90.7001 172.45 90.1501C174.71 88.4101 177.16 88.0001 180.41 88.3101Z" fill="#040404"/>
<path d="M135.5 46.5801C133.94 46.2501 132.38 45.9601 130.83 45.5801C130.536 45.4669 130.216 45.4387 129.906 45.4989C129.597 45.559 129.31 45.705 129.08 45.9201C128.993 46.0243 128.931 46.1468 128.898 46.2784C128.865 46.41 128.862 46.5473 128.89 46.6801C129.21 47.3801 129.89 47.3301 130.52 47.3101C132.984 47.2793 135.436 47.6509 137.78 48.4101C138.3 48.5701 139.03 48.7401 139.09 49.3201C139.15 49.9001 138.5 50.2301 137.96 50.4101C134.237 51.8281 130.117 51.7924 126.42 50.3101C125.767 50.0372 125.191 49.6081 124.743 49.0606C124.295 48.5131 123.988 47.864 123.85 47.1701C123.14 44.3901 125.27 42.3001 128.4 43.0201C131.056 43.5089 133.519 44.7437 135.5 46.5801Z" fill="#050505"/>
<path d="M102 81.2001C101.145 83.8528 99.5865 86.2237 97.4901 88.0601C95.4901 89.8301 93.6201 89.9601 91.9901 88.5901C91.1915 87.8253 90.6929 86.7998 90.5847 85.6993C90.4765 84.5988 90.7658 83.4959 91.4001 82.5901C93.0101 80.0401 98.2401 78.5101 101.25 79.7801C99.8201 81.0001 98.3901 82.0501 97.0001 83.2001C96.3701 83.7301 94.9301 84.2001 95.6801 85.1301C96.4301 86.0601 97.2101 84.6401 97.8701 84.1301C99.0728 82.9288 100.469 81.9383 102 81.2001Z" fill="#030303"/>
<path d="M206.26 43.5099C205.36 41.5501 204.689 39.4932 204.26 37.3799C204.04 36.4399 203.49 36.1099 202.81 36.3799C201.92 36.7499 202.6 37.3799 202.81 37.8999C203.213 38.7931 203.567 39.7078 203.87 40.6399C204.384 42.1745 204.781 43.7456 205.06 45.3399C203.522 44.4298 202.193 43.2062 201.159 41.7486C200.125 40.291 199.41 38.6321 199.06 36.8799C198.72 35.2499 200.65 32.9299 202.2 32.6199C204.55 32.1499 205.84 32.9299 206.71 35.2599C207.75 37.9999 207.23 40.5099 206.26 43.5099Z" fill="#050505"/>
<path d="M114 83.6001C113.64 84.7201 113.21 85.8201 113 86.9601C112.85 87.6301 112.3 88.7601 113.31 88.9601C114.32 89.1601 114.23 87.9601 114.31 87.2501C114.305 85.9415 114.742 84.6694 115.55 83.6401C116.206 84.5793 116.657 85.6461 116.875 86.7711C117.092 87.8961 117.07 89.0542 116.81 90.1701C116.715 90.942 116.385 91.666 115.864 92.2438C115.344 92.8217 114.658 93.2253 113.9 93.4001C113.214 93.6387 112.471 93.6591 111.772 93.4586C111.074 93.2581 110.455 92.8464 110 92.2801C109.444 91.6349 109.092 90.8389 108.988 89.9932C108.885 89.1475 109.035 88.2902 109.42 87.5301C109.871 86.5942 110.51 85.7619 111.299 85.0855C112.087 84.4091 113.007 83.9033 114 83.6001Z" fill="#070707"/>
<path d="M133.45 83.5098C135.05 82.5098 135.79 80.7998 137.83 79.8798C137.1 82.6798 136.63 85.2298 134.73 87.1598C133.91 87.9998 131.73 87.3498 130.84 86.1598C130.278 85.2659 129.967 84.2373 129.939 83.1817C129.91 82.1261 130.167 81.0824 130.68 80.1598C131.55 78.8098 134.68 77.4898 136.2 77.8198C137.2 78.0298 136.86 78.5298 136.44 78.9698C135.81 79.6398 135.09 80.2198 134.49 80.8998C133.89 81.5798 133.1 82.1498 133.45 83.5098Z" fill="#080808"/>
<path d="M192.48 76.9998L186.78 77.5598C186.14 77.6198 185.25 77.6798 185.26 78.3798C185.26 79.3798 186.26 78.8598 186.77 78.9098C187.67 78.9998 188.59 78.9098 189.58 78.9098C187.32 81.0498 184.58 81.6398 182.15 80.4798C181.59 80.2559 181.104 79.8778 180.75 79.3893C180.396 78.9008 180.188 78.3219 180.15 77.7198C180.124 77.181 180.277 76.6487 180.587 76.207C180.897 75.7652 181.344 75.439 181.86 75.2798C183.541 74.6415 185.347 74.3996 187.137 74.5731C188.927 74.7465 190.652 75.3305 192.18 76.2798C192.3 76.4298 192.33 76.6998 192.48 76.9998Z" fill="#060606"/>
<path d="M194.43 91.3198C193.2 92.5198 193.15 94.3698 192.04 95.5998C191.975 95.661 191.925 95.7366 191.895 95.8204C191.865 95.9043 191.855 95.9941 191.865 96.0826C191.876 96.1711 191.907 96.2558 191.957 96.33C192.006 96.4042 192.072 96.4658 192.15 96.5098C192.276 96.5754 192.414 96.6135 192.556 96.6214C192.697 96.6294 192.839 96.6071 192.972 96.556C193.104 96.5049 193.224 96.4262 193.324 96.3251C193.424 96.2241 193.501 96.103 193.55 95.9698C194.082 94.9026 194.729 93.8966 195.48 92.9698C195.7 92.6698 195.7 92.0598 196.28 92.2298C196.63 92.3198 196.77 92.6798 196.84 93.0498C197.167 94.3564 197.285 95.7064 197.19 97.0498C196.99 98.4098 196.44 99.7498 195 100.12C194.191 100.398 193.319 100.441 192.487 100.242C191.655 100.044 190.896 99.6131 190.3 98.9998C189.838 98.4617 189.556 97.7925 189.493 97.086C189.43 96.3795 189.59 95.671 189.95 95.0598C190.304 94.0988 190.904 93.2476 191.69 92.5913C192.476 91.935 193.421 91.4965 194.43 91.3198Z" fill="#040404"/>
<path d="M148.76 42.44C147.631 41.7698 146.745 40.7576 146.23 39.55C146.03 39.14 146 38.55 145.23 38.69C144.992 38.7581 144.772 38.8751 144.583 39.0336C144.393 39.192 144.239 39.3884 144.13 39.61C143.71 40.25 144.28 40.49 144.65 40.75C146.073 41.7242 147.198 43.0743 147.9 44.65C145.01 43.43 142.57 42.22 141.21 39.56C140.21 37.69 140.58 35.96 142.13 34.86C143.68 33.76 144.86 34.78 146.05 35.71C148.24 37.4 148.39 39.85 148.76 42.44Z" fill="#050505"/>
<path d="M105 71.2399L100.31 71.4899C101.98 73.0699 104.03 72.6099 105.97 72.9099C103.05 75.4299 98.4099 75.5199 96.7799 73.1599C95.4799 71.2699 96.2199 69.5999 98.4799 69.1599C100.74 68.7199 102.74 69.5699 105 71.2399Z" fill="#0A0A0A"/>
<path d="M145.91 78.73C146.365 79.835 146.365 81.075 145.91 82.18C145.56 83.29 145.61 84 147.01 83.28C148.41 82.56 148.61 83.54 148.41 84.47C148.205 85.3567 147.794 86.1825 147.21 86.88C145.92 88.4 144.52 88.18 143.5 86.43C141.61 83.23 142.7 79.77 145.91 78.73Z" fill="#050505"/>
<path d="M193.23 51.17C191.23 52.17 189.89 50.35 187.96 50.72C189.12 52.23 190.7 52.4 192.27 52.72C189.9 54.49 187.55 54.72 185.63 53.45C185.059 53.1542 184.612 52.6644 184.37 52.0686C184.128 51.4728 184.107 50.8102 184.31 50.2C184.73 48.75 185.89 48.47 187.16 48.65C189.333 49.0694 191.399 49.9268 193.23 51.17Z" fill="#090909"/>
<path d="M145.17 54.2201C144.37 54.6201 143.33 54.4901 143.1 55.7501L145.89 56.1101C144.562 57.2666 143.024 58.1562 141.36 58.7301C139.65 59.4101 138.75 58.1801 138.17 57.0801C138.053 56.8176 137.994 56.5329 137.997 56.2455C138 55.9581 138.065 55.6748 138.188 55.4147C138.31 55.1547 138.487 54.9241 138.707 54.7387C138.926 54.5532 139.183 54.4173 139.46 54.3401C141.27 53.5801 143.18 53.1101 145.17 54.2201Z" fill="#060606"/>
<path d="M212.12 86.21C213.12 86.48 214.55 86.27 214.78 87.54C214.96 88.54 213.78 88.83 213.01 88.81C212.01 88.81 211.01 88.43 210.76 87.32C210.58 86.37 211.52 86.36 212.12 86.21Z" fill="#181818"/>
<path d="M138.46 40.6598C138.46 41.2798 138.21 41.9698 137.8 41.8698C136.758 41.6543 135.775 41.2141 134.92 40.5798C134.65 40.3598 135.01 38.8298 135.92 38.8598C136.459 38.926 136.974 39.1251 137.417 39.4393C137.861 39.7535 138.219 40.1729 138.46 40.6598Z" fill="#ECECEC"/>
<path d="M135.94 44.3901C135.81 45.3101 135.12 45.4901 134.43 45.5601C133.28 45.6601 133.08 44.7901 132.99 43.9401C132.93 43.4001 132.93 42.7001 133.76 42.7901C134.241 42.8108 134.705 42.974 135.093 43.2589C135.481 43.5437 135.776 43.9374 135.94 44.3901Z" fill="#ECECEC"/>
<path d="M216.52 89.5102C216.52 88.7602 216.71 87.9902 217.52 87.8802C217.942 87.8153 218.373 87.9107 218.728 88.1476C219.084 88.3844 219.338 88.7457 219.44 89.1602C219.75 90.1602 219 90.1602 218.36 90.2202C217.72 90.2802 216.78 90.6502 216.52 89.5102Z" fill="#191919"/>
<path d="M106.18 55.2398C106.76 55.2398 107.67 55.1198 107.6 55.7198C107.5 56.4998 107.23 57.6098 106.27 57.7898C105.919 57.8019 105.575 57.6858 105.303 57.4632C105.03 57.2406 104.848 56.9266 104.79 56.5798C104.6 55.5498 105.49 55.4098 106.18 55.2398Z" fill="#141414"/>
<path d="M110.39 60.9999C110.31 61.7099 110.24 62.3499 109.39 62.3799C108.33 62.3799 107.97 61.7299 107.79 60.8499C107.66 60.1899 107.88 59.6999 108.58 59.6899C108.986 59.6688 109.387 59.7872 109.716 60.0255C110.045 60.2639 110.283 60.6077 110.39 60.9999Z" fill="#121212"/>
<path d="M138.29 44.7598C138.29 44.2898 138.09 43.7598 138.76 43.7598C139.224 43.7858 139.669 43.9516 140.037 44.2354C140.404 44.5192 140.678 44.9077 140.82 45.3498C141.07 46.0498 140.35 46.2798 139.82 46.3498C138.55 46.4998 138.6 45.4198 138.29 44.7598Z" fill="#E7E7E7"/>
<path d="M113.26 58.2899C113.26 58.7999 112.96 58.9999 112.59 58.9399C112.096 58.9296 111.619 58.7564 111.234 58.4471C110.849 58.1379 110.577 57.7099 110.46 57.2299C110.441 57.1419 110.443 57.0505 110.468 56.9637C110.492 56.8769 110.537 56.7974 110.599 56.7323C110.662 56.6671 110.739 56.6182 110.824 56.5899C110.91 56.5615 111.001 56.5547 111.09 56.5699C111.571 56.64 112.025 56.836 112.406 57.1381C112.787 57.4401 113.082 57.8375 113.26 58.2899Z" fill="#1F1F1F"/>
<path d="M215.06 91.8902C214.796 92.267 214.43 92.5611 214.005 92.7381C213.58 92.9152 213.114 92.9679 212.66 92.8902C212.605 92.8149 212.566 92.7286 212.547 92.6372C212.528 92.5457 212.529 92.4512 212.55 92.3602C212.672 92.1511 212.838 91.9708 213.036 91.8315C213.234 91.6921 213.46 91.5969 213.698 91.5523C213.936 91.5077 214.181 91.5148 214.416 91.5731C214.651 91.6314 214.87 91.7395 215.06 91.8902Z" fill="#1C1C1C"/>
</svg>
