<svg width="90" height="136" viewBox="0 0 90 136" fill="none" xmlns="http://www.w3.org/2000/svg">
<g clip-path="url(#clip0)">
<path d="M35.4777 85.1381C30.0528 87.353 28.1647 86.497 26.5365 81.544C26.3108 80.8645 26.4476 79.7503 25.3804 79.7911C24.4226 79.8318 24.4226 80.9257 24.0943 81.6051C23.7659 82.2845 23.6496 82.8756 23.4102 83.5007C22.6029 85.4167 21.2484 86.66 19.0593 86.7551C18.0822 86.8096 17.11 86.582 16.2603 86.0997C15.4105 85.6175 14.7195 84.9012 14.2706 84.0375C12.5672 81.2586 11.9926 78.1265 11.7463 74.9875C10.4602 59.0075 10.6039 43.0343 13.525 27.1766C13.9094 25.074 14.4188 22.9959 15.0505 20.9531C19.0798 8.04404 28.0484 0.889721 41.2788 0.074414C54.9608 -0.761276 65.0444 5.272 70.6403 17.6715C74.1703 25.4984 75.3743 33.8621 76.3252 42.2801C77.4471 52.2473 78.569 62.2212 78.5348 72.2699C78.5348 74.4168 78.5348 76.557 78.3843 78.6972C78.1244 83.1474 76.7151 85.4914 73.9377 85.7428C70.1409 86.1437 68.9027 83.4803 67.8903 80.5384C67.5482 79.5329 67.343 78.0721 65.8995 78.1333C64.4561 78.1944 64.4287 79.662 64.1209 80.6947C63.5394 82.6582 63.1084 84.7712 61.0082 85.6749C58.1487 86.9658 56.0964 85.5322 54.0441 83.3716C54.0441 88.0664 54.0852 92.7544 54.0441 97.4425C54.0441 99.406 55.2755 99.2225 56.5616 99.141C62.4585 98.7945 68.3623 98.5635 74.2592 99.209C77.5468 99.4959 80.7594 100.346 83.7545 101.723C90.8897 105.188 92.1416 113.273 86.3951 118.756C83.9757 121.004 81.0027 122.578 77.7755 123.322C76.1268 123.736 75.3811 124.45 75.0391 126.175C74.355 129.722 71.7691 131.468 68.3144 131.91C64.8597 132.351 61.576 131.543 59.941 128.146C59.038 126.257 57.8887 126.202 56.199 126.359C48.0491 127.12 39.9015 127.835 31.7562 128.506C30.1212 128.635 29.184 129.036 28.6435 130.836C27.5763 134.417 24.7647 136.081 20.8243 136C17.007 135.918 14.2775 134.206 13.3676 130.789C12.8956 129.022 12.0815 128.329 10.3986 128.295C10.0609 128.259 9.72825 128.186 9.40669 128.078C5.47312 127.052 1.53271 125.747 0.356064 121.338C-0.875313 116.738 1.26592 112.974 4.41961 109.788C7.36807 106.798 11.199 105.324 15.1326 104.114C20.8992 102.387 26.8338 101.271 32.8371 100.785C34.8209 100.609 35.5735 100.031 35.5256 97.952C35.3682 93.794 35.4777 89.6223 35.4777 85.1381Z" fill="#010101"/>
<path d="M75.3607 68.5468C75.5546 72.3767 75.4471 76.2157 75.0391 80.029C74.9092 81.0413 74.8271 82.1964 73.5888 82.4342C72.0975 82.7263 71.7213 81.4966 71.3108 80.4367C71.1056 79.9067 70.9482 79.3632 70.7362 78.8468C69.8263 76.6727 68.6839 74.7227 65.8996 74.8178C63.1153 74.913 61.966 76.727 61.2888 79.0574C61.2464 79.2886 61.1846 79.5159 61.104 79.7369C60.5636 80.8851 60.8099 82.8214 59.0518 82.8214C57.6288 82.8214 57.4441 81.1365 56.9037 80.0494C56.6095 79.4447 56.3701 78.806 56.0759 78.2014C55.2345 76.462 54.0236 75.2051 51.8961 75.2663C49.7685 75.3274 48.7013 76.6591 47.7915 78.3576C46.9432 79.9407 47.2032 82.7263 44.713 82.672C42.5239 82.6312 42.6197 80.029 41.7988 78.5139C40.9779 76.9988 39.8628 75.6875 37.9063 75.6943C35.7787 75.6943 34.6705 77.0531 33.9864 78.8944C33.9548 79.001 33.9159 79.1055 33.8701 79.2069C33.1518 80.5318 33.487 82.9233 31.6057 83.0049C29.2524 83.1068 29.8681 80.5386 29.2387 79.1186C28.5546 77.5559 27.5901 76.4009 25.7635 76.3194C24.964 76.2665 24.1669 76.4541 23.4763 76.8577C22.7856 77.2612 22.2334 77.862 21.8915 78.5818C21.7273 78.874 21.6316 79.2069 21.4537 79.4991C20.6054 80.9326 21.0022 83.7522 18.5668 83.4261C16.1314 83.1 15.9741 80.4978 15.6115 78.5547C13.6823 68.1663 14.1407 57.6692 14.5033 47.1925C14.8111 38.5095 15.6046 29.8604 18.2795 21.5103C21.8368 10.3814 29.7381 3.98124 40.6837 3.29503C53.5653 2.47972 62.2533 7.35118 67.4525 18.3442C71.3861 26.6536 72.3985 35.6423 73.4178 44.6039C74.3208 52.5735 75.1076 60.5432 75.3607 68.5468Z" fill="#FEFEFE"/>
<path d="M23.8888 125.91C17.7319 125.91 12.9433 125.985 8.31191 124.45C3.11276 122.71 1.88823 119.524 4.54253 114.761C5.95809 112.284 8.14849 110.332 10.7815 109.203C17.9987 105.881 25.7359 104.699 33.562 103.897C35.1149 103.734 35.4843 104.359 35.5459 105.779C35.6485 108.422 35.5459 110.929 33.4936 112.994C32.6727 113.817 32.0364 114.999 33.3089 115.909C34.5813 116.82 35.3201 115.692 36.0795 114.829C38.0155 112.614 39.2537 110.182 38.7475 107.138C38.2823 104.359 39.1306 102.83 42.3048 103.204C43.4488 103.242 44.594 103.174 45.7253 103C50.8218 102.613 52.5184 105.093 50.425 109.917C50.2472 110.324 49.9256 110.678 49.7409 111.099C49.2005 112.458 46.7309 114.034 49.0568 115.291C51.1091 116.378 51.5675 113.694 52.5799 112.512C54.4749 110.297 53.9481 107.613 53.9481 105.038C53.9481 103.578 53.9481 102.355 56.0004 102.273C63.1561 101.995 70.3186 101.465 77.4127 102.953C79.0662 103.313 80.6729 103.86 82.2014 104.583C87.3595 107.002 88.242 112.526 84.1169 116.453C81.2094 119.218 77.529 120.414 73.6638 121.018C61.4185 122.928 49.0363 123.886 36.7225 124.932C32.0159 125.326 27.2614 125.652 23.8888 125.91Z" fill="#FEFEFE"/>
<path d="M50.8904 81.3539C50.8904 86.6262 50.8425 91.8986 50.8904 97.1709C50.8904 98.883 50.2747 99.4469 48.585 99.6847C38.6998 101.044 38.6998 101.098 38.6382 91.2463C38.6382 87.9036 38.6382 84.554 38.905 81.021C40.2732 83.399 41.4498 85.8789 44.6788 85.94C47.9077 86.0012 49.2007 83.5688 50.8904 81.3539Z" fill="#FCFCFC"/>
<path d="M21.2074 129.09C21.5409 129.042 21.8795 129.042 22.213 129.09C23.3418 129.45 25.3393 128.064 25.5172 129.98C25.6677 131.679 23.8685 132.487 22.2267 132.766C21.4571 132.898 20.6704 132.898 19.9008 132.766C18.2794 132.474 16.4392 131.767 16.576 130.048C16.7402 128.071 18.7446 129.505 19.8666 129.138C20.3198 129.067 20.7815 129.067 21.2348 129.138L21.2074 129.09Z" fill="#EDEDED"/>
<path d="M70.0791 124.796C70.9753 124.762 71.7004 124.518 71.8783 125.19C71.9326 125.729 71.7972 126.269 71.4952 126.719C70.0449 129.172 65.4409 129.695 63.457 127.643C63.0682 127.264 62.826 126.761 62.7729 126.223C62.7729 125.476 63.5665 125.584 64.0659 125.544C66.1866 125.238 68.3073 125.014 70.0791 124.796Z" fill="#EDEDED"/>
<path d="M41.1349 49.1358C43.7414 49.0678 46.3136 48.8504 48.7079 47.6954C49.6999 47.213 50.6986 46.9277 51.3485 48.0827C52.1353 49.5027 51.0065 50.1209 49.9803 50.6237C46.3067 52.3766 42.4142 52.4989 38.4191 52.1116C37.3108 52.0097 36.3121 51.6225 36.4557 50.3316C36.5994 49.0407 37.7008 48.9727 38.7748 48.9727L41.1349 49.1358Z" fill="#0C0C0C"/>
<path d="M49.9873 40.4795C49.8642 41.519 49.3032 42.1984 48.2703 42.1712C48.0168 42.189 47.7627 42.1489 47.5273 42.0539C47.292 41.9589 47.0816 41.8116 46.9125 41.6233C46.7434 41.435 46.62 41.2107 46.5518 40.9677C46.4836 40.7247 46.4723 40.4693 46.519 40.2213C46.5345 39.9982 46.5963 39.7806 46.7004 39.5823C46.8046 39.3841 46.9488 39.2093 47.1242 39.0689C47.2995 38.9286 47.5021 38.8257 47.7194 38.7668C47.9366 38.7079 48.1637 38.6942 48.3866 38.7265C48.6088 38.7334 48.8275 38.7846 49.0294 38.8772C49.2313 38.9697 49.4124 39.1018 49.5618 39.2654C49.7112 39.429 49.8259 39.6208 49.899 39.8294C49.9721 40.038 50.0022 40.2591 49.9873 40.4795Z" fill="#2C2C2C"/>
<path d="M36.018 41.4446C36.0105 41.2198 36.0493 40.9959 36.132 40.7865C36.2148 40.5771 36.3398 40.3867 36.4993 40.227C36.6588 40.0673 36.8495 39.9417 37.0596 39.8578C37.2698 39.7739 37.495 39.7336 37.7214 39.7393C38.175 39.7393 38.61 39.9182 38.9307 40.2368C39.2515 40.5553 39.4317 40.9874 39.4317 41.4379C39.4317 41.8883 39.2515 42.3204 38.9307 42.6389C38.61 42.9575 38.175 43.1364 37.7214 43.1364C37.4962 43.142 37.2722 43.1021 37.0629 43.019C36.8537 42.936 36.6637 42.8116 36.5044 42.6534C36.3451 42.4951 36.2198 42.3064 36.1362 42.0986C36.0526 41.8908 36.0124 41.6683 36.018 41.4446Z" fill="#131313"/>
<path d="M65.3794 116.949C64.914 116.91 64.4832 116.689 64.1817 116.335C63.8802 115.981 63.7328 115.522 63.7718 115.06C63.8108 114.598 64.0331 114.17 64.3897 113.87C64.7464 113.571 65.2082 113.424 65.6736 113.463C65.902 113.471 66.1259 113.528 66.3304 113.63C66.5349 113.731 66.7151 113.875 66.859 114.051C67.0029 114.227 67.1071 114.432 67.1646 114.652C67.222 114.872 67.2315 115.101 67.1923 115.325C67.1809 115.55 67.1249 115.77 67.0276 115.974C66.9303 116.177 66.7935 116.359 66.6251 116.51C66.4567 116.661 66.26 116.777 66.0462 116.853C65.8325 116.928 65.6059 116.961 65.3794 116.949Z" fill="#282828"/>
<path d="M73.7116 108.544C73.7393 108.771 73.719 109.001 73.6522 109.22C73.5854 109.438 73.4734 109.641 73.3234 109.814C73.1734 109.987 72.9888 110.128 72.7812 110.226C72.5735 110.324 72.3476 110.379 72.1176 110.386C71.897 110.425 71.6705 110.418 71.4528 110.365C71.2352 110.311 71.0315 110.213 70.855 110.075C70.6786 109.938 70.5334 109.765 70.4292 109.568C70.3249 109.371 70.2638 109.154 70.25 108.932C70.2034 108.685 70.2144 108.43 70.2823 108.188C70.3501 107.946 70.473 107.722 70.6415 107.534C70.81 107.347 71.0196 107.2 71.2541 107.105C71.4887 107.011 71.742 106.971 71.9945 106.989C72.2106 106.977 72.4269 107.008 72.6308 107.08C72.8346 107.152 73.022 107.264 73.1819 107.409C73.3417 107.553 73.4709 107.728 73.5619 107.923C73.6528 108.119 73.7037 108.33 73.7116 108.544Z" fill="#1C1C1C"/>
<path d="M67.945 109.387C67.8916 109.834 67.6675 110.244 67.3188 110.532C66.97 110.821 66.5233 110.965 66.0705 110.936C65.843 110.949 65.6152 110.914 65.4027 110.832C65.1902 110.75 64.9981 110.623 64.8395 110.461C64.6809 110.298 64.5597 110.103 64.484 109.89C64.4084 109.676 64.3802 109.449 64.4013 109.224C64.3855 108.969 64.4289 108.715 64.5282 108.48C64.6275 108.245 64.7801 108.035 64.974 107.869C65.1679 107.702 65.3979 107.581 65.6462 107.517C65.8946 107.453 66.1545 107.446 66.4057 107.498C66.8605 107.549 67.2767 107.776 67.5647 108.129C67.8526 108.483 67.9892 108.934 67.945 109.387Z" fill="#262626"/>
<path d="M71.1463 116.425C69.8328 116.31 69.2445 115.698 69.2582 114.686C69.2428 114.463 69.2747 114.238 69.352 114.028C69.4292 113.817 69.5501 113.625 69.7067 113.464C69.8633 113.302 70.0523 113.175 70.2614 113.091C70.4704 113.007 70.695 112.967 70.9205 112.974C71.1723 112.945 71.4273 112.975 71.6655 113.061C71.9037 113.147 72.1185 113.287 72.293 113.469C72.4674 113.652 72.5968 113.872 72.6709 114.113C72.7449 114.353 72.7617 114.608 72.7197 114.856C72.6912 115.262 72.5165 115.644 72.2275 115.932C71.9386 116.22 71.5547 116.395 71.1463 116.425Z" fill="#1B1B1B"/>
<path d="M23.0408 120.441C21.9668 120.346 21.2964 119.728 21.3374 118.736C21.3236 118.481 21.3683 118.225 21.4684 117.99C21.5684 117.754 21.7212 117.545 21.9149 117.376C22.1087 117.208 22.3385 117.086 22.5869 117.019C22.8353 116.952 23.0958 116.942 23.3487 116.99C23.5758 117.002 23.7978 117.062 24.0001 117.165C24.2024 117.268 24.3804 117.413 24.5225 117.589C24.6646 117.766 24.7676 117.97 24.8246 118.188C24.8817 118.407 24.8916 118.635 24.8537 118.858C24.8425 119.081 24.7863 119.3 24.6885 119.501C24.5907 119.703 24.4531 119.883 24.2841 120.03C24.1151 120.178 23.918 120.29 23.7044 120.361C23.4909 120.431 23.2652 120.459 23.0408 120.441Z" fill="#242424"/>
<path d="M24.4291 114.611C23.97 114.639 23.5182 114.487 23.1713 114.187C22.8244 113.887 22.6103 113.463 22.5752 113.008C22.5405 112.781 22.5559 112.549 22.6203 112.329C22.6847 112.108 22.7966 111.904 22.9482 111.731C23.0998 111.558 23.2875 111.42 23.4984 111.326C23.7092 111.232 23.9381 111.184 24.1692 111.187C24.3946 111.148 24.6259 111.159 24.8466 111.219C25.0673 111.278 25.2721 111.386 25.4464 111.533C25.6207 111.68 25.7602 111.864 25.8552 112.07C25.9501 112.277 25.9981 112.502 25.9957 112.729C26.0778 113.809 25.4416 114.38 24.4291 114.611Z" fill="#191919"/>
<path d="M18.4709 111.574C19.5518 111.839 20.2496 112.403 20.1948 113.402C20.2041 113.656 20.1535 113.908 20.0471 114.139C19.9408 114.37 19.7816 114.573 19.5823 114.732C19.383 114.891 19.149 115.002 18.8991 115.055C18.6491 115.108 18.39 115.103 18.1425 115.039C17.918 115.028 17.6988 114.967 17.5005 114.861C17.3023 114.756 17.1298 114.609 16.9953 114.43C16.8608 114.251 16.7676 114.045 16.7223 113.826C16.677 113.607 16.6808 113.381 16.7333 113.164C16.7864 112.738 16.9902 112.344 17.3084 112.053C17.6266 111.761 18.0386 111.592 18.4709 111.574Z" fill="#1C1C1C"/>
<path d="M18.9907 119.361C18.9607 119.815 18.7512 120.239 18.4078 120.541C18.0644 120.842 17.6149 120.997 17.1573 120.971C16.9281 120.984 16.699 120.945 16.4866 120.859C16.2741 120.773 16.0837 120.64 15.9291 120.472C15.7746 120.304 15.6597 120.103 15.5929 119.885C15.526 119.667 15.5089 119.437 15.5428 119.211C15.5353 118.984 15.5774 118.757 15.6662 118.547C15.755 118.337 15.8883 118.148 16.0572 117.994C16.2261 117.84 16.4264 117.724 16.6446 117.654C16.8628 117.584 17.0937 117.561 17.3215 117.587C17.5502 117.589 17.7763 117.637 17.9858 117.728C18.1954 117.819 18.384 117.951 18.5402 118.117C18.6965 118.283 18.817 118.479 18.8944 118.693C18.9719 118.907 19.0046 119.134 18.9907 119.361Z" fill="#121212"/>
</g>
<defs>
<clipPath id="clip0">
<rect width="90" height="136" fill="white"/>
</clipPath>
</defs>
</svg>
