<svg width="62" height="169" viewBox="0 0 62 169" fill="none" xmlns="http://www.w3.org/2000/svg">
<path d="M26.3201 82.1579C21.7301 81.9479 22.5101 79.5979 24.3201 76.9779C25.3901 75.4079 26.18 74.3279 23.47 73.5379C4.62004 68.018 -1.32997 56.2079 0.240034 34.6679C0.657498 28.0302 2.71939 21.6005 6.24003 15.9579C7.63003 15.4379 8.24005 16.3179 8.79005 17.3479C9.52005 19.8879 8.72005 22.2579 7.94005 24.6279C4.89053 33.8632 4.91509 43.8378 8.01005 53.0579C11.1401 62.7579 20.1201 68.5379 31.7001 68.6579C42.3601 68.7579 49.89 63.6579 53.42 53.7579C57.7113 42.2592 57.3272 29.5369 52.35 18.3179C49.9821 12.9385 45.8854 8.50395 40.71 5.71794C39.01 4.71794 36.8901 4.13795 37.2301 1.48795C38.3101 0.0979471 39.66 0.677947 40.97 0.987947C45.11 1.04795 48.08 3.38795 50.83 6.08795C54.568 9.69403 57.3721 14.1558 59 19.0879C64 34.5879 63.27 55.6679 50.88 67.2079C47.51 70.3579 43.83 72.8279 39.37 73.8579C37.18 74.3579 36.72 74.9679 37.5 77.1579C39.76 83.5479 38.75 84.4579 31.5 82.9879C29.7335 83.0921 27.9656 82.8088 26.3201 82.1579Z" fill="white"/>
<path d="M26.3201 82.1582C28.1101 81.9782 29.8801 81.9182 31.4801 82.9682C30.3301 83.4182 30.24 84.4082 30.24 85.4282C30.24 94.3582 27.4101 102.428 22.7001 109.858C16.2801 119.948 16.4001 130.578 19.7001 141.528C21.4501 147.428 23.4101 153.268 23.0101 159.528C22.9398 161.865 22.4204 164.167 21.4801 166.308C20.9701 167.378 20.8501 169.468 19.0401 168.758C17.2301 168.048 18.4101 166.378 18.8501 165.288C21.2701 159.378 20.48 153.608 18.61 147.748C13.93 133.048 13.0701 118.748 22.8201 105.368C26.6901 100.038 27.9501 93.5382 28.6 87.0082C28.76 85.0182 28.8201 82.9882 26.3201 82.1582Z" fill="white"/>
<path d="M7.49023 18.0783L6.24023 15.9883C14.2402 3.42826 28.0002 -2.50174 40.9702 0.988261L37.5403 1.98826C36.6203 4.82826 33.9803 4.84826 31.8203 5.07826C27.9202 5.37421 24.1303 6.51057 20.7109 8.40931C17.2914 10.3081 14.3233 12.9242 12.0103 16.0783C10.9603 17.5283 9.76023 19.1883 7.49023 18.0783Z" fill="white"/>
<path d="M37.5601 62.7081C42.8747 56.9816 46.357 49.7977 47.5601 42.0781C48.8601 49.7481 44.6501 59.0481 37.5601 62.7081Z" fill="white"/>
</svg>
