<svg width="135" height="72" viewBox="0 0 135 72" fill="none" xmlns="http://www.w3.org/2000/svg">
<g clip-path="url(#clip0)">
<path d="M17.9731 63.1384C22.0529 63.2045 25.4491 65.2675 28.9187 67.0075C31.0652 68.094 31.7121 67.7416 32.0208 65.2675C36.2696 30.6441 57.9623 7.34151 92.078 0.594494C93.1586 0.381585 94.2833 0.220068 95.3344 0.0879171C100.862 -0.587519 103.42 2.68688 101.215 7.91416C98.0395 15.4558 96.1726 23.4824 95.6946 31.6499C95.0331 43.2571 96.5547 54.4825 101.575 65.1427C102.788 67.749 104.163 68.3363 106.545 66.7725C113.506 62.1913 120.453 62.25 127.465 66.7725C129.145 67.791 131.031 68.423 132.986 68.6226C134.155 68.7768 135.25 69.2026 134.985 70.6636C134.721 72.1246 133.515 72.0659 132.368 71.9851C129.8 71.7357 127.329 70.872 125.165 69.4669C119.74 66.1044 114.476 65.9282 108.992 69.3788C103.266 72.9983 97.4148 72.8001 91.7178 69.254C86.5133 66.0163 81.4265 66.0237 76.2367 69.254C70.3559 72.9249 64.4752 72.8368 58.6312 69.1953C53.5591 66.0384 48.5604 65.9576 43.4809 69.1512C37.5193 72.9028 31.4915 72.8955 25.5373 69.1512C20.4504 65.9503 15.4738 66.1044 10.3796 69.1512C8.11813 70.6312 5.5537 71.5869 2.87431 71.9484C1.66141 72.0512 0.235327 72.2127 9.6865e-05 70.4801C-0.191028 69.0117 1.01453 68.6887 2.13922 68.5492C5.25602 68.1674 7.8656 66.5156 10.6222 65.2381C12.9819 64.1736 15.3415 63.1824 17.9731 63.1384Z" fill="#020202"/>
<path d="M99.2378 68.3363C96.0034 67.8444 93.7025 66.4642 91.3943 65.2454C86.4839 62.6318 81.5073 62.3088 76.7733 65.2454C70.5177 69.1586 64.5781 69.2467 58.3151 65.2822C53.0004 61.927 47.6489 62.9328 42.3636 65.8181C40.2833 66.9487 37.6663 69.2687 35.7477 67.8885C34.1893 66.7652 35.5566 63.5422 35.8506 61.2809C39.7466 31.459 66.0851 6.06404 95.827 3.42103C99.2966 3.11268 98.7673 4.99215 97.8852 7.05517C92.9013 18.8606 91.3943 31.1873 92.4529 43.8811C93.1396 52.3891 95.4422 60.6887 99.2378 68.3363Z" fill="#FEFEFE"/>
<path d="M65.6954 50.7673C65.0853 50.7673 64.4751 50.8113 63.8724 50.7673C62.5418 50.6572 60.8511 50.6792 60.932 48.8438C61.0129 47.0083 62.6374 47.1845 64.012 47.2653C66.5775 47.4268 69.1577 47.3681 71.5394 46.3035C72.5024 45.8851 73.5168 45.797 74.0534 46.9129C74.6783 48.205 73.8697 48.9686 72.8038 49.5045C70.5756 50.5069 68.133 50.9408 65.6954 50.7673Z" fill="#0D0D0D"/>
<path d="M62.63 39.4398C63.74 39.6527 64.453 40.3061 64.3354 41.4368C64.3273 41.684 64.2674 41.9269 64.1596 42.1496C64.0517 42.3724 63.8982 42.57 63.7091 42.7298C63.52 42.8897 63.2994 43.0081 63.0616 43.0775C62.8238 43.1469 62.5741 43.1657 62.3286 43.1327C62.0787 43.1302 61.8323 43.0732 61.6066 42.9659C61.381 42.8586 61.1814 42.7035 61.0219 42.5113C60.8624 42.3191 60.7467 42.0946 60.6829 41.8532C60.6191 41.6118 60.6088 41.3595 60.6526 41.1137C60.6608 40.87 60.7199 40.6307 60.8262 40.4112C60.9325 40.1917 61.0837 39.9968 61.2699 39.8392C61.4562 39.6815 61.6734 39.5645 61.9077 39.4958C62.1419 39.427 62.3879 39.4079 62.63 39.4398Z" fill="#1F1F1F"/>
<path d="M71.1425 42.4784C70.9021 42.4554 70.6686 42.3853 70.4553 42.2721C70.242 42.1589 70.0532 42.0048 69.8996 41.8187C69.7459 41.6326 69.6306 41.418 69.5601 41.1873C69.4895 40.9566 69.4652 40.7142 69.4886 40.4741C69.4788 40.2292 69.5244 39.9852 69.6221 39.7603C69.7199 39.5355 69.8671 39.3355 70.0529 39.1753C70.2387 39.0152 70.4583 38.8989 70.6953 38.8352C70.9323 38.7716 71.1807 38.7621 71.4219 38.8076C71.6668 38.7994 71.9105 38.8452 72.1356 38.9417C72.3608 39.0382 72.562 39.1831 72.7248 39.366C72.8875 39.5489 73.008 39.7654 73.0776 40.0001C73.1471 40.2347 73.1641 40.4818 73.1273 40.7238C73.0914 41.2172 72.8637 41.677 72.4928 42.0049C72.1219 42.3328 71.6373 42.5027 71.1425 42.4784Z" fill="#1D1D1D"/>
</g>
<defs>
<clipPath id="clip0">
<rect width="135" height="72" fill="white"/>
</clipPath>
</defs>
</svg>
