<svg width="308" height="32" viewBox="0 0 308 32" fill="none" xmlns="http://www.w3.org/2000/svg">
<path d="M16.1719 30.1602C15.9492 30.1602 15.5449 29.9023 14.959 29.3867C14.4316 28.9062 14.0391 28.4785 13.7812 28.1035C12.6562 28.7129 11.666 29.1699 10.8105 29.4746C9.95508 29.791 9.24023 29.9492 8.66602 29.9492C5.92383 29.9492 3.92578 29.1758 2.67188 27.6289C1.48828 26.1758 0.896484 23.9492 0.896484 20.9492C0.896484 18.1133 1.86914 15.6875 3.81445 13.6719C5.77148 11.6562 8.10352 10.6484 10.8105 10.6484C11.8301 10.6484 12.9727 10.9121 14.2383 11.4395C15.832 12.0957 16.6289 12.8867 16.6289 13.8125C16.6289 14.1289 16.5117 14.4102 16.2773 14.6562C16.1602 15.1016 16.0664 15.834 15.9961 16.8535C15.9375 17.873 15.9023 19.1797 15.8906 20.7734C15.8789 22.2266 15.9785 23.375 16.1895 24.2188C16.3066 24.7344 16.6758 25.7656 17.2969 27.3125C17.3789 27.5234 17.5137 27.834 17.7012 28.2441L17.8066 28.543C17.8066 29.0117 17.6426 29.3984 17.3145 29.7031C16.9863 30.0078 16.6055 30.1602 16.1719 30.1602ZM12.5156 17.9434C12.5156 17.4395 12.5449 16.8945 12.6035 16.3086C12.6738 15.7109 12.7734 15.0781 12.9023 14.4102C12.4688 14.1875 12.0938 14.0234 11.7773 13.918C11.4727 13.8125 11.2266 13.7598 11.0391 13.7598C9.22266 13.7598 7.65234 14.5039 6.32812 15.9922C5.01562 17.4688 4.35938 19.1738 4.35938 21.1074C4.35938 23.0293 4.69922 24.4707 5.37891 25.4316C6.05859 26.3926 7.07812 26.873 8.4375 26.873C9.5625 26.873 10.5176 26.668 11.3027 26.2578C11.7246 26.0352 12.3164 25.5898 13.0781 24.9219C12.7031 21.8164 12.5156 19.4902 12.5156 17.9434Z" fill="black"/>
<path d="M33.101 16.0098C33.019 17.4746 32.433 18.207 31.3432 18.207C30.3354 18.207 29.8315 17.627 29.8315 16.4668C29.8315 16.2441 29.8139 15.834 29.7787 15.2363L29.726 13.7598C27.8745 13.9824 26.392 14.5039 25.2787 15.3242C24.2358 16.0859 23.3686 17.2344 22.6772 18.7695L22.7123 28.4023C22.7123 29.5859 22.1323 30.1777 20.9721 30.1777C19.9409 30.1777 19.4252 29.5859 19.4252 28.4023V16.0625C19.4252 15.6758 19.437 15.0957 19.4604 14.3223C19.4955 13.5488 19.5131 12.9688 19.5131 12.582C19.5131 11.3984 20.0287 10.8066 21.06 10.8066C22.2084 10.8066 22.7885 11.7793 22.8002 13.7246C25.0502 11.5566 27.5463 10.4727 30.2885 10.4727C31.2377 10.4727 31.9467 10.8301 32.4155 11.5449C32.8842 12.2598 33.1186 13.3379 33.1186 14.7793C33.1186 15.3887 33.1127 15.7988 33.101 16.0098Z" fill="black"/>
<path d="M47.0419 14.0234C46.7958 14.0234 46.5028 14.0117 46.163 13.9883C45.8348 13.9648 45.5477 13.9531 45.3016 13.9531C45.0321 13.9531 44.2352 14.041 42.911 14.2168L43.245 24.6055L43.2626 25.3789L43.2802 26.2754C43.327 28.8418 42.7118 30.125 41.4345 30.125C40.9657 30.125 40.5555 29.9727 40.204 29.668C39.8641 29.3633 39.6942 28.9824 39.6942 28.5254C39.6942 28.0801 39.7118 27.4121 39.747 26.5215C39.7821 25.6309 39.7997 24.9629 39.7997 24.5176L39.4481 14.252C38.5927 14.2168 37.2919 14.1172 35.5458 13.9531C34.5028 13.8125 33.9813 13.2324 33.9813 12.2129C33.9813 11.6973 34.1395 11.2695 34.4559 10.9297C34.7723 10.5898 35.1766 10.4199 35.6688 10.4199L39.3602 10.7188C39.3602 10.1211 39.3309 9.32422 39.2723 8.32812C39.2255 7.32031 39.202 6.59375 39.202 6.14844C39.202 5.65625 39.372 5.25195 39.7118 4.93555C40.0516 4.60742 40.4677 4.44336 40.9598 4.44336C42.0145 4.44336 42.6298 5.30469 42.8055 7.02734C42.8407 7.46094 42.8583 7.98242 42.8583 8.5918L42.8231 9.61133L42.8055 10.7012C44.2587 10.5137 45.0907 10.4199 45.3016 10.4199C46.5204 10.4199 47.3173 10.4785 47.6923 10.5957C48.4071 10.8301 48.7645 11.3809 48.7645 12.248C48.7645 12.7637 48.6005 13.1914 48.2723 13.5312C47.9559 13.8594 47.5458 14.0234 47.0419 14.0234Z" fill="black"/>
<path d="M62.6878 15.4648C62.0433 15.4648 61.5921 15.248 61.3343 14.8145C61.1585 14.5098 61.0062 13.877 60.8773 12.916C59.9984 13.1387 58.6448 13.5488 56.8167 14.1465C54.93 14.8965 53.9808 15.8223 53.9691 16.9238C54.3206 17.0527 54.6663 17.1465 55.0062 17.2051C57.7015 17.6855 59.7054 18.3477 61.0179 19.1914C62.928 20.4219 63.8831 22.2031 63.8831 24.5352C63.8831 26.4453 63.057 27.8867 61.4046 28.8594C60.0335 29.6562 58.2991 30.0547 56.2015 30.0547C54.6663 30.0547 53.2015 29.7969 51.807 29.2812C50.0023 28.625 49.0999 27.7109 49.0999 26.5391C49.0999 26.0703 49.2816 25.6602 49.6448 25.3086C50.0198 24.957 50.4417 24.7812 50.9105 24.7812C51.2738 24.7812 51.7425 25.0625 52.3167 25.625C52.598 25.8945 53.2308 26.1172 54.2152 26.293C55.0003 26.4336 55.6624 26.5039 56.2015 26.5039C57.1859 26.5039 58.053 26.3867 58.803 26.1523C59.8929 25.8125 60.4378 25.2734 60.4378 24.5352C60.4378 22.9414 59.3245 21.8633 57.098 21.3008L55.2698 20.8965C53.7113 20.5566 52.6038 20.1582 51.9476 19.7012C50.9984 19.0449 50.5238 18.0547 50.5238 16.7305C50.5238 14.2812 51.678 12.5352 53.9866 11.4922C54.6898 11.1758 55.8148 10.8008 57.3616 10.3672C58.9085 9.92188 60.0159 9.54688 60.6839 9.24219C61.1644 9.03125 61.6859 8.92578 62.2484 8.92578C62.7523 8.92578 63.1624 9.08984 63.4788 9.41797C63.807 9.74609 63.971 10.1738 63.971 10.7012C63.971 11.041 64.0413 11.5391 64.182 12.1953C64.3343 12.8516 64.4105 13.3496 64.4105 13.6895C64.4105 14.2168 64.2464 14.6445 63.9183 14.9727C63.6019 15.3008 63.1917 15.4648 62.6878 15.4648Z" fill="black"/>
<path d="M89.9719 30.1602C89.7492 30.1602 89.3449 29.9023 88.759 29.3867C88.2316 28.9062 87.8391 28.4785 87.5813 28.1035C86.4563 28.7129 85.466 29.1699 84.6105 29.4746C83.7551 29.791 83.0402 29.9492 82.466 29.9492C79.7238 29.9492 77.7258 29.1758 76.4719 27.6289C75.2883 26.1758 74.6965 23.9492 74.6965 20.9492C74.6965 18.1133 75.6691 15.6875 77.6145 13.6719C79.5715 11.6562 81.9035 10.6484 84.6105 10.6484C85.6301 10.6484 86.7727 10.9121 88.0383 11.4395C89.632 12.0957 90.4289 12.8867 90.4289 13.8125C90.4289 14.1289 90.3117 14.4102 90.0773 14.6562C89.9602 15.1016 89.8664 15.834 89.7961 16.8535C89.7375 17.873 89.7023 19.1797 89.6906 20.7734C89.6789 22.2266 89.7785 23.375 89.9895 24.2188C90.1066 24.7344 90.4758 25.7656 91.0969 27.3125C91.1789 27.5234 91.3137 27.834 91.5012 28.2441L91.6066 28.543C91.6066 29.0117 91.4426 29.3984 91.1145 29.7031C90.7863 30.0078 90.4055 30.1602 89.9719 30.1602ZM86.3156 17.9434C86.3156 17.4395 86.3449 16.8945 86.4035 16.3086C86.4738 15.7109 86.5734 15.0781 86.7023 14.4102C86.2688 14.1875 85.8938 14.0234 85.5773 13.918C85.2727 13.8125 85.0266 13.7598 84.8391 13.7598C83.0227 13.7598 81.4523 14.5039 80.1281 15.9922C78.8156 17.4688 78.1594 19.1738 78.1594 21.1074C78.1594 23.0293 78.4992 24.4707 79.1789 25.4316C79.8586 26.3926 80.8781 26.873 82.2375 26.873C83.3625 26.873 84.3176 26.668 85.1027 26.2578C85.5246 26.0352 86.1164 25.5898 86.8781 24.9219C86.5031 21.8164 86.3156 19.4902 86.3156 17.9434Z" fill="black"/>
<path d="M106.708 30.248C105.7 30.248 105.131 29.6973 105.003 28.5957L104.51 24.7461C104.346 23.375 104.264 22.0918 104.264 20.8965C104.264 20.5684 104.282 20.0117 104.317 19.2266C104.364 18.4414 104.387 17.8848 104.387 17.5566C104.387 15.0254 103.919 13.7598 102.981 13.7598C101.669 13.7598 100.415 14.5391 99.2194 16.0977C98.1413 17.5156 97.2975 19.3086 96.6881 21.4766C96.6647 21.9336 96.612 22.5078 96.5299 23.1992C96.4596 23.7852 96.4245 24.3535 96.4245 24.9043C96.4245 25.2559 96.4596 25.7832 96.5299 26.4863C96.6002 27.1895 96.6354 27.7168 96.6354 28.0684C96.6354 28.5957 96.4713 29.0234 96.1432 29.3516C95.8268 29.6797 95.4166 29.8438 94.9127 29.8438C94.3971 29.8438 93.9811 29.6797 93.6647 29.3516C93.3483 29.0234 93.1901 28.5957 93.1901 28.0684C93.1901 27.7168 93.1491 27.1895 93.067 26.4863C92.9967 25.7832 92.9616 25.2559 92.9616 24.9043C92.9616 23.6973 93.0436 22.0273 93.2077 19.8945C93.3834 17.75 93.4713 16.0742 93.4713 14.8672C93.4713 14.4922 93.4479 13.9355 93.401 13.1973C93.3659 12.459 93.3483 11.9023 93.3483 11.5273C93.3483 11.0234 93.5123 10.6133 93.8405 10.2969C94.1803 9.96875 94.5963 9.80469 95.0885 9.80469C96.1666 9.80469 96.7584 10.5664 96.8639 12.0898L96.9166 14.1465C98.8854 11.5215 100.907 10.209 102.981 10.209C104.856 10.209 106.163 11.0352 106.901 12.6875C107.405 13.7891 107.68 15.418 107.727 17.5742V19.3496L107.71 20.9844C107.71 21.957 107.833 23.2168 108.079 24.7637C108.337 26.2988 108.465 27.5469 108.465 28.5078C108.465 29.0234 108.296 29.4395 107.956 29.7559C107.628 30.084 107.212 30.248 106.708 30.248Z" fill="black"/>
<path d="M126.818 13.4785C126.678 15.2012 126.607 16.9238 126.607 18.6465C126.607 22.5488 126.789 25.4961 127.152 27.4883C127.176 27.6523 127.188 27.7871 127.188 27.8926C127.188 28.3613 127.024 28.748 126.695 29.0527C126.367 29.3574 125.986 29.5098 125.553 29.5098C124.826 29.5098 124.293 28.9824 123.953 27.9277C123.109 28.5488 122.231 29.0176 121.316 29.334C120.414 29.6504 119.471 29.8086 118.486 29.8086C116.061 29.8086 114.051 29 112.457 27.3828C110.816 25.7305 109.996 23.6094 109.996 21.0195C109.996 17.8906 110.822 15.3828 112.475 13.4961C114.139 11.6094 116.295 10.666 118.943 10.666C120.303 10.666 121.352 10.877 122.09 11.2988L123.742 12.5117C123.906 7.57812 124.1 4.25586 124.322 2.54492C124.475 1.50195 125.008 0.980469 125.922 0.980469C126.988 0.980469 127.522 1.54883 127.522 2.68555C127.522 4.31445 127.287 7.91211 126.818 13.4785ZM119.014 13.9355C117.045 13.9355 115.568 14.5215 114.584 15.6934C113.6 16.8535 113.107 18.6055 113.107 20.9492C113.107 22.4609 113.641 23.7617 114.707 24.8516C115.785 25.9414 117.045 26.4863 118.486 26.4863C119.471 26.4863 120.303 26.3047 120.982 25.9414C121.381 25.7305 122.031 25.2441 122.934 24.4824C123.109 24.3301 123.279 24.1484 123.443 23.9375L123.391 20.8965L123.408 18.8574L123.443 16.7832C122.998 15.834 122.406 15.125 121.668 14.6562C120.93 14.1758 120.045 13.9355 119.014 13.9355Z" fill="black"/>
<path d="M147.616 30.1074C145.214 30.1074 143.21 29.3809 141.604 27.9277C139.917 26.4043 139.073 24.3945 139.073 21.8984C139.073 19.5195 139.864 17.0645 141.446 14.5332C143.204 11.7207 145.185 10.3145 147.388 10.3145C148.536 10.3145 149.819 10.584 151.237 11.123C153.03 11.8145 153.927 12.6582 153.927 13.6543C153.927 14.0996 153.78 14.498 153.487 14.8496C153.194 15.1895 152.831 15.3594 152.397 15.3594C152.058 15.3594 151.759 15.2598 151.501 15.0605C151.255 14.8496 151.015 14.6445 150.78 14.4453C150.089 13.8945 148.958 13.6191 147.388 13.6191C146.192 13.6191 145.009 14.6855 143.837 16.8184C142.77 18.7754 142.237 20.4688 142.237 21.8984C142.237 23.4453 142.765 24.6641 143.819 25.5547C144.804 26.3867 146.069 26.8027 147.616 26.8027C148.319 26.8027 149.069 26.6152 149.866 26.2402L151.905 25.1504C152.257 24.9629 152.509 24.8691 152.661 24.8691C153.095 24.8691 153.47 25.0449 153.786 25.3965C154.102 25.7363 154.261 26.1289 154.261 26.5742C154.261 27.4297 153.358 28.2559 151.554 29.0527C149.972 29.7559 148.659 30.1074 147.616 30.1074Z" fill="black"/>
<path d="M170.399 16.0098C170.317 17.4746 169.731 18.207 168.641 18.207C167.633 18.207 167.129 17.627 167.129 16.4668C167.129 16.2441 167.112 15.834 167.077 15.2363L167.024 13.7598C165.172 13.9824 163.69 14.5039 162.577 15.3242C161.534 16.0859 160.666 17.2344 159.975 18.7695L160.01 28.4023C160.01 29.5859 159.43 30.1777 158.27 30.1777C157.239 30.1777 156.723 29.5859 156.723 28.4023V16.0625C156.723 15.6758 156.735 15.0957 156.758 14.3223C156.793 13.5488 156.811 12.9688 156.811 12.582C156.811 11.3984 157.327 10.8066 158.358 10.8066C159.506 10.8066 160.086 11.7793 160.098 13.7246C162.348 11.5566 164.844 10.4727 167.586 10.4727C168.536 10.4727 169.245 10.8301 169.713 11.5449C170.182 12.2598 170.416 13.3379 170.416 14.7793C170.416 15.3887 170.411 15.7988 170.399 16.0098Z" fill="black"/>
<path d="M186.308 30.1602C186.086 30.1602 185.681 29.9023 185.096 29.3867C184.568 28.9062 184.176 28.4785 183.918 28.1035C182.793 28.7129 181.803 29.1699 180.947 29.4746C180.092 29.791 179.377 29.9492 178.803 29.9492C176.06 29.9492 174.062 29.1758 172.808 27.6289C171.625 26.1758 171.033 23.9492 171.033 20.9492C171.033 18.1133 172.006 15.6875 173.951 13.6719C175.908 11.6562 178.24 10.6484 180.947 10.6484C181.967 10.6484 183.109 10.9121 184.375 11.4395C185.969 12.0957 186.765 12.8867 186.765 13.8125C186.765 14.1289 186.648 14.4102 186.414 14.6562C186.297 15.1016 186.203 15.834 186.133 16.8535C186.074 17.873 186.039 19.1797 186.027 20.7734C186.015 22.2266 186.115 23.375 186.326 24.2188C186.443 24.7344 186.812 25.7656 187.433 27.3125C187.515 27.5234 187.65 27.834 187.838 28.2441L187.943 28.543C187.943 29.0117 187.779 29.3984 187.451 29.7031C187.123 30.0078 186.742 30.1602 186.308 30.1602ZM182.652 17.9434C182.652 17.4395 182.681 16.8945 182.74 16.3086C182.81 15.7109 182.91 15.0781 183.039 14.4102C182.605 14.1875 182.23 14.0234 181.914 13.918C181.609 13.8125 181.363 13.7598 181.176 13.7598C179.359 13.7598 177.789 14.5039 176.465 15.9922C175.152 17.4688 174.496 19.1738 174.496 21.1074C174.496 23.0293 174.836 24.4707 175.515 25.4316C176.195 26.3926 177.215 26.873 178.574 26.873C179.699 26.873 180.654 26.668 181.439 26.2578C181.861 26.0352 182.453 25.5898 183.215 24.9219C182.84 21.8164 182.652 19.4902 182.652 17.9434Z" fill="black"/>
<path d="M201.374 4.28516C198.538 4.28516 196.95 6.25391 196.611 10.1914L196.558 11.2812C198.55 11.1406 199.839 11.0703 200.425 11.0703C202.288 11.0703 203.22 11.6562 203.22 12.8281C203.22 13.6836 202.763 14.1934 201.849 14.3574C201.45 14.4277 200.982 14.457 200.443 14.4453C199.915 14.4219 198.568 14.498 196.4 14.6738L196.259 18.6816C196.259 19.4082 196.283 20.498 196.329 21.9512C196.376 23.4043 196.4 24.4883 196.4 25.2031C196.4 27.4297 196.271 29.1641 196.013 30.4062C195.814 31.3438 195.269 31.8125 194.378 31.8125C193.898 31.8125 193.488 31.6543 193.148 31.3379C192.808 31.0332 192.638 30.6465 192.638 30.1777C192.638 30.084 192.65 29.9668 192.673 29.8262C192.919 28.3027 193.042 26.6445 193.042 24.8516L192.99 20.0527V14.9551C191.525 15.0723 190.599 15.1309 190.212 15.1309C189.029 15.1309 188.437 14.5625 188.437 13.4258C188.437 12.2656 189.462 11.6562 191.513 11.5977L193.2 11.5449C193.236 10.8887 193.324 9.99805 193.464 8.87305C193.769 6.27148 194.425 4.35547 195.433 3.125C196.652 1.63672 198.556 0.892578 201.146 0.892578C202.822 0.892578 203.659 1.46094 203.659 2.59766C203.659 3.72266 202.898 4.28516 201.374 4.28516Z" fill="black"/>
<path d="M218.198 14.0234C217.952 14.0234 217.659 14.0117 217.319 13.9883C216.991 13.9648 216.704 13.9531 216.458 13.9531C216.188 13.9531 215.391 14.041 214.067 14.2168L214.401 24.6055L214.419 25.3789L214.436 26.2754C214.483 28.8418 213.868 30.125 212.591 30.125C212.122 30.125 211.712 29.9727 211.36 29.668C211.02 29.3633 210.85 28.9824 210.85 28.5254C210.85 28.0801 210.868 27.4121 210.903 26.5215C210.938 25.6309 210.956 24.9629 210.956 24.5176L210.604 14.252C209.749 14.2168 208.448 14.1172 206.702 13.9531C205.659 13.8125 205.137 13.2324 205.137 12.2129C205.137 11.6973 205.296 11.2695 205.612 10.9297C205.928 10.5898 206.333 10.4199 206.825 10.4199L210.516 10.7188C210.516 10.1211 210.487 9.32422 210.428 8.32812C210.382 7.32031 210.358 6.59375 210.358 6.14844C210.358 5.65625 210.528 5.25195 210.868 4.93555C211.208 4.60742 211.624 4.44336 212.116 4.44336C213.171 4.44336 213.786 5.30469 213.962 7.02734C213.997 7.46094 214.014 7.98242 214.014 8.5918L213.979 9.61133L213.962 10.7012C215.415 10.5137 216.247 10.4199 216.458 10.4199C217.676 10.4199 218.473 10.4785 218.848 10.5957C219.563 10.8301 219.921 11.3809 219.921 12.248C219.921 12.7637 219.757 13.1914 219.428 13.5312C219.112 13.8594 218.702 14.0234 218.198 14.0234Z" fill="black"/>
<path d="M233.844 15.4648C233.199 15.4648 232.748 15.248 232.49 14.8145C232.315 14.5098 232.162 13.877 232.033 12.916C231.154 13.1387 229.801 13.5488 227.973 14.1465C226.086 14.8965 225.137 15.8223 225.125 16.9238C225.477 17.0527 225.822 17.1465 226.162 17.2051C228.858 17.6855 230.861 18.3477 232.174 19.1914C234.084 20.4219 235.039 22.2031 235.039 24.5352C235.039 26.4453 234.213 27.8867 232.561 28.8594C231.19 29.6562 229.455 30.0547 227.358 30.0547C225.822 30.0547 224.358 29.7969 222.963 29.2812C221.158 28.625 220.256 27.7109 220.256 26.5391C220.256 26.0703 220.438 25.6602 220.801 25.3086C221.176 24.957 221.598 24.7812 222.067 24.7812C222.43 24.7812 222.899 25.0625 223.473 25.625C223.754 25.8945 224.387 26.1172 225.371 26.293C226.156 26.4336 226.819 26.5039 227.358 26.5039C228.342 26.5039 229.209 26.3867 229.959 26.1523C231.049 25.8125 231.594 25.2734 231.594 24.5352C231.594 22.9414 230.481 21.8633 228.254 21.3008L226.426 20.8965C224.867 20.5566 223.76 20.1582 223.104 19.7012C222.154 19.0449 221.68 18.0547 221.68 16.7305C221.68 14.2812 222.834 12.5352 225.143 11.4922C225.846 11.1758 226.971 10.8008 228.518 10.3672C230.065 9.92188 231.172 9.54688 231.84 9.24219C232.32 9.03125 232.842 8.92578 233.404 8.92578C233.908 8.92578 234.319 9.08984 234.635 9.41797C234.963 9.74609 235.127 10.1738 235.127 10.7012C235.127 11.041 235.197 11.5391 235.338 12.1953C235.49 12.8516 235.567 13.3496 235.567 13.6895C235.567 14.2168 235.402 14.6445 235.074 14.9727C234.758 15.3008 234.348 15.4648 233.844 15.4648Z" fill="black"/>
<path d="M255.345 30.1074C252.942 30.1074 250.939 29.3809 249.333 27.9277C247.646 26.4043 246.802 24.3945 246.802 21.8984C246.802 19.5195 247.593 17.0645 249.175 14.5332C250.933 11.7207 252.913 10.3145 255.116 10.3145C256.265 10.3145 257.548 10.584 258.966 11.123C260.759 11.8145 261.655 12.6582 261.655 13.6543C261.655 14.0996 261.509 14.498 261.216 14.8496C260.923 15.1895 260.56 15.3594 260.126 15.3594C259.786 15.3594 259.487 15.2598 259.23 15.0605C258.983 14.8496 258.743 14.6445 258.509 14.4453C257.817 13.8945 256.687 13.6191 255.116 13.6191C253.921 13.6191 252.737 14.6855 251.565 16.8184C250.499 18.7754 249.966 20.4688 249.966 21.8984C249.966 23.4453 250.493 24.6641 251.548 25.5547C252.532 26.3867 253.798 26.8027 255.345 26.8027C256.048 26.8027 256.798 26.6152 257.595 26.2402L259.634 25.1504C259.985 24.9629 260.237 24.8691 260.39 24.8691C260.823 24.8691 261.198 25.0449 261.515 25.3965C261.831 25.7363 261.989 26.1289 261.989 26.5742C261.989 27.4297 261.087 28.2559 259.282 29.0527C257.7 29.7559 256.388 30.1074 255.345 30.1074Z" fill="black"/>
<path d="M268.916 15.1836L268.653 23.9199C268.653 24.8457 268.606 26.2051 268.512 27.998C268.395 29.1699 267.821 29.7559 266.79 29.7559C265.641 29.7559 265.067 29.1582 265.067 27.9629C265.067 26.5449 265.131 24.418 265.26 21.582C265.389 18.7344 265.454 16.6016 265.454 15.1836C265.454 13.332 265.483 11.2168 265.541 8.83789C265.6 6.44727 265.629 4.32617 265.629 2.47461C265.629 1.30273 266.204 0.716797 267.352 0.716797C268.512 0.716797 269.092 1.30273 269.092 2.47461C269.092 4.32617 269.063 6.44727 269.004 8.83789C268.946 11.2168 268.916 13.332 268.916 15.1836Z" fill="black"/>
<path d="M287.234 18.7344C287.234 19.5781 287.24 20.8438 287.252 22.5312C287.264 24.2188 287.269 25.4844 287.269 26.3281C287.269 26.5859 287.287 26.9785 287.322 27.5059C287.369 28.0332 287.392 28.4258 287.392 28.6836C287.392 29.1875 287.223 29.5977 286.883 29.9141C286.543 30.2422 286.127 30.4062 285.635 30.4062C284.732 30.4062 284.158 29.8496 283.912 28.7363C282.447 29.498 280.76 29.8789 278.85 29.8789C277.314 29.8789 276.043 29.5391 275.035 28.8594C273.922 28.1094 273.26 27.0137 273.049 25.5723C272.592 22.4668 272.363 19.7012 272.363 17.2754C272.363 15.6699 272.539 13.8418 272.891 11.791C273.055 10.7715 273.611 10.2617 274.56 10.2617C275.064 10.2617 275.486 10.4258 275.826 10.7539C276.166 11.0703 276.336 11.4805 276.336 11.9844C276.336 12.5234 276.248 13.3848 276.072 14.5684C275.908 15.752 275.826 16.6543 275.826 17.2754C275.826 19.2324 275.891 20.9082 276.019 22.3027C276.148 23.6973 276.342 24.8164 276.6 25.6602C276.986 25.8711 277.367 26.0352 277.742 26.1523C278.117 26.2578 278.486 26.3105 278.85 26.3105C280.42 26.3105 282.078 26.0586 283.824 25.5547L283.807 21.9863L283.771 18.5762C283.771 16.0449 283.883 13.8477 284.105 11.9844C284.234 10.9062 284.803 10.3672 285.81 10.3672C286.314 10.3672 286.736 10.5312 287.076 10.8594C287.416 11.1875 287.574 11.5977 287.551 12.0898L287.234 18.7344Z" fill="black"/>
<path d="M298.398 29.7383C296.605 29.7383 294.976 29.3867 293.511 28.6836C293.136 29.2461 292.679 29.5273 292.14 29.5273C291.695 29.5273 291.314 29.3691 290.997 29.0527C290.693 28.748 290.54 28.3613 290.54 27.8926C290.54 27.5879 290.552 27.1367 290.576 26.5391C290.611 25.9414 290.628 25.4902 290.628 25.1855C290.628 23.9434 290.593 22.0859 290.523 19.6133C290.464 17.1289 290.435 15.2656 290.435 14.0234C290.435 13.168 290.441 11.5508 290.452 9.17188C290.464 6.78125 290.47 5.15234 290.47 4.28516C290.47 3.58203 290.617 2.94922 290.91 2.38672C291.296 1.67188 291.829 1.31445 292.509 1.31445C293.388 1.31445 293.827 1.82422 293.827 2.84375C293.827 3.00781 293.798 3.24805 293.74 3.56445C293.681 3.88086 293.652 4.12109 293.652 4.28516L293.599 8.13477L293.564 12.6172C294.583 11.9258 295.55 11.4102 296.464 11.0703C297.39 10.7188 298.257 10.543 299.066 10.543C301.585 10.543 303.63 11.5098 305.201 13.4434C306.677 15.2598 307.415 17.4922 307.415 20.1406C307.415 22.8125 306.554 25.0801 304.831 26.9434C303.109 28.8066 300.964 29.7383 298.398 29.7383ZM299.066 13.8652C298.105 13.8652 297.12 14.1348 296.113 14.6738C295.62 14.9434 294.777 15.5234 293.581 16.4141L293.546 19.4551L293.581 25.0801C294.144 25.3379 294.935 25.666 295.954 26.0645C296.681 26.2871 297.495 26.3984 298.398 26.3984C300.097 26.3984 301.492 25.8008 302.581 24.6055C303.671 23.4102 304.216 21.9219 304.216 20.1406C304.216 18.3945 303.777 16.9355 302.898 15.7637C301.949 14.498 300.671 13.8652 299.066 13.8652Z" fill="black"/>
</svg>
