<svg width="52" height="52" viewBox="0 0 52 52" fill="none" xmlns="http://www.w3.org/2000/svg">
<g id="collections_24px">
<path id="icon/image/collections_24px" fill-rule="evenodd" clip-rule="evenodd" d="M17.3335 4.3335H43.3335C45.7169 4.3335 47.6669 6.2835 47.6669 8.66683V34.6668C47.6669 37.0502 45.7169 39.0002 43.3335 39.0002H17.3335C14.9502 39.0002 13.0002 37.0502 13.0002 34.6668V8.66683C13.0002 6.2835 14.9502 4.3335 17.3335 4.3335ZM43.3335 34.6668V8.6668H17.3335V34.6668H43.3335ZM24.9169 25.2853L28.5785 30.1819L33.9519 23.4653L41.1669 32.5003H19.5002L24.9169 25.2853ZM4.3335 43.3335V13.0002H8.66683V43.3335H39.0002V47.6669H8.66683C6.2835 47.6669 4.3335 45.7169 4.3335 43.3335Z" fill="black"/>
</g>
</svg>
