<svg width="730" height="339" viewBox="0 0 730 339" fill="none" xmlns="http://www.w3.org/2000/svg">
<path d="M0.183105 328.94V285.09C4.31311 279.14 14.0931 275.59 21.9231 277.46C23.9931 277.95 26.1731 278.19 28.1431 279.19C25.5331 272.48 28.0631 266.24 30.6831 260.6C37.6831 245.44 47.0331 231.78 60.5331 221.41C67.3524 216.03 75.8514 213.229 84.5331 213.5C94.5331 213.82 103.733 216.93 111.353 223.72C119.481 231.138 126.548 239.641 132.353 248.99C132.063 250.1 133.223 249.34 132.573 249.5C132.343 249.55 132.383 249.4 132.413 249.03C132.703 245.55 135.413 245.57 137.863 245.26C152.223 243.43 162.283 250.43 170.623 261.07C176.623 268.75 179.443 277.63 180.553 287.21C186.553 281.68 193.003 284.11 198.833 286.63C209.283 291.13 216.973 301.57 216.763 312.43C218.413 308.52 221.533 307.24 227.403 308.08C235.033 309.16 247.243 320.74 248.933 328.5C248.993 328.79 248.763 329.11 248.533 329.39C248.047 329.73 247.501 329.975 246.923 330.11C245.266 330.332 243.593 330.409 241.923 330.34H36.6131C35.4431 330.34 34.2831 330.34 33.1231 330.29C29.7231 330.24 27.8031 328.72 27.9031 325.16C29.1331 320.16 30.0431 314.1 35.5031 312.72C40.9631 311.34 43.2031 308.27 45.6331 303.88C48.2531 299.16 52.7731 298.44 56.7931 300.88C61.4231 291.58 63.4631 290.33 70.9731 292.14C64.7531 290.45 62.1231 291.41 58.6231 296.95C57.6231 298.48 56.8431 299.35 54.7531 299.18C49.9131 298.76 46.3831 301.33 44.4531 305.46C43.8027 307.041 42.782 308.444 41.4768 309.549C40.1717 310.654 38.6203 311.429 36.9531 311.81C31.8431 313.18 30.0931 317.61 28.3831 321.98C27.2031 323.08 25.6731 322.98 24.2431 323.38C21.0731 324.17 17.8031 324.79 15.2431 327.15C10.6731 331.45 5.53311 331.09 0.183105 328.94Z" fill="black"/>
<path d="M333.603 329.1L250.763 328.92C250.469 328.648 250.089 328.488 249.688 328.468C249.288 328.448 248.893 328.569 248.573 328.81H248.693C247.053 330.06 245.153 329.43 243.393 329.43H34.1733C32.8415 329.554 31.5 329.53 30.1733 329.36C20.1733 327.11 10.1733 329.54 0.173309 329.91C0.294773 331.241 0.294773 332.579 0.173309 333.91C-0.496691 337.35 0.763309 338 4.17331 338C244.753 337.9 485.327 337.9 725.893 338C729.313 338 729.983 338.25 729.983 334.84L728.923 258.19C724.373 249.22 719.533 240.79 712.863 233.57C689.663 208.43 664.963 197.7 633.353 210.9C631.083 211.85 630.053 210.92 628.803 209.4C622.033 201.13 614.333 193.8 606.683 186.4C594.883 175.05 581.883 165.38 565.883 161.52C535.293 154.15 507.913 160.87 485.883 183.71C463.853 206.55 449.073 233.87 438.313 263.46C434.922 272.699 433.687 282.591 434.703 292.38C435.123 296.52 434.563 297.59 430.123 296.96C410.023 294.12 386.213 305.34 378.373 325.96C377.333 328.68 375.633 329.1 373.023 329.1C359.883 329.04 346.743 329.1 333.603 329.1Z" fill="white"/>
<path d="M250.763 328.92L248.583 328.83C245.678 323.028 241.59 317.898 236.583 313.77C233.864 311.287 230.452 309.693 226.803 309.2C220.333 308.49 218.803 309.64 217.583 315.96C217.433 316.75 217.283 317.62 215.583 317.73C215.583 314.48 215.993 311.19 215.503 308.04C213.773 296.88 202.003 286.36 190.643 285.48C183.453 284.93 182.643 285.48 181.093 292.87C180.173 289.79 179.093 287.61 178.923 285.37C177.693 268.51 168.723 256.84 154.543 248.63C149.403 245.63 143.703 245.83 138.023 246.29C134.553 246.56 131.533 247.16 134.353 251.72C134.58 251.979 134.704 252.311 134.704 252.655C134.704 252.999 134.58 253.331 134.353 253.59C132.743 254.26 132.973 252.67 132.623 251.99C127.396 241.772 120.237 232.664 111.543 225.17C94.1531 210.17 71.7831 211.07 54.9531 227.34C45.1979 236.871 37.2944 248.128 31.6431 260.54C30.3112 263.398 29.3824 266.427 28.8831 269.54C28.2331 273.66 26.8831 277.96 32.2031 281.11C20.4831 276.46 9.78312 276.76 0.203125 285.11V282.11C7.53312 277.48 15.2031 274.4 24.0931 276.88C25.9931 277.4 26.1831 276.48 26.4031 274.88C29.6031 251.16 43.4031 233.76 61.4531 219.76C76.7431 207.92 99.2531 210.65 113.983 224.63C119.703 230.182 124.864 236.281 129.393 242.84C130.513 244.42 131.453 245.64 133.773 245.02C149.393 240.86 160.773 247.64 170.373 259.18C175.54 265.493 179.059 272.991 180.613 281C181.033 283 181.363 284.09 184.033 283.79C198.653 282.13 211.443 290.14 216.233 303.96C217.233 306.89 217.963 308.27 221.573 307.33C226.573 306 231.423 307.47 235.683 310.55C242.219 315.261 247.416 321.592 250.763 328.92Z" fill="white"/>
<path d="M248.703 328.8C247.363 330.7 245.353 329.93 243.643 329.93C168.783 329.97 93.9198 329.97 19.0531 329.93H0.183105V328.93C3.29311 328.98 6.40311 329.01 9.50311 329.08C10.8431 329.08 12.0631 329.08 13.0131 327.85C16.4131 323.47 21.0131 321.91 26.4231 322.21C26.8303 322.264 27.2433 322.172 27.5892 321.95C27.9351 321.729 28.1915 321.392 28.3131 321C30.1431 321 29.5831 322.09 29.2131 323.07C27.8331 328.07 29.7831 329.19 34.8231 329.18C104.123 328.99 173.433 329.06 242.743 329.04C244.723 329.07 246.713 328.89 248.703 328.8Z" fill="white"/>
<path d="M608.523 148.14C605.863 149.05 603.523 150.39 600.853 150.67C586.373 152.2 577.313 142.67 580.423 128.43C582.213 120.21 585.583 112.49 594.883 109.88C597.463 109.15 596.393 107.3 596.553 105.88C597.843 94.5398 603.553 86.8798 613.033 87.5698C620.613 88.0898 623.483 85.1198 626.613 79.3898C629.743 73.6598 634.843 68.9998 640.443 65.3298C647.823 60.4398 654.943 60.5998 662.243 65.6298C668.402 69.9205 673.354 75.7231 676.623 82.4798C678.023 85.2998 679.203 87.1798 683.063 87.1498C688.233 87.1498 693.063 89.2898 697.533 92.0298C700.973 94.1398 703.533 97.0298 703.043 101.31C702.803 103.59 703.943 103.98 705.563 104.75C716.943 110.16 722.403 126.4 716.733 137.65C715.09 140.761 712.514 143.28 709.366 144.852C706.219 146.425 702.658 146.973 699.183 146.42C695.723 145.85 694.383 146.99 692.693 149.68C683.833 163.75 669.533 166.52 656.023 156.68C653.243 154.68 653.113 156.68 652.233 158.03C646.013 167.33 634.433 172.03 625.013 168.23C616.853 165 612.183 158.05 609.133 150C608.903 149.45 608.743 148.84 608.523 148.14Z" fill="white"/>
<path d="M143.903 64.9398C146.591 64.9053 149.19 65.8958 151.173 67.7098C159.633 74.5398 165.543 82.8498 164.593 94.3698C164.423 96.4798 165.683 96.9198 166.753 97.7698C178.573 107.17 179.753 117.65 170.223 129.38C168.334 131.69 166.307 133.884 164.153 135.95C162.043 137.95 159.153 139.67 156.483 138.48C150.833 135.98 147.603 139.3 143.613 142.21C131.863 150.77 123.153 151.55 114.223 144.09C110.353 140.86 107.383 140.01 102.783 141.68C98.8633 143.1 94.5933 143.32 91.0533 140.06C89.9833 139.06 88.9433 139.81 87.8433 140.2C79.1933 143.2 68.7833 139.04 66.7133 131.75C63.4033 120.09 68.3933 111.05 79.5333 108.52C79.6939 108.43 79.8729 108.378 80.0568 108.367C80.2406 108.357 80.4244 108.388 80.5941 108.46C80.7639 108.531 80.9151 108.64 81.0362 108.779C81.1574 108.918 81.2453 109.082 81.2933 109.26C80.8433 111.55 78.7433 111.58 77.1433 112.26C70.7433 115.1 68.0733 121.07 69.4933 129.37C70.3433 134.37 75.2933 137.89 81.8433 138.2C84.1133 138.31 86.1833 137.97 87.3533 135.69C88.4433 133.56 90.1033 133.69 91.3033 135.24C95.7933 141.05 101.243 139.5 106.593 137.24C109.863 135.87 111.663 135.88 113.683 139.42C116.553 144.47 126.603 147.36 131.933 144.91C137.513 142.34 144.073 140.75 146.323 133.75C146.943 131.82 148.413 132.43 149.573 133.03C155.353 136.03 160.573 136.21 165.243 130.79C170.843 124.29 175.573 117.58 172.313 108.41C170.403 103.01 167.093 100.93 162.003 101.6C161.81 101.657 161.607 101.67 161.408 101.639C161.209 101.608 161.02 101.532 160.854 101.418C160.688 101.304 160.55 101.154 160.45 100.98C160.349 100.805 160.289 100.611 160.273 100.41C160.083 99.4281 160.174 98.4128 160.533 97.4798C163.833 86.6998 158.533 78.8498 151.433 71.8498C149.253 69.6898 145.963 68.9598 142.913 68.2798C141.543 67.9798 140.153 67.9898 140.603 65.9898C141.443 64.8598 142.983 65.8398 143.903 64.9398Z" fill="white"/>
<path d="M199.683 157.37C214.193 154.11 228.683 150.82 243.233 147.66C244.563 147.37 248.043 146.56 245.863 149.92C241.343 156.92 241.533 164.11 243.953 171.7C240.153 172.12 238.153 169.08 235.183 168.83C234.953 168.798 234.735 168.709 234.548 168.571C234.361 168.433 234.211 168.25 234.113 168.04C233.253 165.44 230.863 165.5 228.823 165.14C221.583 163.87 214.273 163.05 206.823 161.58C215.253 165.65 222.603 171.13 231.083 174.51C231.201 174.971 231.155 175.459 230.953 175.89C230.363 178.19 228.953 177.07 227.953 176.48C218.22 170.887 208.51 165.26 198.823 159.6C200.383 157.93 202.103 158.66 204.103 159.31C202.553 158.27 200.553 159 199.683 157.37Z" fill="white"/>
<path d="M81.0332 109.65L79.5332 108.52C82.7632 108.01 84.0632 106.71 84.2932 102.89C84.8832 93.06 95.1432 85.22 105.923 86.12C109.703 86.44 111.223 85.33 112.853 82.12C116.723 74.51 121.503 67.53 130.573 65.24C131.697 65.0557 132.834 64.9621 133.973 64.96C134.503 65.74 136.163 64.96 136.133 66.5C135.543 67.71 134.383 67.93 133.233 68.11C124.403 69.54 119.753 75.81 115.843 82.98C114.703 85.07 115.413 86.6 116.703 88.37C118.203 90.45 117.043 91.53 114.793 91.22C112.543 90.91 110.363 89.88 108.073 89.47C99.7732 87.99 91.0732 92.38 88.3932 99.47C87.3054 102.091 87.171 105.01 88.0132 107.72C88.4432 109.09 89.2832 110.72 87.7732 111.84C86.5332 112.77 85.2532 111.7 84.0432 111.28C82.8332 110.86 81.7632 110.69 81.0332 109.65Z" fill="white"/>
<path d="M378.063 165.79C376.423 168.58 374.063 169.99 369.823 169.99C372.573 167 375.303 166.4 378.063 165.79Z" fill="white"/>
<path d="M313.743 178.4C313.213 179.06 313.143 179.26 313.033 179.28C310.519 179.826 307.891 179.355 305.723 177.97C305.653 177.97 305.943 176.86 306.133 176.84C308.772 176.526 311.441 177.073 313.743 178.4Z" fill="white"/>
<path d="M383.354 163.53C384.874 160.89 387.354 159.93 391.234 158.53C390.458 159.968 389.326 161.182 387.946 162.058C386.566 162.933 384.985 163.44 383.354 163.53Z" fill="white"/>
<path d="M300.683 176C299.883 176.85 299.633 177.3 299.453 177.28C297.093 176.98 294.613 177.05 292.643 175.37C292.543 175.29 292.703 174.6 292.853 174.56C295.563 173.77 297.823 175.08 300.683 176Z" fill="white"/>
<path d="M345.713 179C347.633 176.4 350.323 176.48 353.873 175.81C351.373 179.65 348.213 178.42 345.713 179Z" fill="white"/>
<path d="M287.633 173.45C286.823 174.15 286.633 174.54 286.363 174.52C283.953 174.38 281.533 174.21 279.603 172.52C279.523 172.45 279.943 171.44 280.153 171.43C282.783 171.3 285.063 172.26 287.633 173.45Z" fill="white"/>
<path d="M318.983 179.74C321.613 178.35 323.983 179.19 327.623 180.18C323.893 181.87 321.443 180.71 318.983 179.74Z" fill="white"/>
<path d="M395.453 157C396.833 154.15 399.073 152.69 402.903 152.37C402.07 153.635 400.973 154.704 399.686 155.503C398.4 156.302 396.956 156.813 395.453 157Z" fill="white"/>
<path d="M358.514 175.85C358.514 174.96 358.444 174.74 358.514 174.64C360.254 172.5 362.794 172.1 365.274 171.64C365.364 171.64 365.864 172.64 365.754 172.79C363.704 174.6 361.224 175.28 358.514 175.85Z" fill="white"/>
<path d="M340.333 180C337.563 181.11 335.123 181.26 331.333 181.08C335.983 178.6 336.923 178.53 340.333 180Z" fill="white"/>
<path d="M199.683 157.37C200.642 157.484 201.594 157.654 202.533 157.88C203.508 158.256 204.457 158.697 205.373 159.2L198.753 159.6C198.173 159.33 197.553 158.99 197.753 158.24C197.983 157.26 198.983 157.53 199.683 157.37Z" fill="white"/>
<path d="M136.193 66.0501L133.983 64.9301C137.275 64.4302 140.622 64.4302 143.913 64.9301C143.083 66.0601 141.753 65.7201 140.653 66.0501C140.036 66.5896 139.243 66.8869 138.423 66.8869C137.603 66.8869 136.811 66.5896 136.193 66.0501Z" fill="white"/>
<path d="M230.913 175.89L230.763 174.44C230.363 171.44 231.483 169.27 234.443 168.22C234.683 168.43 234.933 168.63 235.183 168.83C234.159 171.403 232.716 173.789 230.913 175.89Z" fill="white"/>
<path d="M29.2135 323.1L28.3135 321.03C29.3835 315.03 32.7035 311.09 38.9335 310.24C39.657 310.245 40.3634 310.02 40.951 309.597C41.5386 309.175 41.9771 308.577 42.2035 307.89C44.6335 302 48.1235 297.39 55.5235 298.3C57.7435 298.57 57.6435 296.55 58.2935 295.41C61.9835 289 70.9835 288.3 75.6535 295.35C71.0235 294 67.2235 290.59 62.7435 293.57C58.6035 296.33 58.7435 301.24 56.8935 305.24C54.7835 303.97 57.5535 300.32 53.8935 300.36C49.9535 300.36 47.2935 302.51 45.4635 305.66C44.2235 307.78 42.0935 310.19 46.6535 312.66C41.9635 313.37 38.1335 311.38 34.7235 313.85C31.4435 316.18 30.7135 319.83 29.2135 323.1Z" fill="white"/>
<path d="M380.533 328.74C387.683 307.59 412.913 296.37 433.483 301.24C436.533 301.96 439.683 302.24 442.713 303.02C443.713 303.28 445.133 303.92 445.453 302.09C445.505 301.842 445.503 301.585 445.448 301.337C445.392 301.09 445.283 300.857 445.13 300.655C444.976 300.453 444.781 300.286 444.557 300.166C444.333 300.047 444.087 299.976 443.833 299.96C436.653 299.41 437.733 293.9 437.483 289.35C436.813 276.62 440.203 264.7 445.263 253.21C455.333 230.34 467.263 208.59 484.153 189.88C505.783 165.88 532.663 157.74 563.993 164.52C576.533 167.24 587.373 173.88 597.113 182.15C606.369 189.988 615.058 198.473 623.113 207.54C627.803 212.83 632.273 218.31 635.363 224.76C635.803 225.7 636.193 227.28 637.783 226.51C639.213 225.8 638.653 224.57 638.083 223.51C636.523 220.6 634.943 217.7 633.313 214.71C656.103 204.55 677.083 207.53 696.573 222.57C710.303 233.16 720.573 246.29 726.633 262.66C728.209 266.846 728.995 271.288 728.953 275.76C728.793 292.36 728.823 308.97 728.953 325.57C728.953 328.34 728.273 329.17 725.413 329.16C651.413 329.08 577.39 329.053 503.343 329.08C502.847 329.052 502.353 328.996 501.863 328.91C502.377 325.391 504.134 322.173 506.816 319.838C509.498 317.502 512.927 316.205 516.483 316.18C519.469 316.302 522.423 316.851 525.253 317.81C527.253 318.37 530.003 321.81 531.093 319.18C532.403 316.02 528.013 315.59 525.833 314.69C514.033 309.83 504.143 314.06 499.143 326C498.303 328 497.573 329.17 495.013 329.17C457.253 329.06 419.493 329.09 381.733 329.07C381.323 329.002 380.921 328.891 380.533 328.74Z" fill="black"/>
<path d="M689.733 142.21C694.453 145.08 691.853 147.66 689.963 150.21C682.443 160.49 670.963 163.21 660.103 157.16C657.203 155.56 654.373 153.74 654.843 149.21C649.563 161.62 641.083 169.84 627.313 166.41C616.023 163.6 611.313 153.89 609.723 141.76C607.723 146.5 604.513 148.23 600.423 148.49C596.593 148.74 592.763 148.63 589.243 146.79C582.913 143.46 580.373 136.32 582.383 127.72C584.893 116.95 590.563 112.48 602.743 112.29C596.103 108.93 598.433 104.09 599.903 99.7202C601.773 94.1702 605.563 90.4002 611.703 89.6402C616.581 88.847 621.579 89.9179 625.703 92.6402C622.273 88.9202 624.703 86.0902 626.263 83.4302C630.049 76.9813 635.204 71.4411 641.363 67.2002C647.873 62.7302 654.433 62.8502 660.883 67.2002C669.743 73.2002 675.143 81.7602 678.373 91.9502C682.853 86.1702 687.633 89.9502 691.793 91.5302C700.953 94.9902 701.533 96.7602 699.603 109.03C703.363 104.36 706.373 106.71 709.053 109.46C713.563 114.09 716.693 119.46 717.053 126.14C717.803 139.88 706.863 147.87 694.053 142.96C692.893 142.55 691.853 141.49 689.733 142.21Z" fill="black"/>
<path d="M234.443 168.22L230.763 174.44C229.933 175.04 229.133 175.53 228.053 174.9C220.035 170.469 212.263 165.605 204.773 160.33C214.603 161.78 224.453 163.1 234.243 164.78C237.143 165.27 233.923 167.07 234.443 168.22Z" fill="black"/>
<path d="M244.233 149.12C241.523 157.65 241.523 157.64 233.493 157.62C225.053 157.62 216.623 157.62 208.093 156.94L244.233 149.12Z" fill="black"/>
<path d="M214.853 159.55C221.463 159.55 228.073 159.5 234.673 159.61C235.943 159.61 238.353 158.71 238.283 160.71C238.213 162.97 236.053 163.66 233.753 163.26C229.193 162.47 224.623 161.76 220.053 161C218.293 160.71 216.543 160.4 214.793 160.09L214.853 159.55Z" fill="black"/>
<path d="M241.123 168.2C239.923 165.99 236.753 164.8 240.253 161.55C240.803 163.8 242.253 165.42 241.123 168.2Z" fill="black"/>
<path d="M656.633 127.26C660.263 127.96 664.253 132.59 664.733 125.53C671.133 129 671.943 128.76 673.383 123.02C679.013 125.57 679.013 125.57 682.463 121.93C682.923 125.44 681.463 127.45 677.973 127.03C677.061 126.868 676.123 126.942 675.248 127.245C674.373 127.548 673.59 128.069 672.973 128.76C669.173 132.21 659.753 131.55 656.633 127.26Z" fill="white"/>
<path d="M650.593 93.7998C650.813 96.5298 649.783 99.5398 647.413 99.4998C643.053 99.4098 639.233 100.65 635.193 101.71C633.633 102.12 632.193 102.85 630.733 103.22C627.733 103.96 625.423 102.89 623.733 99.8898C625.923 98.8898 627.023 101.47 628.333 101.03C631.233 100.03 633.753 97.5098 637.193 99.2998C638.293 93.1898 641.923 97.2998 644.333 97.7298C647.813 98.3498 648.483 95.3698 650.593 93.7998Z" fill="white"/>
<path d="M619.343 145.26C621.913 145.41 621.993 152.5 625.853 147.06C626.313 146.42 626.853 147.34 627.343 147.73C632.423 151.73 635.813 151.3 639.643 146.11C640.213 145.33 640.453 144.25 641.703 144.25C641.603 146.516 640.634 148.656 638.997 150.226C637.36 151.796 635.181 152.674 632.913 152.68C623.903 153 619.773 150.76 619.343 145.26Z" fill="white"/>
<path d="M124.693 123C132.563 125.64 133.373 125.39 133.093 120.32C135.403 120.89 137.153 124.19 140.093 121.45C142.203 119.45 142.583 117.57 140.343 114.89C149.683 118.09 153.153 117.5 157.523 112.39C157.613 116.23 155.293 118.6 150.523 118.74C146.863 118.85 144.253 119.35 141.233 122.37C138.213 125.39 133.233 126.87 128.463 126.27C126.863 126 124.823 125.37 124.693 123Z" fill="white"/>
<path d="M99.7134 112.31C103.543 112.37 104.923 106.81 109.263 109.24C111.163 104.66 116.983 106.77 118.773 104.62C121.643 101.17 126.443 104.14 128.513 98.9399C127.983 103.17 127.323 104.18 124.753 104.67C123.113 104.98 121.633 106.04 120.293 106.25C113.753 107.25 108.703 111.55 102.733 113.7C101.833 114 100.793 114.21 99.7134 112.31Z" fill="white"/>
</svg>
