<svg width="52" height="52" viewBox="0 0 52 52" fill="none" xmlns="http://www.w3.org/2000/svg">
<path fill-rule="evenodd" clip-rule="evenodd" d="M34.6668 4.3335H17.3335C10.1538 4.3335 4.3335 10.1538 4.3335 17.3335V34.6668C4.3335 41.8465 10.1538 47.6668 17.3335 47.6668H34.6668C41.8465 47.6668 47.6668 41.8465 47.6668 34.6668V17.3335C47.6668 10.1538 41.8465 4.3335 34.6668 4.3335ZM8.66683 17.3335C8.66683 12.547 12.547 8.66683 17.3335 8.66683H34.6668C39.4533 8.66683 43.3335 12.547 43.3335 17.3335V34.6668C43.3335 39.4533 39.4533 43.3335 34.6668 43.3335H17.3335C12.547 43.3335 8.66683 39.4533 8.66683 34.6668V17.3335ZM26.0002 36.8335C20.0171 36.8335 15.1668 31.9832 15.1668 26.0002C15.1668 20.0171 20.0171 15.1668 26.0002 15.1668C31.9832 15.1668 36.8335 20.0171 36.8335 26.0002C36.8335 31.9832 31.9832 36.8335 26.0002 36.8335ZM26.0002 32.5002C29.59 32.5002 32.5002 29.59 32.5002 26.0002C32.5002 22.4103 29.59 19.5002 26.0002 19.5002C22.4103 19.5002 19.5002 22.4103 19.5002 26.0002C19.5002 29.59 22.4103 32.5002 26.0002 32.5002ZM39.0002 15.1668C39.0002 16.3634 38.0301 17.3335 36.8335 17.3335C35.6369 17.3335 34.6668 16.3634 34.6668 15.1668C34.6668 13.9702 35.6369 13.0002 36.8335 13.0002C38.0301 13.0002 39.0002 13.9702 39.0002 15.1668Z" fill="black"/>
</svg>
