<svg width="556" height="329" viewBox="0 0 556 329" fill="none" xmlns="http://www.w3.org/2000/svg">
<path d="M277.5 328.9C186.36 328.9 95.2233 328.933 4.09 329C0.67 329 0 328.33 0 324.91C0.12 217.97 0.12 111.03 0 4.09C0 0.67 0.67 0 4.09 0C186.697 0.113333 369.303 0.113333 551.91 0C555.33 0 556 0.67 556 4.09C555.88 111.03 555.88 217.97 556 324.91C556 328.33 555.33 329 551.91 329C460.443 328.88 368.973 328.847 277.5 328.9Z" fill="#FE2C2C"/>
<path d="M436.76 190.08C432.17 189.87 432.95 187.52 434.76 184.9C435.83 183.33 436.62 182.25 433.91 181.46C415.06 175.94 409.11 164.13 410.68 142.59C411.097 135.952 413.159 129.522 416.68 123.88C418.07 123.36 418.68 124.24 419.23 125.27C419.96 127.81 419.16 130.18 418.38 132.55C415.33 141.785 415.355 151.76 418.45 160.98C421.58 170.68 430.56 176.46 442.14 176.58C452.8 176.68 460.33 171.58 463.86 161.68C468.151 150.181 467.767 137.459 462.79 126.24C460.422 120.86 456.325 116.426 451.15 113.64C449.45 112.64 447.33 112.06 447.67 109.41C448.75 108.02 450.1 108.6 451.41 108.91C455.55 108.97 458.52 111.31 461.27 114.01C465.008 117.616 467.812 122.078 469.44 127.01C474.44 142.51 473.71 163.59 461.32 175.13C457.95 178.28 454.27 180.75 449.81 181.78C447.62 182.28 447.16 182.89 447.94 185.08C450.2 191.47 449.19 192.38 441.94 190.91C440.173 191.014 438.406 190.731 436.76 190.08Z" fill="#F3F2ED"/>
<path d="M436.76 190.08C438.55 189.9 440.32 189.84 441.92 190.89C440.77 191.34 440.68 192.33 440.68 193.35C440.68 202.28 437.85 210.35 433.14 217.78C426.72 227.87 426.84 238.5 430.14 249.45C431.89 255.35 433.85 261.19 433.45 267.45C433.38 269.787 432.86 272.089 431.92 274.23C431.41 275.3 431.29 277.39 429.48 276.68C427.67 275.97 428.85 274.3 429.29 273.21C431.71 267.3 430.92 261.53 429.05 255.67C424.37 240.97 423.51 226.67 433.26 213.29C437.13 207.96 438.39 201.46 439.04 194.93C439.2 192.94 439.26 190.91 436.76 190.08Z" fill="#F0E6E2"/>
<path d="M417.93 126L416.68 123.91C424.68 111.35 438.44 105.42 451.41 108.91L447.98 109.91C447.06 112.75 444.42 112.77 442.26 113C438.36 113.296 434.57 114.432 431.151 116.331C427.731 118.23 424.763 120.846 422.45 124C421.4 125.45 420.2 127.11 417.93 126Z" fill="#EEE1DC"/>
<path d="M417.93 126C421.07 122.21 423.93 118.25 428.08 115.32C434.13 111.05 441.08 110.72 447.98 109.91C458.52 113.17 464.81 120.73 467.24 130.97C469.93 142.26 470.05 153.69 465.05 164.68C460.63 174.36 452.12 179.95 441.05 179.14C430.21 178.33 420.74 174.44 416.53 163.35C412.636 153.143 412.512 141.881 416.18 131.59C416.83 129.71 417.36 127.84 417.93 126Z" fill="#FE2C2C"/>
<path d="M441.73 188.45C440.18 187.29 436.51 189.65 436.42 186.23C436.33 183.09 439.32 182.35 442.19 182.35C445.51 182.35 445.97 185.06 445.88 187.11C445.78 189.39 443.45 188.46 441.73 188.45Z" fill="#F53C3B"/>
<path d="M453.26 170.85C458.574 165.124 462.057 157.94 463.26 150.22C464.56 157.89 460.35 167.19 453.26 170.85Z" fill="#E1AEAC"/>
<path d="M56.1698 123.35H72.2398V127.47H51.7598V94.3501H56.1698V123.35Z" fill="white"/>
<path d="M87.3101 128.06C84.9851 128.087 82.6931 127.508 80.6601 126.38C78.6971 125.303 77.0704 123.704 75.9601 121.76C74.8452 119.766 74.2598 117.52 74.2598 115.235C74.2598 112.951 74.8452 110.704 75.9601 108.71C77.0733 106.768 78.6993 105.17 80.6601 104.09C82.6958 102.97 84.9865 102.394 87.3101 102.42C89.0239 102.374 90.7293 102.676 92.3228 103.309C93.9162 103.941 95.3646 104.891 96.5801 106.1C98.9862 108.534 100.336 111.818 100.336 115.24C100.336 118.662 98.9862 121.947 96.5801 124.38C95.3632 125.587 93.9146 126.536 92.3215 127.168C90.7283 127.801 89.0236 128.104 87.3101 128.06ZM87.3101 124.06C88.4701 124.093 89.6244 123.885 90.7001 123.45C91.7758 123.014 92.7496 122.361 93.5601 121.53C95.1661 119.824 96.0603 117.569 96.0603 115.225C96.0603 112.882 95.1661 110.627 93.5601 108.92C91.8809 107.292 89.6339 106.382 87.2951 106.382C84.9562 106.382 82.7092 107.292 81.0301 108.92C79.4241 110.627 78.5299 112.882 78.5299 115.225C78.5299 117.569 79.4241 119.824 81.0301 121.53C81.8465 122.362 82.8254 123.017 83.9058 123.454C84.9862 123.891 86.145 124.1 87.3101 124.07V124.06Z" fill="white"/>
<path d="M117.2 128.06C114.872 128.088 112.576 127.509 110.54 126.38C108.577 125.303 106.95 123.704 105.84 121.76C104.725 119.766 104.14 117.52 104.14 115.235C104.14 112.95 104.725 110.704 105.84 108.71C106.953 106.768 108.579 105.17 110.54 104.09C112.579 102.968 114.873 102.393 117.2 102.42C118.914 102.374 120.619 102.677 122.212 103.31C123.806 103.942 125.254 104.891 126.47 106.1C128.876 108.534 130.226 111.818 130.226 115.24C130.226 118.662 128.876 121.946 126.47 124.38C125.253 125.587 123.804 126.535 122.211 127.167C120.618 127.8 118.913 128.103 117.2 128.06ZM117.2 124.06C118.358 124.093 119.511 123.885 120.585 123.449C121.659 123.014 122.631 122.36 123.44 121.53C125.046 119.823 125.94 117.568 125.94 115.225C125.94 112.882 125.046 110.627 123.44 108.92C121.761 107.295 119.516 106.386 117.18 106.386C114.844 106.386 112.599 107.295 110.92 108.92C109.307 110.623 108.408 112.88 108.408 115.225C108.408 117.571 109.307 119.827 110.92 121.53C111.735 122.363 112.714 123.019 113.795 123.456C114.875 123.893 116.035 124.102 117.2 124.07V124.06Z" fill="white"/>
<path d="M151.7 127.47L142.91 117.63L139.74 121V127.47H135.62V92.8999H139.74V115.42L151.44 103H156.83L145.83 114.56L157.15 127.47H151.7Z" fill="white"/>
<path d="M162.88 98.1001C162.511 98.1126 162.144 98.0499 161.8 97.9158C161.456 97.7817 161.143 97.579 160.88 97.3201C160.366 96.795 160.079 96.0897 160.079 95.3551C160.079 94.6206 160.366 93.9152 160.88 93.3901C161.145 93.1344 161.458 92.9345 161.802 92.8023C162.145 92.67 162.512 92.6081 162.88 92.6201C163.239 92.6099 163.596 92.6729 163.929 92.8053C164.263 92.9377 164.566 93.1367 164.82 93.3901C165.324 93.92 165.606 94.6236 165.606 95.3551C165.606 96.0867 165.324 96.7902 164.82 97.3201C164.567 97.5759 164.264 97.777 163.931 97.9112C163.597 98.0454 163.239 98.1097 162.88 98.1001ZM160.81 127.47V103H164.94V127.47H160.81Z" fill="white"/>
<path d="M184.84 102.42C186.166 102.336 187.495 102.536 188.738 103.006C189.981 103.475 191.11 104.203 192.05 105.142C192.99 106.082 193.72 107.21 194.19 108.452C194.661 109.695 194.862 111.024 194.78 112.35V127.47H190.65V113.64C190.694 112.678 190.544 111.717 190.211 110.814C189.878 109.911 189.368 109.083 188.71 108.38C188.025 107.707 187.209 107.182 186.313 106.838C185.417 106.494 184.459 106.338 183.5 106.38C182.505 106.329 181.51 106.481 180.576 106.824C179.641 107.168 178.785 107.697 178.06 108.38C177.381 109.083 176.853 109.918 176.509 110.833C176.165 111.748 176.012 112.724 176.06 113.7V127.43H171.9V103H176V106.73C178 103.85 180.947 102.413 184.84 102.42Z" fill="white"/>
<path d="M216.85 128.1C218.911 128.016 220.939 128.637 222.6 129.86C223.34 130.44 223.953 131.167 224.401 131.994C224.848 132.822 225.12 133.733 225.2 134.67L220.93 135.77C220.92 135.252 220.789 134.743 220.548 134.285C220.307 133.827 219.961 133.431 219.54 133.13C218.543 132.433 217.345 132.081 216.13 132.13H207.13C205.344 132.212 203.589 131.635 202.2 130.51C201.587 129.999 201.099 129.355 200.772 128.627C200.444 127.9 200.286 127.107 200.31 126.31C200.304 125.179 200.582 124.065 201.12 123.07C201.618 122.104 202.39 121.308 203.34 120.78C202.281 119.809 201.436 118.627 200.86 117.31C200.275 115.949 199.982 114.481 200 113C199.964 111.583 200.23 110.174 200.78 108.867C201.33 107.56 202.151 106.385 203.19 105.42C205.354 103.4 208.231 102.321 211.19 102.42C213.296 102.403 215.368 102.952 217.19 104.01C217.38 102.778 218.044 101.669 219.04 100.92C220.114 100.127 221.426 99.722 222.76 99.7699H224.64V103.61H223C222.209 103.575 221.435 103.839 220.83 104.35C220.548 104.599 220.324 104.908 220.176 105.254C220.027 105.599 219.957 105.974 219.97 106.35C221.647 108.406 222.493 111.015 222.342 113.664C222.19 116.313 221.051 118.809 219.15 120.66C218.081 121.665 216.824 122.447 215.451 122.962C214.077 123.477 212.615 123.714 211.15 123.66C209.358 123.69 207.584 123.299 205.97 122.52C205.493 122.816 205.101 123.229 204.83 123.72C204.565 124.19 204.424 124.72 204.42 125.26C204.41 125.658 204.496 126.053 204.67 126.411C204.844 126.769 205.101 127.081 205.42 127.32C206.141 127.862 207.029 128.134 207.93 128.09L216.85 128.1ZM211.14 106.35C210.229 106.322 209.322 106.477 208.472 106.805C207.622 107.133 206.846 107.627 206.19 108.26C204.924 109.531 204.213 111.251 204.213 113.045C204.213 114.839 204.924 116.559 206.19 117.83C207.54 119.059 209.299 119.74 211.125 119.74C212.95 119.74 214.71 119.059 216.06 117.83C217.328 116.56 218.041 114.839 218.041 113.045C218.041 111.25 217.328 109.529 216.06 108.26C215.407 107.632 214.636 107.14 213.791 106.812C212.947 106.484 212.045 106.327 211.14 106.35Z" fill="white"/>
<path d="M254.35 106.73H247V120.28C247 122.81 248.32 124.07 250.94 124.07C252.138 124.056 253.314 123.743 254.36 123.16V127.05C253.038 127.74 251.562 128.084 250.07 128.05C249.103 128.17 248.12 128.069 247.197 127.754C246.275 127.439 245.435 126.918 244.743 126.232C244.051 125.545 243.523 124.71 243.201 123.79C242.878 122.87 242.768 121.889 242.88 120.92V106.72H238.47V103H242.88V96.4199H247V103H254.36L254.35 106.73Z" fill="white"/>
<path d="M270.13 128.06C267.802 128.088 265.506 127.509 263.47 126.38C261.507 125.303 259.88 123.704 258.77 121.76C257.655 119.766 257.07 117.519 257.07 115.235C257.07 112.95 257.655 110.704 258.77 108.71C259.883 106.768 261.509 105.169 263.47 104.09C265.509 102.968 267.803 102.393 270.13 102.42C271.844 102.375 273.549 102.678 275.142 103.311C276.735 103.943 278.184 104.892 279.4 106.1C281.806 108.533 283.156 111.818 283.156 115.24C283.156 118.662 281.806 121.946 279.4 124.38C278.182 125.586 276.733 126.533 275.141 127.165C273.548 127.798 271.843 128.102 270.13 128.06ZM270.13 124.06C271.289 124.093 272.441 123.885 273.515 123.449C274.589 123.014 275.562 122.36 276.37 121.53C277.976 119.823 278.87 117.568 278.87 115.225C278.87 112.881 277.976 110.626 276.37 108.92C274.691 107.295 272.447 106.386 270.11 106.386C267.774 106.386 265.529 107.295 263.85 108.92C262.237 110.623 261.339 112.879 261.339 115.225C261.339 117.57 262.237 119.827 263.85 121.53C264.665 122.363 265.644 123.019 266.725 123.456C267.806 123.893 268.965 124.102 270.13 124.07V124.06Z" fill="white"/>
<path d="M49.11 194.77C48.0541 194.775 47.0088 194.56 46.04 194.14V190.44C46.7789 190.798 47.5893 190.982 48.41 190.98C50.55 190.98 51.62 189.877 51.62 187.67V160.6H55.74V188.1C55.7878 188.991 55.6587 189.883 55.36 190.724C55.0614 191.565 54.5992 192.339 54 193C53.3476 193.611 52.5777 194.084 51.737 194.388C50.8964 194.692 50.0026 194.822 49.11 194.77ZM53.68 155.7C53.1345 155.7 52.6012 155.539 52.1463 155.238C51.6915 154.937 51.3353 154.509 51.1221 154.007C50.9088 153.505 50.8481 152.951 50.9473 152.415C51.0465 151.878 51.3013 151.383 51.68 150.99C51.9439 150.733 52.2572 150.532 52.601 150.4C52.9448 150.268 53.3119 150.206 53.68 150.22C54.048 150.208 54.4146 150.27 54.7581 150.402C55.1017 150.535 55.4152 150.734 55.68 150.99C56.1937 151.515 56.4813 152.221 56.4813 152.955C56.4813 153.69 56.1937 154.395 55.68 154.92C55.417 155.179 55.1041 155.382 54.7602 155.516C54.4164 155.65 54.0489 155.713 53.68 155.7Z" fill="white"/>
<path d="M74.21 185.66C71.8868 185.694 69.5949 185.122 67.56 184C65.597 182.923 63.9703 181.324 62.86 179.38C61.7451 177.386 61.1597 175.14 61.1597 172.855C61.1597 170.571 61.7451 168.324 62.86 166.33C63.9732 164.388 65.5992 162.79 67.56 161.71C69.5919 160.576 71.8829 159.987 74.21 160C75.9238 159.954 77.6292 160.256 79.2227 160.889C80.8161 161.521 82.2645 162.471 83.48 163.68C85.8861 166.114 87.2355 169.398 87.2355 172.82C87.2355 176.242 85.8861 179.527 83.48 181.96C82.2648 183.171 80.8169 184.123 79.2237 184.759C77.6305 185.395 75.9249 185.702 74.21 185.66ZM74.21 181.66C75.37 181.693 76.5243 181.485 77.6 181.05C78.6757 180.614 79.6495 179.961 80.46 179.13C82.066 177.424 82.9602 175.169 82.9602 172.825C82.9602 170.482 82.066 168.227 80.46 166.52C78.7808 164.892 76.5339 163.982 74.195 163.982C71.8561 163.982 69.6091 164.892 67.93 166.52C66.3173 168.223 65.4185 170.48 65.4185 172.825C65.4185 175.171 66.3173 177.427 67.93 179.13C68.7457 179.963 69.7244 180.618 70.805 181.055C71.8856 181.492 73.0448 181.702 74.21 181.67V181.66Z" fill="white"/>
<path d="M94.7002 155.7C94.3314 155.713 93.9639 155.65 93.62 155.516C93.2762 155.382 92.9632 155.179 92.7002 154.92C92.1866 154.395 91.8989 153.69 91.8989 152.955C91.8989 152.221 92.1866 151.515 92.7002 150.99C92.9651 150.735 93.2786 150.535 93.6221 150.402C93.9657 150.27 94.3323 150.208 94.7002 150.22C95.0589 150.21 95.416 150.273 95.7496 150.405C96.0831 150.538 96.3862 150.737 96.6402 150.99C97.1446 151.52 97.4259 152.224 97.4259 152.955C97.4259 153.687 97.1446 154.39 96.6402 154.92C96.3874 155.176 96.0848 155.377 95.7511 155.511C95.4174 155.645 95.0597 155.71 94.7002 155.7ZM92.6402 185.07V160.6H96.7602V185.07H92.6402Z" fill="white"/>
<path d="M116.66 160C117.992 159.916 119.327 160.117 120.576 160.591C121.824 161.064 122.957 161.799 123.898 162.746C124.839 163.693 125.567 164.83 126.033 166.081C126.499 167.332 126.692 168.668 126.6 170V185.12H122.47V171.24C122.513 170.278 122.364 169.318 122.031 168.414C121.698 167.511 121.188 166.683 120.53 165.98C119.845 165.307 119.029 164.783 118.133 164.439C117.236 164.094 116.279 163.938 115.32 163.98C114.326 163.929 113.333 164.08 112.4 164.423C111.466 164.767 110.612 165.297 109.89 165.98C109.209 166.682 108.681 167.517 108.337 168.432C107.993 169.347 107.841 170.324 107.89 171.3V185.03H103.76V160.6H107.89V164.33C109.843 161.444 112.766 160 116.66 160Z" fill="white"/>
<path d="M159.22 164.33H151.86V177.88C151.86 180.413 153.173 181.677 155.8 181.67C156.998 181.656 158.174 181.344 159.22 180.76V184.65C157.898 185.34 156.422 185.684 154.93 185.65C153.962 185.772 152.979 185.672 152.055 185.358C151.131 185.044 150.291 184.523 149.599 183.836C148.906 183.149 148.378 182.313 148.056 181.392C147.734 180.471 147.626 179.489 147.74 178.52V164.32H143.33V160.6H147.74V154H151.86V160.58H159.22V164.33Z" fill="white"/>
<path d="M177.43 160C178.756 159.917 180.085 160.116 181.328 160.586C182.571 161.055 183.7 161.784 184.64 162.723C185.58 163.662 186.31 164.79 186.78 166.033C187.251 167.275 187.452 168.604 187.37 169.93V185.05H183.24V171.24C183.283 170.281 183.134 169.324 182.8 168.424C182.467 167.524 181.957 166.699 181.3 166C180.616 165.328 179.802 164.804 178.907 164.46C178.013 164.116 177.057 163.96 176.1 164C175.105 163.948 174.11 164.099 173.175 164.443C172.24 164.787 171.384 165.316 170.66 166C169.979 166.702 169.451 167.537 169.107 168.452C168.763 169.367 168.611 170.344 168.66 171.32V185.05H164.53V150.5H168.66V164.5C169.601 163.049 170.906 161.87 172.445 161.081C173.984 160.291 175.702 159.919 177.43 160Z" fill="white"/>
<path d="M218.1 172.84C218.1 173.067 218.06 173.677 217.98 174.67H196.91C197.273 176.722 198.367 178.573 199.99 179.88C201.692 181.233 203.817 181.942 205.99 181.88C207.665 181.897 209.321 181.517 210.82 180.77C212.187 180.113 213.368 179.126 214.26 177.9L217.1 180.33C215.842 182.003 214.199 183.348 212.31 184.25C210.294 185.212 208.084 185.702 205.85 185.68C204.09 185.732 202.336 185.431 200.694 184.794C199.052 184.157 197.555 183.196 196.29 181.97C195.044 180.788 194.061 179.357 193.403 177.771C192.744 176.184 192.427 174.477 192.47 172.76C192.441 170.49 193.017 168.253 194.14 166.28C195.237 164.36 196.838 162.776 198.77 161.7C200.774 160.584 203.036 160.011 205.33 160.04C207.612 160.012 209.86 160.584 211.85 161.7C213.776 162.785 215.364 164.38 216.44 166.31C217.556 168.304 218.128 170.556 218.1 172.84ZM205.28 163.84C203.26 163.804 201.297 164.516 199.77 165.84C198.225 167.153 197.194 168.97 196.86 170.97H213.71C213.386 168.963 212.358 167.137 210.81 165.82C209.273 164.5 207.307 163.785 205.28 163.81V163.84Z" fill="white"/>
<path d="M62.8499 243.26C60.5216 243.288 58.2262 242.709 56.1899 241.58C54.2269 240.503 52.6001 238.904 51.4899 236.96C50.3749 234.966 49.7896 232.72 49.7896 230.435C49.7896 228.151 50.3749 225.904 51.4899 223.91C52.603 221.968 54.229 220.37 56.1899 219.29C58.2287 218.168 60.523 217.593 62.8499 217.62C65.1426 217.592 67.4031 218.161 69.4099 219.27C71.3169 220.325 72.9029 221.877 73.9999 223.76L70.4099 225.91C69.6653 224.597 68.5806 223.509 67.2699 222.76C65.9158 221.985 64.3799 221.585 62.8199 221.6C61.6346 221.56 60.4535 221.759 59.3468 222.185C58.24 222.611 57.2303 223.256 56.3778 224.08C55.5252 224.904 54.8473 225.892 54.3842 226.984C53.9212 228.075 53.6826 229.249 53.6826 230.435C53.6826 231.621 53.9212 232.795 54.3842 233.887C54.8473 234.978 55.5252 235.966 56.3778 236.79C57.2303 237.615 58.24 238.259 59.3468 238.685C60.4535 239.111 61.6346 239.31 62.8199 239.27C64.3813 239.287 65.9184 238.882 67.2699 238.1C68.5831 237.35 69.6683 236.258 70.4099 234.94L73.9999 237.09C72.8951 238.989 71.2946 240.551 69.3699 241.61C67.3746 242.712 65.1289 243.28 62.8499 243.26Z" fill="white"/>
<path d="M79 242.67V208.1H83.12V242.67H79Z" fill="white"/>
<path d="M108.84 240.43C106.642 242.377 103.773 243.392 100.84 243.26C97.8901 243.403 95.0014 242.387 92.7899 240.43C91.7861 239.473 90.9989 238.312 90.4814 237.025C89.964 235.739 89.7282 234.356 89.7899 232.97V218.2H93.9099V232.41C93.8682 233.33 94.0162 234.249 94.3448 235.109C94.6734 235.969 95.1755 236.752 95.8199 237.41C97.2227 238.623 99.0153 239.291 100.87 239.291C102.725 239.291 104.517 238.623 105.92 237.41C106.566 236.754 107.07 235.971 107.398 235.11C107.727 234.25 107.874 233.33 107.83 232.41V218.2H111.96V233C112.003 234.39 111.747 235.773 111.209 237.055C110.671 238.337 109.863 239.488 108.84 240.43Z" fill="white"/>
<path d="M132.13 217.62C133.767 217.579 135.395 217.886 136.905 218.52C138.415 219.155 139.773 220.102 140.89 221.3C143.155 223.806 144.409 227.063 144.409 230.44C144.409 233.817 143.155 237.075 140.89 239.58C139.772 240.776 138.413 241.722 136.903 242.356C135.394 242.991 133.767 243.299 132.13 243.26C130.227 243.285 128.348 242.828 126.67 241.93C125.054 241.061 123.679 239.803 122.67 238.27V242.67H118.54V208.1H122.67V222.61C123.679 221.074 125.053 219.813 126.67 218.94C128.351 218.05 130.228 217.596 132.13 217.62ZM131.35 239.27C132.516 239.303 133.676 239.095 134.759 238.66C135.841 238.225 136.822 237.571 137.64 236.74C138.896 235.504 139.754 233.921 140.103 232.194C140.453 230.467 140.279 228.675 139.603 227.048C138.927 225.421 137.78 224.033 136.309 223.062C134.839 222.091 133.112 221.582 131.35 221.6C130.193 221.57 129.043 221.779 127.971 222.215C126.899 222.65 125.928 223.302 125.12 224.13C123.525 225.842 122.638 228.095 122.638 230.435C122.638 232.775 123.525 235.028 125.12 236.74C125.927 237.57 126.897 238.224 127.969 238.659C129.042 239.095 130.193 239.303 131.35 239.27Z" fill="white"/>
<path d="M153.15 233.23V231.68C153.159 230.583 153.437 229.504 153.96 228.54C154.497 227.529 155.17 226.597 155.96 225.77C156.72 224.96 157.49 224.16 158.25 223.37C159.016 222.603 159.688 221.747 160.25 220.82C160.761 219.999 161.041 219.056 161.06 218.09C161.076 217.42 160.938 216.755 160.657 216.147C160.376 215.538 159.96 215.002 159.44 214.58C158.285 213.64 156.828 213.153 155.34 213.21C153.799 213.213 152.287 213.627 150.96 214.41C149.543 215.225 148.332 216.354 147.42 217.71L144.54 214.87C145.763 213.056 147.411 211.57 149.34 210.54C151.262 209.499 153.415 208.959 155.6 208.97C158.199 208.881 160.734 209.786 162.69 211.5C163.591 212.272 164.311 213.233 164.798 214.315C165.285 215.397 165.529 216.573 165.51 217.76C165.509 218.661 165.36 219.556 165.07 220.41C164.794 221.221 164.41 221.991 163.93 222.7C163.456 223.399 162.938 224.067 162.38 224.7C161.807 225.366 161.237 225.976 160.67 226.53C160.1 227.11 159.59 227.67 159.13 228.22C158.679 228.743 158.296 229.32 157.99 229.94C157.703 230.486 157.549 231.093 157.54 231.71V233.26L153.15 233.23ZM157.46 242.14C157.179 242.422 156.844 242.644 156.474 242.792C156.104 242.94 155.708 243.011 155.31 243C154.911 243.007 154.514 242.935 154.143 242.788C153.772 242.64 153.435 242.42 153.15 242.14C152.866 241.866 152.642 241.536 152.492 241.171C152.342 240.806 152.27 240.414 152.28 240.02C152.28 239.218 152.599 238.448 153.166 237.881C153.733 237.313 154.503 236.995 155.305 236.995C156.107 236.995 156.877 237.313 157.444 237.881C158.011 238.448 158.33 239.218 158.33 240.02C158.34 240.414 158.268 240.806 158.118 241.171C157.969 241.536 157.744 241.866 157.46 242.14Z" fill="white"/>
</svg>
