<svg width="186" height="78" viewBox="0 0 186 78" fill="none" xmlns="http://www.w3.org/2000/svg">
<path d="M156.24 51.45C149.37 47.98 142.31 46.39 135.11 45.16C126.72 43.73 118.41 41.88 110.03 40.39C106.03 39.67 101.91 38.84 97.89 39.01C91.89 39.25 85.89 37.17 79.89 38.73C73.89 40.29 68.07 41.93 63 45.6C59.49 48.14 58.46 50.97 59.69 55.08C60.16 56.63 60.55 58.21 60.88 59.79C61.0547 60.6981 60.9581 61.6374 60.6025 62.491C60.2468 63.3446 59.6478 64.0746 58.88 64.59C56.72 66.31 54.6 65.7 53.39 63.22C51.83 60.04 52.47 57.07 54.12 54.22C54.22 54.04 54.37 53.76 54.51 53.75C58.13 53.42 58.11 50.12 59.63 47.31C57.0217 49.0251 54.5234 50.9021 52.15 52.93C49.9 54.78 50.38 57.69 49.21 59.93C48.93 60.47 48.96 61.18 48.73 61.76C48.12 63.29 47.39 64.86 45.51 65.03C44.554 65.1327 43.589 64.9501 42.7365 64.5052C41.8841 64.0603 41.1825 63.373 40.72 62.53C38.27 58.53 40.21 53.32 44.72 52.97C50.83 52.51 54.85 48.69 59.46 45.56C63.2703 43.0386 67.3913 41.0218 71.72 39.56C72.4653 39.4149 73.1568 39.0692 73.72 38.56C69.3954 38.3674 65.0634 38.7032 60.82 39.56C55.2 40.5 49.53 41.3 44.13 43.18C40.3 44.52 36.32 45.55 33.05 48.18C30.5138 50.1023 28.6318 52.7596 27.66 55.79C27.4607 56.6821 27.6225 57.6168 28.11 58.39C29.3148 60.8725 29.7534 63.6574 29.37 66.39C28.94 68.81 27.24 70.14 25.02 70.82C24.1218 71.121 23.1511 71.1282 22.2485 70.8405C21.3459 70.5528 20.5584 69.9852 20 69.22C18.94 68 18.42 64.75 19.27 63.43C20.49 61.55 21.66 59.56 23.61 58.32C25.11 57.37 25.78 55.7 26.71 54.43C28.17 52.43 29.34 50.16 30.89 48.09C26.12 49.77 21.36 51.4 17.27 54.36C15.13 55.89 14.27 58.46 13.05 60.73C11.9259 62.7767 10.3365 64.5305 8.41004 65.85C6.91004 66.94 5.33003 67.64 3.52003 66.58C2.56654 66.1066 1.77358 65.3629 1.24006 64.4417C0.706553 63.5205 0.456123 62.4626 0.520032 61.4C0.680032 57.96 3.20003 55.2 7.03003 54.4C8.83078 54.0234 10.676 53.9056 12.51 54.05C13.5598 54.2243 14.6378 54.0743 15.6 53.62C17.13 52.76 18.6 51.85 20.19 51.04C21.78 50.23 23.19 49.61 24.64 48.72C23.7941 48.5094 22.914 48.4744 22.0541 48.6172C21.1941 48.7599 20.3725 49.0774 19.64 49.55C16.78 51.47 13.35 52 9.97004 52.23C7.97004 52.37 5.97003 50.08 5.74003 47.66C5.51003 45.24 6.26004 44.29 8.80004 43.66C9.78029 43.3663 10.813 43.2911 11.8255 43.4397C12.8379 43.5883 13.8055 43.957 14.66 44.52C16.1391 45.6084 17.8368 46.3625 19.6359 46.7303C21.435 47.098 23.2926 47.0706 25.08 46.65C28.77 45.76 32.65 45.77 36.19 44.2C36.9968 44.0181 37.7313 43.6004 38.3 43C36.13 42.21 34.05 41.3 31.88 40.7C29.1941 39.9238 26.622 38.7975 24.23 37.35C23.23 36.79 23.23 37.26 23 37.97C22.855 38.5615 22.5164 39.0875 22.0381 39.4644C21.5597 39.8413 20.969 40.0474 20.36 40.05C19.05 40.12 18.43 39.05 17.85 38.05C17.09 36.75 16.36 35.43 15.51 34.19C14.66 32.95 14.44 31.56 15.51 30.33C15.7239 30.018 15.998 29.7519 16.3162 29.5473C16.6343 29.3427 16.9902 29.2037 17.3628 29.1385C17.7354 29.0733 18.1173 29.0832 18.486 29.1676C18.8547 29.252 19.2029 29.4092 19.51 29.63C20.5133 30.2709 21.5957 30.7785 22.73 31.14C25.02 31.89 25.73 33.06 25.56 35.53C25.46 36.86 26.49 37.21 27.34 37.53C30.96 38.88 34.58 40.19 38.25 41.37C40.54 42.1 42.88 41.63 45.15 41.09C57.63 38.15 70.22 36.24 83.09 36.94C83.5146 36.9566 83.9398 36.9331 84.36 36.87C84.7014 36.7735 85.0355 36.6532 85.36 36.51C81.4292 34.5048 77.2824 32.9548 73 31.89C71 31.46 69 30.48 66.86 30.47C63.52 30.47 60.44 31.01 57.92 33.47C56.55 34.7946 54.8518 35.73 53 36.18C52.0798 36.4957 51.0734 36.4455 50.1892 36.0397C49.305 35.6339 48.6107 34.9036 48.25 34C47.9011 33.0672 47.9127 32.0377 48.2826 31.113C48.6525 30.1883 49.354 29.4348 50.25 29C51.1684 28.4529 52.2081 28.1419 53.2761 28.0948C54.344 28.0477 55.407 28.2659 56.37 28.73C59.5 30.3 62.5 29.21 65.59 28.73C63.346 27.6471 60.9786 26.8412 58.54 26.33C57.79 26.15 57.01 26.05 56.29 25.8C55.2612 25.3716 54.1333 25.2383 53.033 25.4149C51.9326 25.5915 50.9031 26.0712 50.06 26.8C46.29 29.71 38.81 29.23 35.15 26.24C34.2605 25.5916 33.6097 24.6679 33.2987 23.6119C32.9878 22.556 33.0339 21.427 33.43 20.4C34.34 18.19 35.95 17.4 38.63 17.53C42.18 17.72 45.12 19.36 47.89 21.31C50.0635 22.8697 52.5573 23.9253 55.19 24.4C57.61 24.84 59.95 25.64 62.34 26.24C63.05 26.41 63.75 26.9 64.6 26.53C63.09 24.08 60.76 22.84 58.25 21.92C55.7703 20.8848 53.548 19.3179 51.74 17.33C51.0378 16.6221 50.5491 15.7308 50.3298 14.7582C50.1105 13.7855 50.1695 12.7707 50.5 11.83C50.6873 11.1825 51.0284 10.5898 51.4943 10.1026C51.9601 9.61546 52.5369 9.24815 53.1753 9.03205C53.8138 8.81595 54.4951 8.75746 55.1611 8.86158C55.827 8.96569 56.458 9.22932 57 9.62999C58.1596 10.3803 59.1261 11.3934 59.821 12.587C60.516 13.7806 60.9199 15.1211 61 16.5C61.41 22.41 65 25.93 69.94 28.33C72.55 29.59 75.31 30.52 78.07 31.63C78.1115 31.3444 78.0758 31.0529 77.9668 30.7856C77.8578 30.5184 77.6794 30.2851 77.45 30.11C74.4981 26.8757 72.1297 23.1539 70.45 19.11C70.01 18.03 69.45 17.79 68.38 18.11C67.6689 18.4295 66.864 18.4712 66.1237 18.2269C65.3834 17.9826 64.7613 17.47 64.38 16.79C63.45 15.24 64.18 13.89 65.29 12.79C65.9389 12.0573 66.4019 11.1793 66.64 10.23C67.35 8.29998 68.37 7.90999 69.98 9.14999C71.26 10.15 72.92 11.02 72.36 13.15C72.18 13.83 72.9 14.06 73.27 14.46C75.11 16.46 75.09 17.24 73.09 18.97C72.8033 19.1773 72.6064 19.4862 72.5395 19.8337C72.4726 20.1811 72.5407 20.541 72.73 20.84C75.4824 26.6836 80.0162 31.5045 85.68 34.61C89.83 36.93 94.38 37.27 98.94 37.54C107.69 38.06 116.19 40.03 124.75 41.69C129.75 42.69 134.81 43.58 139.91 44.31C138.64 42.8 136.79 42.31 135.25 41.41C127.53 36.63 119.72 32.03 110.73 29.97C108.467 29.4171 106.088 29.592 103.93 30.47C101.82 31.33 99.66 32 97.35 31.35C96.7742 31.2452 96.2276 31.018 95.7472 30.6838C95.2667 30.3496 94.8635 29.9162 94.5649 29.4128C94.2663 28.9095 94.0792 28.3479 94.0163 27.766C93.9533 27.1842 94.016 26.5956 94.2 26.04C94.86 23.6 96.68 22.81 99.5 23.38C101.626 23.8064 103.622 24.7242 105.33 26.06C107.68 27.87 110.49 28.55 113.28 29.3L117.65 30.46C117.8 29.53 116.94 29.21 116.4 28.75C112.67 25.52 108.74 22.51 105.2 19.06C104.254 18.3115 103.076 17.9186 101.87 17.95C98.9386 17.6033 96.0705 16.8459 93.35 15.7C90.984 14.6134 88.9734 12.8801 87.55 10.7C87.0186 9.91066 86.659 9.01845 86.4946 8.08121C86.3302 7.14398 86.3646 6.18266 86.5956 5.25958C86.8267 4.3365 87.2491 3.47228 87.8356 2.72297C88.4221 1.97365 89.1595 1.35597 90 0.909984C92.3 -0.280016 96.05 0.979983 97.71 3.62998C98.8426 5.32868 99.8199 7.12594 100.63 8.99998C101.84 12.08 104.14 14.55 105.3 17.65C105.628 18.2757 106.097 18.8166 106.67 19.23C110.584 22.7957 114.679 26.1569 118.94 29.3C119.43 29.65 119.86 30.1 120.39 30.56C119.762 27.4217 117.977 24.6341 115.39 22.75C112.493 20.6955 110.305 17.7917 109.13 14.44C108.793 13.3966 108.759 12.2791 109.032 11.2172C109.305 10.1552 109.872 9.19229 110.67 8.43998C112.11 6.86998 114.01 6.75998 115.96 7.24998C117.91 7.73998 119.77 11.25 119.6 14.02C119.46 16.4 118.53 18.69 118.73 21.13C119.2 26.81 121.73 31.43 126.63 34.24C131.53 37.05 136.06 40.1 141.03 42.64C149.8 47.13 159.08 50.1 168.52 52.64C171.982 53.566 175.382 54.7083 178.7 56.06C180.484 56.7028 182.303 57.2404 184.15 57.67C184.58 57.79 185.23 57.85 185.15 58.51C185.15 58.79 184.77 59.07 184.52 59.29C184.08 59.66 183.71 59.69 183.31 59.11C183.132 58.8389 182.872 58.6323 182.568 58.5206C182.263 58.409 181.931 58.3982 181.62 58.49C179 59.55 176.62 58.21 174.36 57.49C169.36 55.89 164.36 54.05 159.1 53.42C153.35 52.72 147.57 52.09 141.91 54.74C138.47 56.35 134.91 57.63 131.91 59.97C131.309 60.4548 130.753 60.9937 130.25 61.58C129.81 62.07 129.47 62.5 130.5 62.9C130.994 63.1035 131.408 63.4627 131.678 63.923C131.949 64.3833 132.062 64.9195 132 65.45C131.943 65.9541 131.713 66.4227 131.347 66.775C130.982 67.1273 130.506 67.3413 130 67.38C128.66 67.64 128.28 68.7 127.73 69.67C127.29 70.5568 126.522 71.2375 125.589 71.5679C124.655 71.8983 123.63 71.8524 122.73 71.44C121.56 70.84 120.86 68.27 121.66 66.72C122.14 65.78 121.85 65.44 121.18 64.85C119.88 63.69 120.11 62.31 121.66 61.45C122.346 61.0002 123.151 60.7665 123.971 60.779C124.791 60.7915 125.588 61.0496 126.26 61.52C126.9 61.96 127.39 62.27 128 61.52C131.25 57.35 136 55.52 140.73 53.52C140.36 52.95 139.87 53.14 139.46 53.15C134.328 53.3017 129.22 53.921 124.2 55C118 56.37 113.34 60.39 109.25 65.09C108.72 65.7 108.95 66.24 109.1 66.86C109.602 68.6987 109.868 70.594 109.89 72.5C109.957 73.4922 109.726 74.4818 109.227 75.3422C108.728 76.2026 107.984 76.8946 107.09 77.33C105.09 78.33 101.42 77.65 100.35 76.24C99.6972 75.3958 99.2986 74.3828 99.2012 73.3201C99.1038 72.2573 99.3115 71.1888 99.8 70.24C100.291 69.0997 101.016 68.0757 101.93 67.2349C102.843 66.394 103.923 65.7551 105.1 65.36C106.558 64.8632 107.872 64.0189 108.93 62.9C110.63 61.22 112.4 59.61 114.13 57.9C114.2 57.83 114.13 57.65 114.19 57.51C109.417 58.7017 104.724 60.1947 100.14 61.98C99.0262 62.5026 98.0756 63.3184 97.39 64.34C94.72 67.47 92.73 71.03 90.39 74.34C88.51 76.97 83.28 76.46 81.77 73.61C79.31 68.97 80.43 65.5 85.55 63.4C86.1189 63.1101 86.7424 62.9431 87.38 62.91C95.14 63.34 101.78 59.49 108.84 57.3C110.71 56.72 112.71 56.51 114.94 55.3C109.6 54.67 104.83 54.39 100.47 57.3C99.1567 58.2105 97.5839 58.6714 95.9868 58.6137C94.3897 58.556 92.8543 57.9829 91.61 56.98C89.01 54.78 89.35 51.5 92.38 49.98C96.02 48.18 99.67 48.7 103.05 50.53C105.93 51.9999 109.031 52.9896 112.23 53.46C119.45 54.78 126.23 52.77 133.14 51.98C140.509 51.1902 147.929 50.9895 155.33 51.38C155.632 51.4225 155.936 51.4458 156.24 51.45Z" fill="#FEFEFE"/>
<path d="M100.57 12.68C98.6635 11.3503 97.0446 9.64974 95.8102 7.68004C95.5002 7.22004 95.1902 6.74004 94.8102 6.31004C94.4302 5.88004 93.8902 5.50004 93.3702 5.99004C92.8502 6.48004 93.4502 6.90004 93.7202 7.20004C96.2602 9.99004 98.8402 12.74 101.4 15.51C101.63 15.7805 101.844 16.0643 102.04 16.36C97.3902 17.36 89.8002 13.51 87.9802 9.28004C86.9802 6.87004 88.7402 2.71004 91.2102 1.88004C91.5785 1.75239 91.9698 1.70508 92.3579 1.74131C92.746 1.77753 93.1219 1.89644 93.4602 2.09004C94.2899 2.4763 95.0609 2.97793 95.7502 3.58004C98.2202 6.17004 99.3802 9.43004 100.57 12.68Z" fill="#020202"/>
<path d="M91.4102 64.3101C89.9502 65.5001 88.8702 66.3701 87.8102 67.3101C87.3802 67.6801 86.8702 68.1701 87.2702 68.7301C87.8702 69.5801 88.1502 68.6101 88.5302 68.3601C89.8802 67.4901 91.2002 66.5701 92.5302 65.7401C92.9102 65.5001 93.5302 65.2001 93.8502 65.7401C94.1702 66.2801 93.7802 66.5301 93.5402 66.8901C92.2702 68.8101 90.9802 70.7101 89.7602 72.6601C89.2936 73.462 88.5833 74.0943 87.7326 74.4647C86.8819 74.8352 85.9352 74.9247 85.0302 74.7201C84.1543 74.5385 83.3596 74.0814 82.7622 73.4156C82.1648 72.7499 81.7962 71.9104 81.7102 71.0201C81.4882 70.1272 81.535 69.1886 81.8445 68.3222C82.1541 67.4558 82.7127 66.7001 83.4502 66.1501C85.7102 64.4101 88.1602 64.0001 91.4102 64.3101Z" fill="#040404"/>
<path d="M46.4998 22.5801C44.9398 22.2501 43.3799 21.9601 41.8299 21.5801C41.5356 21.4669 41.2155 21.4387 40.906 21.4989C40.5966 21.559 40.3103 21.705 40.0799 21.9201C39.993 22.0243 39.9307 22.1468 39.8978 22.2784C39.8649 22.41 39.8622 22.5473 39.8898 22.6801C40.2098 23.3801 40.8899 23.3301 41.5199 23.3101C43.9836 23.2793 46.4358 23.6509 48.7798 24.4101C49.2998 24.5701 50.0298 24.7401 50.0898 25.3201C50.1498 25.9001 49.4999 26.2301 48.9599 26.4101C45.2373 27.8281 41.1173 27.7924 37.4198 26.3101C36.7671 26.0372 36.1914 25.6081 35.7432 25.0606C35.2951 24.5131 34.9883 23.864 34.8498 23.1701C34.1398 20.3901 36.2698 18.3001 39.3998 19.0201C42.0564 19.5089 44.519 20.7437 46.4998 22.5801Z" fill="#050505"/>
<path d="M13.0001 57.2001C12.1452 59.8528 10.5865 62.2237 8.49014 64.0601C6.49014 65.8301 4.62014 65.9601 2.99014 64.5901C2.19148 63.8253 1.69295 62.7998 1.58473 61.6993C1.47651 60.5988 1.76576 59.4959 2.40014 58.5901C4.01014 56.0401 9.24014 54.5101 12.2501 55.7801C10.8201 57.0001 9.39014 58.0501 8.00014 59.2001C7.37014 59.7301 5.93014 60.2001 6.68014 61.1301C7.43014 62.0601 8.21014 60.6401 8.87014 60.1301C10.0728 58.9288 11.4689 57.9383 13.0001 57.2001Z" fill="#030303"/>
<path d="M117.26 19.5099C116.36 17.5501 115.689 15.4932 115.26 13.3799C115.04 12.4399 114.49 12.1099 113.81 12.3799C112.92 12.7499 113.6 13.3799 113.81 13.8999C114.213 14.7931 114.567 15.7078 114.87 16.6399C115.384 18.1745 115.781 19.7456 116.06 21.3399C114.522 20.4298 113.193 19.2062 112.159 17.7486C111.125 16.291 110.41 14.6321 110.06 12.8799C109.72 11.2499 111.65 8.92987 113.2 8.61987C115.55 8.14987 116.84 8.92987 117.71 11.2599C118.75 13.9999 118.23 16.5099 117.26 19.5099Z" fill="#050505"/>
<path d="M25 59.6001C24.64 60.7201 24.21 61.8201 24 62.9601C23.85 63.6301 23.3 64.7601 24.31 64.9601C25.32 65.1601 25.23 63.9601 25.31 63.2501C25.305 61.9415 25.7419 60.6694 26.55 59.6401C27.2062 60.5793 27.6575 61.6461 27.8745 62.7711C28.0916 63.8961 28.0696 65.0542 27.81 66.1701C27.715 66.942 27.3848 67.666 26.8642 68.2438C26.3436 68.8217 25.6579 69.2253 24.9 69.4001C24.2139 69.6387 23.4707 69.6591 22.7724 69.4586C22.0742 69.2581 21.4551 68.8464 21 68.2801C20.4437 67.6349 20.0915 66.8389 19.9882 65.9932C19.885 65.1475 20.0353 64.2902 20.42 63.5301C20.8706 62.5942 21.5102 61.7619 22.2985 61.0855C23.0868 60.4091 24.0066 59.9033 25 59.6001Z" fill="#070707"/>
<path d="M44.4502 59.5098C46.0502 58.5098 46.7902 56.7998 48.8302 55.8798C48.1002 58.6798 47.6302 61.2298 45.7302 63.1598C44.9102 63.9998 42.7302 63.3498 41.8402 62.1598C41.2782 61.2659 40.9668 60.2373 40.9386 59.1817C40.9105 58.1261 41.1666 57.0824 41.6802 56.1598C42.5502 54.8098 45.6802 53.4898 47.2002 53.8198C48.2002 54.0298 47.8602 54.5298 47.4402 54.9698C46.8102 55.6398 46.0902 56.2198 45.4902 56.8998C44.8902 57.5798 44.1002 58.1498 44.4502 59.5098Z" fill="#080808"/>
<path d="M103.48 52.9998L97.7799 53.5598C97.1399 53.6198 96.2499 53.6798 96.2599 54.3798C96.2599 55.3798 97.2599 54.8598 97.7699 54.9098C98.6699 54.9998 99.5899 54.9098 100.58 54.9098C98.3199 57.0498 95.5799 57.6398 93.1499 56.4798C92.5896 56.2559 92.1043 55.8778 91.7503 55.3893C91.3963 54.9008 91.1881 54.3219 91.1499 53.7198C91.1236 53.181 91.2774 52.6487 91.587 52.207C91.8966 51.7652 92.3444 51.439 92.8599 51.2798C94.5411 50.6415 96.3469 50.3996 98.1368 50.5731C99.9267 50.7465 101.652 51.3305 103.18 52.2798C103.3 52.4298 103.33 52.6998 103.48 52.9998Z" fill="#060606"/>
<path d="M105.43 67.3198C104.2 68.5198 104.15 70.3698 103.04 71.5998C102.975 71.661 102.925 71.7366 102.895 71.8204C102.865 71.9043 102.855 71.9941 102.865 72.0826C102.876 72.1711 102.907 72.2558 102.957 72.33C103.006 72.4042 103.072 72.4658 103.15 72.5098C103.276 72.5754 103.414 72.6135 103.556 72.6214C103.697 72.6294 103.839 72.6071 103.972 72.556C104.104 72.5049 104.224 72.4262 104.324 72.3251C104.424 72.2241 104.501 72.103 104.55 71.9698C105.082 70.9026 105.729 69.8966 106.48 68.9698C106.7 68.6698 106.7 68.0598 107.28 68.2298C107.63 68.3198 107.77 68.6798 107.84 69.0498C108.167 70.3564 108.285 71.7064 108.19 73.0498C107.99 74.4098 107.44 75.7498 106 76.1198C105.191 76.3981 104.319 76.4406 103.487 76.2423C102.655 76.044 101.896 75.6131 101.3 74.9998C100.838 74.4617 100.556 73.7925 100.493 73.086C100.43 72.3795 100.59 71.671 100.95 71.0598C101.304 70.0988 101.904 69.2476 102.69 68.5913C103.476 67.935 104.421 67.4965 105.43 67.3198Z" fill="#040404"/>
<path d="M59.7599 18.44C58.631 17.7698 57.7448 16.7576 57.2299 15.55C57.0299 15.14 56.9999 14.55 56.2299 14.69C55.9925 14.7581 55.772 14.8751 55.5825 15.0336C55.3931 15.192 55.2389 15.3884 55.1299 15.61C54.7099 16.25 55.2799 16.49 55.6499 16.75C57.0732 17.7242 58.1983 19.0743 58.8999 20.65C56.0099 19.43 53.5699 18.22 52.2099 15.56C51.2099 13.69 51.5799 11.96 53.1299 10.86C54.6799 9.75997 55.8599 10.78 57.0499 11.71C59.2399 13.4 59.3899 15.85 59.7599 18.44Z" fill="#050505"/>
<path d="M15.9999 47.2399L11.3099 47.4899C12.9799 49.0699 15.0299 48.6099 16.9699 48.9099C14.0499 51.4299 9.40988 51.5199 7.77989 49.1599C6.47989 47.2699 7.21989 45.5999 9.47989 45.1599C11.7399 44.7199 13.7399 45.5699 15.9999 47.2399Z" fill="#0A0A0A"/>
<path d="M56.9098 54.73C57.3649 55.835 57.3649 57.075 56.9098 58.18C56.5598 59.29 56.6098 60 58.0098 59.28C59.4098 58.56 59.6098 59.54 59.4098 60.47C59.2054 61.3567 58.7943 62.1825 58.2098 62.88C56.9198 64.4 55.5198 64.18 54.4998 62.43C52.6098 59.23 53.6998 55.77 56.9098 54.73Z" fill="#050505"/>
<path d="M104.23 27.17C102.23 28.17 100.89 26.35 98.96 26.72C100.12 28.23 101.7 28.4 103.27 28.72C100.9 30.49 98.55 30.72 96.63 29.45C96.059 29.1542 95.6123 28.6644 95.3703 28.0686C95.1283 27.4728 95.107 26.8102 95.31 26.2C95.73 24.75 96.89 24.47 98.16 24.65C100.333 25.0694 102.399 25.9268 104.23 27.17Z" fill="#090909"/>
<path d="M56.17 30.2201C55.37 30.6201 54.33 30.4901 54.1 31.7501L56.89 32.1101C55.5625 33.2666 54.0244 34.1562 52.36 34.7301C50.65 35.4101 49.75 34.1801 49.17 33.0801C49.0531 32.8176 48.9941 32.5329 48.9972 32.2455C49.0002 31.9581 49.0652 31.6748 49.1876 31.4147C49.31 31.1547 49.487 30.9241 49.7066 30.7387C49.9262 30.5532 50.1831 30.4173 50.46 30.3401C52.27 29.5801 54.18 29.1101 56.17 30.2201Z" fill="#060606"/>
<path d="M123.12 62.21C124.12 62.48 125.55 62.27 125.78 63.54C125.96 64.54 124.78 64.83 124.01 64.81C123.01 64.81 122.01 64.43 121.76 63.32C121.58 62.37 122.52 62.36 123.12 62.21Z" fill="#181818"/>
<path d="M49.4601 16.6598C49.4601 17.2798 49.2101 17.9698 48.8001 17.8698C47.7577 17.6543 46.7749 17.2141 45.9201 16.5798C45.6501 16.3598 46.0101 14.8298 46.9201 14.8598C47.4595 14.926 47.9739 15.1251 48.4173 15.4393C48.8606 15.7535 49.219 16.1729 49.4601 16.6598Z" fill="#ECECEC"/>
<path d="M46.94 20.3901C46.81 21.3101 46.12 21.4901 45.43 21.5601C44.28 21.6601 44.08 20.7901 43.99 19.9401C43.93 19.4001 43.93 18.7001 44.76 18.7901C45.241 18.8108 45.705 18.974 46.0931 19.2589C46.4813 19.5437 46.776 19.9374 46.94 20.3901Z" fill="#ECECEC"/>
<path d="M127.52 65.5102C127.52 64.7602 127.71 63.9902 128.52 63.8802C128.942 63.8153 129.373 63.9107 129.728 64.1476C130.084 64.3844 130.338 64.7457 130.44 65.1602C130.75 66.1602 130 66.1602 129.36 66.2202C128.72 66.2802 127.78 66.6502 127.52 65.5102Z" fill="#191919"/>
<path d="M17.1802 31.2398C17.7602 31.2398 18.6702 31.1198 18.6002 31.7198C18.5002 32.4998 18.2302 33.6098 17.2702 33.7898C16.9187 33.8019 16.5748 33.6858 16.3025 33.4632C16.0303 33.2406 15.8482 32.9266 15.7902 32.5798C15.6002 31.5498 16.4902 31.4098 17.1802 31.2398Z" fill="#141414"/>
<path d="M21.3898 36.9999C21.3098 37.7099 21.2398 38.3499 20.3898 38.3799C19.3298 38.3799 18.9698 37.7299 18.7898 36.8499C18.6598 36.1899 18.8798 35.6999 19.5798 35.6899C19.9857 35.6688 20.3867 35.7872 20.716 36.0255C21.0452 36.2639 21.283 36.6077 21.3898 36.9999Z" fill="#121212"/>
<path d="M49.2902 20.7598C49.2902 20.2898 49.0902 19.7598 49.7602 19.7598C50.2239 19.7858 50.6689 19.9516 51.0366 20.2354C51.4044 20.5192 51.6775 20.9077 51.8202 21.3498C52.0702 22.0498 51.3502 22.2798 50.8202 22.3498C49.5502 22.4998 49.6002 21.4198 49.2902 20.7598Z" fill="#E7E7E7"/>
<path d="M24.26 34.2899C24.26 34.7999 23.96 34.9999 23.59 34.9399C23.0961 34.9296 22.6195 34.7564 22.2342 34.4471C21.849 34.1379 21.5768 33.7099 21.46 33.2299C21.4407 33.1419 21.4433 33.0505 21.4676 32.9637C21.4919 32.8769 21.5372 32.7974 21.5994 32.7323C21.6616 32.6671 21.7389 32.6182 21.8245 32.5899C21.91 32.5615 22.0012 32.5547 22.09 32.5699C22.5712 32.64 23.0253 32.836 23.4064 33.1381C23.7874 33.4401 24.0819 33.8375 24.26 34.2899Z" fill="#1F1F1F"/>
<path d="M126.06 67.8902C125.796 68.267 125.43 68.5611 125.005 68.7381C124.58 68.9152 124.114 68.9679 123.66 68.8902C123.605 68.8149 123.566 68.7286 123.547 68.6372C123.528 68.5457 123.529 68.4512 123.55 68.3602C123.672 68.1511 123.838 67.9708 124.036 67.8315C124.234 67.6921 124.46 67.5969 124.698 67.5523C124.936 67.5077 125.181 67.5148 125.416 67.5731C125.651 67.6314 125.87 67.7395 126.06 67.8902Z" fill="#1C1C1C"/>
</svg>
