<svg width="584" height="585" viewBox="0 0 584 585" fill="none" xmlns="http://www.w3.org/2000/svg">
<path d="M1.47436 263.137C19.2016 140.52 104.366 40.6461 216.212 10.6887C216.212 10.6887 402.949 -50.6999 527.556 120.761C528.981 122.723 532.11 124.735 530.846 127.082C529.609 129.38 526.152 127.997 523.714 127.99C461.816 127.704 399.91 127.326 338.012 126.977C329.595 126.928 329.735 126.342 334.002 133.864C340.547 145.396 347.141 156.914 353.469 168.564C355.257 171.861 357.366 173.027 361.138 173.055C385.801 173.244 410.471 173.691 435.134 174.082C440.806 174.173 440.882 174.215 441.015 179.816C441.749 211.925 442.384 244.041 443.229 276.15C443.334 280.222 442.077 283.106 439.171 285.893C414.341 309.718 385.124 316.514 352.163 308.258C335.742 304.144 320.899 296.398 306.874 287.039C306.294 286.655 305.707 286.263 305.177 285.816C300.203 281.695 300.148 280.948 304.576 276.143C315.123 264.716 322.338 251.717 323.497 235.897C324.517 221.997 321.074 208.999 314.431 196.999C295.866 163.458 269.233 139.557 231.942 128.269C203.465 119.657 174.954 117.233 146.044 125.643C132.291 129.645 119.635 135.953 107.928 144.174C102.466 148.008 102.536 148.008 107.048 153.386C116.17 164.262 125.25 175.165 134.331 186.082C137.97 190.461 137.949 190.51 143.55 188.359C165.734 179.844 188.239 172.413 211.763 168.543C222.813 166.727 233.933 165.721 245.129 167.174C247.888 167.53 250.619 168.131 253.35 168.704C260.174 170.143 264.805 174.11 268.13 180.312C281.617 205.471 276.434 230.756 253.574 249.538C241.19 259.708 226.948 266.511 212.056 272.071C200.706 276.303 189.091 279.635 177.3 282.415C172.271 283.602 172.306 283.735 175.233 288.01C182.595 298.759 190.048 309.453 197.235 320.321C199.386 323.576 201.307 325.14 205.644 324.183C227.081 319.448 247.769 312.547 267.697 303.411C270.875 301.951 272.816 301.539 275.359 304.431C284.872 315.25 292.946 326.928 295.454 341.366C298.918 361.342 294.574 379.46 279.724 393.926C270.218 403.194 258.044 407.462 245.031 408.698C220.368 411.045 197.388 406.1 176.735 391.83C157.632 378.629 141.525 362.194 126.144 344.991C116.834 334.577 108.11 323.681 99.6724 312.54C96.7737 308.719 96.6899 308.796 93.9729 312.659C90.2221 317.988 86.625 323.429 82.6297 328.57C80.667 331.098 80.2828 333.285 81.4912 336.19C84.0057 342.225 86.8555 348.092 90.3059 353.61C111.875 388.08 138.431 418.093 171.014 442.518C195.775 461.077 223.623 471.351 254.789 470.597C294.895 469.619 322.904 449.95 339.213 413.581C345.604 399.325 345.758 384.231 343.397 369.018C341.86 359.128 338.633 349.692 335.197 339.627C337.495 339.85 338.396 341.17 339.485 342.106C349.068 350.292 359.161 357.731 370.595 363.193C376.924 366.217 383.468 368.641 390.39 369.787C409.919 373.007 426.152 366.902 439.206 352.136C440.589 350.572 441.86 348.916 443.215 347.261C445.36 348.197 444.375 350.062 444.375 351.445C444.431 412.889 444.368 474.341 444.535 535.785C444.549 540.227 442.81 542.337 439.255 544.383C384.746 575.842 326.117 588.855 263.555 582.834C171.07 573.936 90.697 522.102 43.6899 446.136C18.7825 405.884 8.00507 360.427 8.00507 360.427C3.84916 343.042 2.13791 328.5 1.41848 321.243C-0.872501 298.047 -0.041321 278.154 1.47436 263.137Z" fill="#F30000"/>
<path d="M498.319 498.228C496.853 496.111 497.425 494.211 497.411 492.472C496.622 389.399 495.868 286.319 495.113 183.245C495.106 182.079 495.106 180.919 495.099 179.753C495.065 172.691 494.373 172.971 501.812 172.866C518.331 172.621 534.842 172.293 551.361 172.042C557.62 171.944 557.634 171.979 560.015 177.595C578.322 220.767 586.166 265.728 582.778 312.532C577.729 382.233 550.984 442.455 503.279 493.429C501.749 495.05 500.073 496.53 498.319 498.228Z" fill="#F30000"/>
</svg>
