<svg width="293" height="293" viewBox="0 0 293 293" fill="none" xmlns="http://www.w3.org/2000/svg">
<path d="M0.738896 131.875C9.62312 70.4238 52.3045 20.3704 108.358 5.35681C108.358 5.35681 201.943 -25.4089 264.392 60.5209C265.106 61.5046 266.674 62.5127 266.041 63.6889C265.421 64.8405 263.688 64.1474 262.467 64.1439C231.445 64.0004 200.42 63.8114 169.399 63.6363C165.181 63.6118 165.251 63.3178 167.39 67.0878C170.67 72.8671 173.974 78.6394 177.146 84.4782C178.042 86.1305 179.099 86.715 180.989 86.729C193.35 86.8235 205.713 87.0476 218.073 87.2436C220.916 87.2891 220.954 87.3101 221.021 90.1175C221.388 106.209 221.707 122.304 222.13 138.396C222.183 140.437 221.553 141.883 220.097 143.279C207.652 155.219 193.01 158.625 176.491 154.488C168.262 152.426 160.823 148.544 153.794 143.853C153.504 143.661 153.209 143.465 152.943 143.241C150.451 141.176 150.423 140.801 152.642 138.393C157.928 132.666 161.544 126.151 162.125 118.223C162.636 111.257 160.911 104.743 157.582 98.7287C148.277 81.9194 134.93 69.9407 116.241 64.2839C101.969 59.9678 87.6804 58.7532 73.1919 62.9678C66.2995 64.9735 59.9566 68.1345 54.0898 72.2545C51.3524 74.1763 51.3874 74.1763 53.6487 76.8717C58.2203 82.3219 62.771 87.7862 67.3216 93.2574C69.1453 95.4522 69.1348 95.4767 71.9422 94.3986C83.0598 90.1315 94.3383 86.407 106.128 84.4677C111.666 83.5576 117.239 83.0535 122.85 83.7816C124.232 83.9602 125.601 84.2612 126.97 84.5482C130.39 85.2693 132.711 87.2576 134.377 90.366C141.136 102.975 138.539 115.647 127.082 125.059C120.876 130.156 113.738 133.566 106.275 136.352C100.587 138.473 94.7654 140.143 88.8566 141.536C86.3362 142.131 86.3537 142.198 87.8204 144.34C91.5099 149.727 95.245 155.086 98.847 160.533C99.9251 162.164 100.888 162.949 103.062 162.469C113.805 160.096 124.173 156.637 134.16 152.059C135.753 151.327 136.726 151.12 138 152.57C142.768 157.992 146.814 163.845 148.071 171.08C149.807 181.092 147.63 190.172 140.188 197.421C135.424 202.066 129.322 204.205 122.801 204.825C110.441 206.001 98.924 203.523 88.573 196.371C78.9992 189.755 70.9271 181.519 63.219 172.897C58.5529 167.678 54.1808 162.217 49.9522 156.634C48.4995 154.719 48.4575 154.757 47.0958 156.693C45.216 159.364 43.4133 162.091 41.411 164.667C40.4274 165.934 40.2349 167.03 40.8404 168.486C42.1006 171.511 43.5288 174.451 45.258 177.217C56.0675 194.491 69.3764 209.533 85.7061 221.774C98.1153 231.075 112.072 236.224 127.691 235.846C147.791 235.356 161.828 225.499 170.001 207.272C173.204 200.127 173.281 192.563 172.098 184.939C171.328 179.982 169.711 175.253 167.989 170.209C169.14 170.321 169.592 170.982 170.138 171.451C174.94 175.554 179.999 179.282 185.729 182.019C188.9 183.535 192.18 184.75 195.649 185.324C205.437 186.937 213.572 183.878 220.114 176.478C220.807 175.694 221.444 174.864 222.123 174.035C223.198 174.504 222.705 175.438 222.705 176.131C222.733 206.925 222.701 237.722 222.785 268.516C222.792 270.742 221.92 271.8 220.139 272.825C192.821 288.591 163.438 295.113 132.084 292.095C85.7341 287.636 45.4541 261.659 21.8958 223.587C9.41309 203.414 4.01185 180.633 4.01185 180.633C1.92906 171.92 1.07144 164.632 0.710892 160.995C-0.437266 149.37 -0.0207086 139.401 0.738896 131.875Z" fill="#F30000"/>
<path d="M249.739 249.694C249.004 248.633 249.291 247.681 249.284 246.809C248.888 195.153 248.51 143.493 248.132 91.8359C248.129 91.2514 248.129 90.6703 248.125 90.0857C248.108 86.5467 247.761 86.6867 251.489 86.6342C259.768 86.5117 268.043 86.3472 276.322 86.2212C279.458 86.1721 279.465 86.1897 280.659 89.004C289.833 110.641 293.764 133.173 292.067 156.63C289.536 191.561 276.133 221.742 252.224 247.289C251.458 248.101 250.618 248.843 249.739 249.694Z" fill="#F30000"/>
</svg>
