<svg width="59" height="59" viewBox="0 0 59 59" fill="none" xmlns="http://www.w3.org/2000/svg">
<g id="child_care_24px">
<path id="icon/places/child_care_24px" fill-rule="evenodd" clip-rule="evenodd" d="M49.4864 20.0846C53.051 21.1417 55.7797 24.1654 56.3943 27.8775C56.4927 28.3937 56.5418 28.9346 56.5418 29.5C56.5418 30.0654 56.4927 30.6062 56.3943 31.1225C55.7797 34.8592 53.051 37.8583 49.511 38.9154C48.2327 41.6196 46.3889 44.0533 44.1764 46.02C40.2677 49.5108 35.1297 51.625 29.5002 51.625C23.8706 51.625 18.7327 49.5108 14.8485 46.02C12.636 44.0533 10.7922 41.6442 9.51391 38.9154C5.94933 37.8583 3.22058 34.8346 2.606 31.1225C2.50766 30.6062 2.4585 30.0654 2.4585 29.5C2.4585 28.9346 2.50766 28.3937 2.606 27.8775C3.22058 24.1408 5.94933 21.1417 9.51391 20.0846C10.7922 17.3558 12.636 14.9221 14.8977 12.9308C18.7818 9.46458 23.8952 7.375 29.5002 7.375C35.1052 7.375 40.2185 9.46458 44.1027 12.9308C46.3397 14.9221 48.1835 17.3313 49.4864 20.0846ZM23.3543 22.7396C21.6572 22.7396 20.2814 24.1154 20.2814 25.8125C20.2814 27.5096 21.6572 28.8854 23.3543 28.8854C25.0515 28.8854 26.4272 27.5096 26.4272 25.8125C26.4272 24.1154 25.0515 22.7396 23.3543 22.7396ZM35.646 22.7396C33.9489 22.7396 32.5731 24.1154 32.5731 25.8125C32.5731 27.5096 33.9489 28.8854 35.646 28.8854C37.3431 28.8854 38.7189 27.5096 38.7189 25.8125C38.7189 24.1154 37.3431 22.7396 35.646 22.7396ZM46.7085 34.4167C46.5481 34.4167 46.3982 34.3957 46.245 34.3744L46.2449 34.3743C46.1634 34.363 46.081 34.3515 45.9956 34.3429C45.5039 35.99 44.791 37.5142 43.8814 38.9154C40.8085 43.6108 35.5231 46.7083 29.5002 46.7083C23.4772 46.7083 18.1918 43.6108 15.1189 38.9154C14.2093 37.5142 13.4964 35.99 13.0047 34.3429C12.9194 34.3515 12.8369 34.363 12.7554 34.3743L12.7553 34.3744C12.6022 34.3957 12.4522 34.4167 12.2918 34.4167C9.58766 34.4167 7.37516 32.2042 7.37516 29.5C7.37516 26.7958 9.58766 24.5833 12.2918 24.5833C12.4522 24.5833 12.6021 24.6043 12.7553 24.6256L12.7553 24.6256L12.7554 24.6257C12.8369 24.637 12.9193 24.6485 13.0047 24.6571C13.4964 23.01 14.2093 21.4858 15.1189 20.0846C18.1918 15.3892 23.4772 12.2917 29.5002 12.2917C35.5231 12.2917 40.8085 15.3892 43.8814 20.0846C44.791 21.4858 45.5039 23.01 45.9956 24.6571C46.081 24.6485 46.1635 24.637 46.245 24.6256C46.3982 24.6043 46.5481 24.5833 46.7085 24.5833C49.4127 24.5833 51.6252 26.7958 51.6252 29.5C51.6252 32.2042 49.4127 34.4167 46.7085 34.4167ZM40.5627 34.4167C38.6943 38.7679 34.4414 41.7917 29.5002 41.7917C24.5589 41.7917 20.306 38.7679 18.4377 34.4167H40.5627Z" fill="black"/>
</g>
</svg>
