<svg width="108" height="166" viewBox="0 0 108 166" fill="none" xmlns="http://www.w3.org/2000/svg">
<path d="M76.5558 119.581C83.6335 119.581 90.4818 119.581 97.0352 121.788C102.622 123.656 107.439 126.46 107.889 133.207C108.34 139.954 104.613 144.318 99.0503 147.381C98.0062 148.037 96.8754 148.54 95.6917 148.874C92.415 149.571 90.3917 150.874 89.4988 154.683C88.6059 158.492 85.0097 160.027 81.2005 160.276C77.3914 160.525 73.828 159.546 72.1896 155.936C70.9609 153.322 69.4618 153.156 67.0862 153.389C57.4199 154.368 47.7701 155.198 38.1202 156.027C36.1624 156.185 35.0237 156.658 34.3766 158.874C33.0905 163.297 29.7646 165.305 24.9889 165.205C20.4015 165.106 17.133 163.015 16.0353 158.816C15.4783 156.658 14.4953 155.812 12.4719 155.77C12.0648 155.726 11.6638 155.637 11.2759 155.505C6.36086 154.202 1.54412 152.517 0.307169 146.841C-0.929782 141.165 1.71615 136.609 5.60722 132.775C9.12148 129.307 13.586 127.556 18.1815 126.137C25.116 124.011 32.257 122.65 39.48 122.079C41.9376 121.863 42.7567 121.083 42.6666 118.569C42.4618 112.76 42.47 106.951 42.5356 101.142C42.5356 99.0592 42.0686 98.0717 39.8405 97.4493C12.2261 89.7816 -0.815098 67.1768 5.56626 38.2321C11.3742 11.8267 35.974 -4.02316 63.4491 0.889471C88.7042 5.43698 106.095 29.635 102.442 56.14C99.5255 77.2842 88.8107 92.2628 67.2992 97.4161C65.1857 97.9223 64.8007 98.9679 64.8417 100.86C64.9236 106.246 64.9482 111.648 64.8417 117.025C64.7925 119.315 65.3987 120.344 67.848 120.037C70.7889 119.73 73.8034 119.722 76.5558 119.581Z" fill="#010101"/>
<path d="M7.77831 50.6395C7.99949 22.9313 27.4385 3.33885 54.3156 3.71228C80.308 4.05251 99.534 24.0515 99.321 50.515C99.0916 77.8498 80.48 95.5419 52.3004 95.3261C24.8663 95.0108 7.56533 77.6589 7.77831 50.6395Z" fill="#FEFEFE"/>
<path d="M28.675 152.817C21.2451 152.817 15.5027 152.908 9.97328 151.025C3.75575 148.892 2.28942 144.983 5.46782 139.158C7.2425 136.01 10.0004 133.549 13.3073 132.162C21.8677 128.262 31.0015 126.802 40.2499 125.839C42.0439 125.656 42.6337 126.287 42.7075 128.08C42.8058 131.308 42.7812 134.395 40.3155 136.926C39.357 137.913 38.4969 139.324 39.9878 140.502C41.4787 141.681 42.3634 140.32 43.33 139.307C44.6784 137.932 45.6801 136.248 46.2504 134.398C46.8208 132.547 46.943 130.585 46.6067 128.677C46.2381 126.005 47.2539 124.876 49.9571 125.042C51.5955 125.142 53.2338 124.719 54.8722 124.777C56.9201 124.86 59.9265 123.208 60.8112 125.407C61.3417 126.763 61.5719 128.22 61.4856 129.675C61.3992 131.131 60.9984 132.549 60.3115 133.83C59.8528 134.66 59.3285 135.49 58.8042 136.32C57.9851 137.54 57.2642 138.917 58.8042 139.888C60.3443 140.859 61.2044 139.415 62.0809 138.32C63.232 136.95 64.0804 135.347 64.5693 133.618C65.0582 131.889 65.1761 130.074 64.9153 128.295C64.4156 124.851 65.8655 123.756 69.1914 123.748C76.4083 123.748 83.6252 123.125 90.8093 124.279C93.5119 124.659 96.1465 125.43 98.6325 126.569C105.186 129.706 106.169 136.743 100.721 141.631C97.2317 144.759 92.9474 146.162 88.4337 146.875C73.746 149.199 58.9435 150.369 44.141 151.647C38.374 152.103 32.6644 152.51 28.675 152.817Z" fill="#FEFEFE"/>
<path d="M46.6479 109.929C46.6479 106.361 45.3127 101.747 47.0084 99.5149C48.8351 97.1333 53.6437 99.3572 57.0842 98.6851C60.5247 98.0129 61.303 99.4236 61.1801 102.643C60.9425 107.456 60.9999 112.286 61.1801 117.108C61.2538 119.531 60.5247 120.427 58.0508 120.701C46.4923 122.004 46.5005 122.078 46.6479 109.929Z" fill="#FDFDFD"/>
<path d="M25.5787 156.683C25.8497 156.635 26.1269 156.635 26.3979 156.683C27.8068 157.231 30.4528 155.189 30.5674 157.919C30.6657 160.177 28.2246 161.015 26.1193 161.239C25.1815 161.324 24.2361 161.243 23.326 160.998C21.532 160.567 19.5987 159.579 19.8527 157.629C20.123 155.538 22.3102 156.982 23.5799 156.658C24.2451 156.593 24.9153 156.601 25.5787 156.683Z" fill="#EFEFEF"/>
<path d="M84.1493 151.446C85.206 151.446 86.0744 151.115 86.2791 151.944C86.3451 152.606 86.1798 153.269 85.8122 153.82C84.0674 156.807 78.5544 157.429 76.146 154.94C75.6709 154.459 75.1548 153.961 75.3268 153.189C75.507 152.285 76.3262 152.417 76.9652 152.359C79.4636 151.994 82.0113 151.712 84.1493 151.446Z" fill="#EEEEEE"/>
<path d="M44.1494 119.864V100.645H44.6901V119.864H44.1494Z" fill="#040404"/>
<path d="M6.23816 45.8428V56.0909H5.89404V45.8511L6.23816 45.8428Z" fill="#050505"/>
<path d="M68.1838 49.4772C68.2575 58.0577 62.4495 64.1984 54.0366 64.3312C45.0257 64.4723 39.0457 58.8294 38.8901 50.1079C38.7344 41.3864 44.8946 34.8722 53.5451 34.698C62.0645 34.5486 68.1018 40.6811 68.1838 49.4772Z" fill="#030303"/>
<path d="M51.3661 79.9488C53.5369 79.8327 55.7077 79.758 57.7393 78.7788C58.9517 78.1979 60.1968 78.0983 60.8194 79.6086C61.442 81.1189 60.2869 81.8658 59.1811 82.4301C56.1419 83.9238 52.8816 83.9902 49.6049 83.8159C48.1959 83.7412 46.6231 83.5255 46.7132 81.6998C46.8033 79.8742 48.3515 79.7663 49.7687 79.8659C50.2766 79.9073 50.7927 79.9156 51.3661 79.9488Z" fill="#0D0D0D"/>
<path d="M55.4951 72.7866C55.6098 71.434 56.3143 70.6207 57.5513 70.6207C57.8245 70.6041 58.0982 70.646 58.3544 70.7436C58.6107 70.8412 58.8438 70.9924 59.0385 71.1873C59.2332 71.3822 59.3853 71.6165 59.4847 71.8749C59.5841 72.1333 59.6287 72.41 59.6156 72.687C59.6364 72.9638 59.598 73.2418 59.5029 73.5021C59.4078 73.7624 59.2582 73.9988 59.0645 74.195C58.8707 74.3913 58.6374 74.5428 58.3804 74.6392C58.1235 74.7355 57.849 74.7745 57.5758 74.7533C57.3094 74.7727 57.0419 74.7362 56.79 74.6461C56.5382 74.556 56.3074 74.4142 56.1121 74.2296C55.9168 74.045 55.7612 73.8216 55.655 73.5733C55.5489 73.325 55.4944 73.0572 55.4951 72.7866Z" fill="#191919"/>
<path d="M50.3752 73.9245C50.2924 74.4724 49.9982 74.9646 49.5574 75.2929C49.1165 75.6212 48.5651 75.7588 48.0241 75.6754C47.7545 75.6677 47.4898 75.6012 47.2479 75.4805C47.006 75.3597 46.7926 75.1875 46.6223 74.9757C46.452 74.7638 46.3289 74.5172 46.2612 74.2528C46.1935 73.9883 46.1829 73.7122 46.2301 73.4432C46.2307 73.1407 46.3002 72.8424 46.4332 72.5715C46.5662 72.3006 46.7591 72.0644 46.9968 71.8814C47.2346 71.6983 47.5109 71.5733 47.8041 71.516C48.0974 71.4588 48.3998 71.4708 48.6877 71.5512C49.2184 71.6468 49.6915 71.9481 50.0065 72.3912C50.3216 72.8343 50.4538 73.3843 50.3752 73.9245Z" fill="#212121"/>
<path d="M88.475 131.722C88.4892 132.002 88.445 132.282 88.3454 132.544C88.2457 132.806 88.0928 133.043 87.8966 133.241C87.7003 133.44 87.4652 133.593 87.2063 133.693C86.9475 133.793 86.6708 133.837 86.3943 133.821C86.1251 133.849 85.8534 133.817 85.5971 133.73C85.3408 133.642 85.106 133.5 84.9082 133.313C84.7105 133.126 84.5545 132.899 84.4505 132.646C84.3465 132.393 84.2971 132.12 84.3054 131.846C84.2686 131.54 84.3025 131.23 84.4045 130.939C84.5064 130.648 84.6735 130.386 84.8927 130.172C85.1119 129.958 85.3772 129.798 85.6676 129.706C85.958 129.613 86.2657 129.591 86.5663 129.639C86.8288 129.642 87.0879 129.699 87.328 129.806C87.568 129.914 87.7839 130.07 87.9625 130.265C88.1411 130.46 88.2786 130.69 88.3667 130.94C88.4548 131.191 88.4917 131.457 88.475 131.722Z" fill="#212121"/>
<path d="M80.6599 139.481C80.6977 140.033 80.5251 140.579 80.1777 141.007C79.8304 141.434 79.3346 141.711 78.7922 141.779C78.4884 141.856 78.1709 141.859 77.8658 141.788C77.5608 141.716 77.2767 141.573 77.0369 141.369C76.7972 141.165 76.6085 140.906 76.4865 140.614C76.3644 140.322 76.3123 140.005 76.3346 139.688C76.3234 139.412 76.3681 139.135 76.466 138.877C76.5639 138.618 76.713 138.383 76.904 138.185C77.095 137.986 77.3239 137.83 77.5768 137.725C77.8296 137.619 78.101 137.567 78.3744 137.572C79.7015 137.498 80.3568 138.294 80.6599 139.481Z" fill="#202020"/>
<path d="M87.3692 139.281C87.2997 139.82 87.0312 140.312 86.6178 140.659C86.2044 141.005 85.6767 141.18 85.141 141.148C84.8704 141.169 84.5986 141.13 84.3448 141.032C84.0909 140.935 83.8613 140.782 83.6722 140.585C83.483 140.388 83.339 140.151 83.2502 139.892C83.1615 139.632 83.1302 139.355 83.1586 139.082C83.1335 138.773 83.1796 138.462 83.2935 138.174C83.4073 137.886 83.5857 137.629 83.8146 137.423C84.0434 137.217 84.3164 137.068 84.612 136.987C84.9077 136.906 85.2178 136.896 85.5179 136.958C86.0653 137.022 86.5658 137.302 86.912 137.736C87.2581 138.171 87.4223 138.725 87.3692 139.281Z" fill="#1D1D1D"/>
<path d="M27.766 141.846C28.0415 141.842 28.3149 141.896 28.5696 142.002C28.8243 142.108 29.0551 142.266 29.248 142.465C29.4409 142.665 29.592 142.902 29.692 143.162C29.7921 143.422 29.8391 143.7 29.8303 143.979C29.85 144.289 29.7983 144.6 29.6793 144.887C29.5603 145.173 29.3773 145.428 29.1446 145.631C28.9119 145.833 28.636 145.979 28.3384 146.055C28.0409 146.131 27.73 146.137 27.4301 146.07C27.1584 146.064 26.8912 145.999 26.6473 145.877C26.4033 145.756 26.1884 145.582 26.0176 145.368C25.8468 145.154 25.7241 144.904 25.6582 144.637C25.5924 144.37 25.5848 144.092 25.6361 143.821C25.6758 143.279 25.9183 142.772 26.3142 142.405C26.71 142.038 27.2293 141.838 27.766 141.846Z" fill="#1D1D1D"/>
<path d="M81.5366 132.187C81.573 132.735 81.3961 133.275 81.044 133.692C80.6918 134.11 80.1923 134.371 79.6525 134.419C79.3889 134.48 79.1155 134.482 78.8511 134.425C78.5866 134.369 78.3374 134.255 78.1203 134.092C77.9033 133.929 77.7236 133.72 77.5936 133.48C77.4635 133.24 77.3862 132.975 77.3669 132.701C77.2988 132.402 77.2996 132.091 77.3694 131.792C77.4392 131.493 77.576 131.214 77.7694 130.977C77.9627 130.741 78.2073 130.552 78.4841 130.427C78.761 130.301 79.0626 130.242 79.3657 130.254C80.6273 130.162 81.2417 131.05 81.5366 132.187Z" fill="#1A1A1A"/>
<path d="M31.2473 136.684C31.1162 138.177 30.3462 138.966 29.1749 138.941C28.8722 138.965 28.5681 138.919 28.2861 138.805C28.0041 138.691 27.7518 138.513 27.549 138.284C27.3461 138.055 27.198 137.782 27.1163 137.486C27.0346 137.189 27.0214 136.878 27.0778 136.576C27.1454 136.056 27.4006 135.579 27.7944 135.238C28.1882 134.897 28.6926 134.716 29.2105 134.729C29.7283 134.743 30.223 134.95 30.599 135.311C30.9751 135.671 31.2061 136.161 31.2473 136.684Z" fill="#1B1B1B"/>
<path d="M24.3256 137.53C24.0307 138.808 23.3344 139.538 22.0975 139.514C21.8297 139.532 21.5613 139.491 21.3108 139.393C21.0602 139.296 20.8336 139.144 20.6466 138.949C20.4596 138.754 20.3167 138.521 20.2277 138.264C20.1388 138.008 20.1059 137.735 20.1314 137.464C20.1069 137.158 20.1527 136.85 20.2652 136.564C20.3778 136.279 20.554 136.024 20.7801 135.819C21.0062 135.614 21.2761 135.465 21.5686 135.383C21.8611 135.301 22.1683 135.289 22.4661 135.348C22.9865 135.417 23.4635 135.678 23.8064 136.08C24.1493 136.483 24.3341 136.999 24.3256 137.53Z" fill="#161616"/>
<path d="M18.6074 144.717C18.6018 144.44 18.6516 144.164 18.7538 143.907C18.8559 143.65 19.0084 143.416 19.202 143.22C19.3955 143.024 19.6262 142.869 19.8802 142.766C20.1342 142.662 20.4062 142.612 20.6799 142.618C20.9545 142.592 21.2315 142.627 21.4916 142.72C21.7517 142.813 21.9887 142.962 22.1865 143.157C22.3843 143.352 22.538 143.587 22.6371 143.848C22.7362 144.109 22.7783 144.388 22.7606 144.667C22.7771 144.947 22.7351 145.227 22.6374 145.489C22.5398 145.751 22.3886 145.99 22.1937 146.189C21.9989 146.388 21.7648 146.543 21.5067 146.644C21.2487 146.745 20.9725 146.789 20.6963 146.775C19.4265 146.808 18.7384 145.995 18.6074 144.717Z" fill="#111111"/>
<path d="M64.6207 49.7013C64.5715 56.3401 60.1316 60.73 53.4882 60.6221C46.517 60.5142 42.3638 56.3899 42.4621 49.6681C42.4325 48.1473 42.7086 46.6362 43.2738 45.2269C43.8389 43.8176 44.6813 42.5396 45.7496 41.4706C46.8178 40.4016 48.0897 39.564 49.4877 39.0088C50.8857 38.4536 52.3806 38.1924 53.8814 38.2411C60.189 38.2411 64.6698 43.0293 64.6207 49.7013Z" fill="#FDFDFD"/>
</svg>
